%TF.GenerationSoftware,KiCad,Pcbnew,8.0.4*%
%TF.CreationDate,2024-09-09T00:03:51+05:30*%
%TF.ProjectId,buck conv,6275636b-2063-46f6-9e76-2e6b69636164,rev?*%
%TF.SameCoordinates,Original*%
%TF.FileFunction,Copper,L1,Top*%
%TF.FilePolarity,Positive*%
%FSLAX46Y46*%
G04 Gerber Fmt 4.6, Leading zero omitted, Abs format (unit mm)*
G04 Created by KiCad (PCBNEW 8.0.4) date 2024-09-09 00:03:51*
%MOMM*%
%LPD*%
G01*
G04 APERTURE LIST*
G04 Aperture macros list*
%AMRoundRect*
0 Rectangle with rounded corners*
0 $1 Rounding radius*
0 $2 $3 $4 $5 $6 $7 $8 $9 X,Y pos of 4 corners*
0 Add a 4 corners polygon primitive as box body*
4,1,4,$2,$3,$4,$5,$6,$7,$8,$9,$2,$3,0*
0 Add four circle primitives for the rounded corners*
1,1,$1+$1,$2,$3*
1,1,$1+$1,$4,$5*
1,1,$1+$1,$6,$7*
1,1,$1+$1,$8,$9*
0 Add four rect primitives between the rounded corners*
20,1,$1+$1,$2,$3,$4,$5,0*
20,1,$1+$1,$4,$5,$6,$7,0*
20,1,$1+$1,$6,$7,$8,$9,0*
20,1,$1+$1,$8,$9,$2,$3,0*%
G04 Aperture macros list end*
%TA.AperFunction,SMDPad,CuDef*%
%ADD10RoundRect,0.250000X1.000000X-1.500000X1.000000X1.500000X-1.000000X1.500000X-1.000000X-1.500000X0*%
%TD*%
%TA.AperFunction,SMDPad,CuDef*%
%ADD11RoundRect,0.237500X-0.237500X0.300000X-0.237500X-0.300000X0.237500X-0.300000X0.237500X0.300000X0*%
%TD*%
%TA.AperFunction,ComponentPad*%
%ADD12R,2.600000X2.600000*%
%TD*%
%TA.AperFunction,ComponentPad*%
%ADD13C,2.600000*%
%TD*%
%TA.AperFunction,SMDPad,CuDef*%
%ADD14RoundRect,0.250000X0.300000X-2.050000X0.300000X2.050000X-0.300000X2.050000X-0.300000X-2.050000X0*%
%TD*%
%TA.AperFunction,SMDPad,CuDef*%
%ADD15RoundRect,0.250000X2.375000X-2.025000X2.375000X2.025000X-2.375000X2.025000X-2.375000X-2.025000X0*%
%TD*%
%TA.AperFunction,SMDPad,CuDef*%
%ADD16RoundRect,0.250002X5.149998X-4.449998X5.149998X4.449998X-5.149998X4.449998X-5.149998X-4.449998X0*%
%TD*%
%TA.AperFunction,SMDPad,CuDef*%
%ADD17RoundRect,0.250000X-1.500000X-1.000000X1.500000X-1.000000X1.500000X1.000000X-1.500000X1.000000X0*%
%TD*%
%TA.AperFunction,SMDPad,CuDef*%
%ADD18RoundRect,0.250000X-1.000000X-0.650000X1.000000X-0.650000X1.000000X0.650000X-1.000000X0.650000X0*%
%TD*%
%TA.AperFunction,SMDPad,CuDef*%
%ADD19RoundRect,0.200000X-0.275000X0.200000X-0.275000X-0.200000X0.275000X-0.200000X0.275000X0.200000X0*%
%TD*%
%TA.AperFunction,SMDPad,CuDef*%
%ADD20RoundRect,0.147500X0.172500X-0.147500X0.172500X0.147500X-0.172500X0.147500X-0.172500X-0.147500X0*%
%TD*%
%TA.AperFunction,SMDPad,CuDef*%
%ADD21R,5.400000X2.900000*%
%TD*%
%TA.AperFunction,SMDPad,CuDef*%
%ADD22RoundRect,0.250000X1.625000X-0.587500X1.625000X0.587500X-1.625000X0.587500X-1.625000X-0.587500X0*%
%TD*%
%TA.AperFunction,Conductor*%
%ADD23C,0.254000*%
%TD*%
%TA.AperFunction,Conductor*%
%ADD24C,1.000000*%
%TD*%
G04 APERTURE END LIST*
D10*
%TO.P,C3,1*%
%TO.N,+5V*%
X138000000Y-119500000D03*
%TO.P,C3,2*%
%TO.N,GND*%
X138000000Y-113000000D03*
%TD*%
D11*
%TO.P,C2,1*%
%TO.N,+VDC*%
X172000000Y-125500000D03*
%TO.P,C2,2*%
%TO.N,GND*%
X172000000Y-127225000D03*
%TD*%
D12*
%TO.P,J2,1,Pin_1*%
%TO.N,+5V*%
X124000000Y-113500000D03*
D13*
%TO.P,J2,2,Pin_2*%
%TO.N,GND*%
X124000000Y-118580000D03*
%TD*%
D14*
%TO.P,U1,1,VIN*%
%TO.N,+VDC*%
X162325000Y-121575000D03*
%TO.P,U1,2,OUT*%
%TO.N,Net-(D2-K)*%
X164025000Y-121575000D03*
%TO.P,U1,3,GND*%
%TO.N,GND*%
X165725000Y-121575000D03*
D15*
X162950000Y-114850000D03*
X168500000Y-114850000D03*
D16*
X165725000Y-112425000D03*
D15*
X162950000Y-110000000D03*
X168500000Y-110000000D03*
D14*
%TO.P,U1,4,FB*%
%TO.N,+5V*%
X167425000Y-121575000D03*
%TO.P,U1,5,~{ON}/OFF*%
%TO.N,GND*%
X169125000Y-121575000D03*
%TD*%
D17*
%TO.P,C1,1*%
%TO.N,+VDC*%
X173750000Y-121000000D03*
%TO.P,C1,2*%
%TO.N,GND*%
X180250000Y-121000000D03*
%TD*%
D18*
%TO.P,D2,1,K*%
%TO.N,Net-(D2-K)*%
X165500000Y-129000000D03*
%TO.P,D2,2,A*%
%TO.N,GND*%
X169500000Y-129000000D03*
%TD*%
D19*
%TO.P,R1,1*%
%TO.N,+5V*%
X138000000Y-123350000D03*
%TO.P,R1,2*%
%TO.N,Net-(D3-A)*%
X138000000Y-125000000D03*
%TD*%
D20*
%TO.P,D3,1,K*%
%TO.N,GND*%
X138000000Y-127485000D03*
%TO.P,D3,2,A*%
%TO.N,Net-(D3-A)*%
X138000000Y-126515000D03*
%TD*%
D12*
%TO.P,J1,1,Pin_1*%
%TO.N,GND*%
X200805000Y-119045000D03*
D13*
%TO.P,J1,2,Pin_2*%
%TO.N,Net-(D1-A)*%
X200805000Y-113965000D03*
%TD*%
D21*
%TO.P,L1,1,1*%
%TO.N,Net-(D2-K)*%
X151000000Y-121400000D03*
%TO.P,L1,2,2*%
%TO.N,+5V*%
X151000000Y-111500000D03*
%TD*%
D22*
%TO.P,D1,1,K*%
%TO.N,+VDC*%
X187000000Y-123375000D03*
%TO.P,D1,2,A*%
%TO.N,Net-(D1-A)*%
X187000000Y-119000000D03*
%TD*%
D23*
%TO.N,GND*%
X135954000Y-115046000D02*
X138000000Y-113000000D01*
D24*
X171525000Y-127225000D02*
X170800000Y-126500000D01*
D23*
X165725000Y-121575000D02*
X165725000Y-123875000D01*
D24*
X172000000Y-127225000D02*
X171525000Y-127225000D01*
X195250000Y-123750000D02*
X196500000Y-122500000D01*
D23*
X132874000Y-127454000D02*
X134188053Y-127454000D01*
X170600430Y-120099570D02*
X170800000Y-120099570D01*
D24*
X197350000Y-122500000D02*
X200805000Y-119045000D01*
X170800000Y-120099570D02*
X171849570Y-119050000D01*
X180250000Y-121000000D02*
X192500000Y-121000000D01*
D23*
X165725000Y-123875000D02*
X167350000Y-125500000D01*
X138000000Y-127485000D02*
X137680001Y-127485000D01*
D24*
X192500000Y-121000000D02*
X195250000Y-123750000D01*
D23*
X136423000Y-114577000D02*
X138000000Y-113000000D01*
D24*
X195250000Y-123750000D02*
X195500000Y-124000000D01*
D23*
X134188053Y-127454000D02*
X135954000Y-125688053D01*
X169125000Y-121575000D02*
X170600430Y-120099570D01*
D24*
X171275000Y-127225000D02*
X169500000Y-129000000D01*
X170800000Y-126500000D02*
X170800000Y-125500000D01*
D23*
X138000000Y-113000000D02*
X141277000Y-109723000D01*
X169500000Y-129000000D02*
X170225000Y-129000000D01*
D24*
X178300000Y-119050000D02*
X180250000Y-121000000D01*
D23*
X124000000Y-118580000D02*
X132874000Y-127454000D01*
X167350000Y-125500000D02*
X170800000Y-125500000D01*
X136423000Y-126227999D02*
X136423000Y-114577000D01*
D24*
X196500000Y-122500000D02*
X197350000Y-122500000D01*
X172000000Y-127225000D02*
X171275000Y-127225000D01*
D23*
X135954000Y-125688053D02*
X135954000Y-115046000D01*
D24*
X170800000Y-125500000D02*
X170800000Y-120099570D01*
D23*
X195500000Y-124000000D02*
X194960500Y-124539500D01*
D24*
X171849570Y-119050000D02*
X178300000Y-119050000D01*
D23*
X141277000Y-109723000D02*
X162522570Y-109723000D01*
X137680001Y-127485000D02*
X136423000Y-126227999D01*
X162522570Y-109723000D02*
X171849570Y-119050000D01*
D24*
%TO.N,+VDC*%
X170900430Y-130600000D02*
X173200000Y-128300430D01*
X173200000Y-126200000D02*
X172500000Y-125500000D01*
X162325000Y-121575000D02*
X162325000Y-128825430D01*
X187000000Y-123375000D02*
X176125000Y-123375000D01*
X176125000Y-123375000D02*
X173750000Y-121000000D01*
X164099570Y-130600000D02*
X170900430Y-130600000D01*
X172500000Y-125500000D02*
X172000000Y-125500000D01*
X162325000Y-128825430D02*
X164099570Y-130600000D01*
X173200000Y-128300430D02*
X173200000Y-126200000D01*
X172000000Y-125500000D02*
X172000000Y-122750000D01*
X172000000Y-122750000D02*
X173750000Y-121000000D01*
D23*
%TO.N,+5V*%
X131226074Y-128107000D02*
X138373132Y-128107000D01*
X138802000Y-120302000D02*
X138000000Y-119500000D01*
X138000000Y-119500000D02*
X138000000Y-123350000D01*
X138802000Y-127678132D02*
X138802000Y-120302000D01*
X137500000Y-119000000D02*
X138000000Y-119500000D01*
X126779074Y-113500000D02*
X122373000Y-117906074D01*
X156952000Y-117452000D02*
X151000000Y-111500000D01*
X138373132Y-128107000D02*
X138802000Y-127678132D01*
X146000000Y-111500000D02*
X138000000Y-119500000D01*
X165602000Y-117452000D02*
X156952000Y-117452000D01*
X122373000Y-119253926D02*
X131226074Y-128107000D01*
X124000000Y-113500000D02*
X126779074Y-113500000D01*
X167425000Y-119275000D02*
X165602000Y-117452000D01*
X167425000Y-121575000D02*
X167425000Y-119275000D01*
X151000000Y-111500000D02*
X146000000Y-111500000D01*
X122373000Y-117906074D02*
X122373000Y-119253926D01*
D24*
%TO.N,Net-(D1-A)*%
X195850000Y-118920000D02*
X200805000Y-113965000D01*
X187080000Y-118920000D02*
X195850000Y-118920000D01*
X187000000Y-119000000D02*
X187080000Y-118920000D01*
D23*
%TO.N,Net-(D2-K)*%
X164025000Y-119525000D02*
X164025000Y-121575000D01*
D24*
X165500000Y-129000000D02*
X164025000Y-127525000D01*
D23*
X153452000Y-118948000D02*
X163448000Y-118948000D01*
X164352000Y-124202000D02*
X164025000Y-123875000D01*
X164025000Y-123875000D02*
X164025000Y-121575000D01*
X163448000Y-118948000D02*
X164025000Y-119525000D01*
D24*
X164025000Y-127525000D02*
X164025000Y-121575000D01*
D23*
X151000000Y-121400000D02*
X153452000Y-118948000D01*
%TO.N,Net-(D3-A)*%
X138000000Y-125000000D02*
X138000000Y-126515000D01*
%TD*%
M02*
