%TF.GenerationSoftware,KiCad,Pcbnew,8.0.4*%
%TF.CreationDate,2024-09-09T00:03:51+05:30*%
%TF.ProjectId,buck conv,6275636b-2063-46f6-9e76-2e6b69636164,rev?*%
%TF.SameCoordinates,Original*%
%TF.FileFunction,Legend,Top*%
%TF.FilePolarity,Positive*%
%FSLAX46Y46*%
G04 Gerber Fmt 4.6, Leading zero omitted, Abs format (unit mm)*
G04 Created by KiCad (PCBNEW 8.0.4) date 2024-09-09 00:03:51*
%MOMM*%
%LPD*%
G01*
G04 APERTURE LIST*
%ADD10C,0.150000*%
%ADD11C,0.120000*%
%ADD12C,0.100000*%
G04 APERTURE END LIST*
D10*
X133159580Y-116416666D02*
X133207200Y-116464285D01*
X133207200Y-116464285D02*
X133254819Y-116607142D01*
X133254819Y-116607142D02*
X133254819Y-116702380D01*
X133254819Y-116702380D02*
X133207200Y-116845237D01*
X133207200Y-116845237D02*
X133111961Y-116940475D01*
X133111961Y-116940475D02*
X133016723Y-116988094D01*
X133016723Y-116988094D02*
X132826247Y-117035713D01*
X132826247Y-117035713D02*
X132683390Y-117035713D01*
X132683390Y-117035713D02*
X132492914Y-116988094D01*
X132492914Y-116988094D02*
X132397676Y-116940475D01*
X132397676Y-116940475D02*
X132302438Y-116845237D01*
X132302438Y-116845237D02*
X132254819Y-116702380D01*
X132254819Y-116702380D02*
X132254819Y-116607142D01*
X132254819Y-116607142D02*
X132302438Y-116464285D01*
X132302438Y-116464285D02*
X132350057Y-116416666D01*
X132254819Y-116083332D02*
X132254819Y-115464285D01*
X132254819Y-115464285D02*
X132635771Y-115797618D01*
X132635771Y-115797618D02*
X132635771Y-115654761D01*
X132635771Y-115654761D02*
X132683390Y-115559523D01*
X132683390Y-115559523D02*
X132731009Y-115511904D01*
X132731009Y-115511904D02*
X132826247Y-115464285D01*
X132826247Y-115464285D02*
X133064342Y-115464285D01*
X133064342Y-115464285D02*
X133159580Y-115511904D01*
X133159580Y-115511904D02*
X133207200Y-115559523D01*
X133207200Y-115559523D02*
X133254819Y-115654761D01*
X133254819Y-115654761D02*
X133254819Y-115940475D01*
X133254819Y-115940475D02*
X133207200Y-116035713D01*
X133207200Y-116035713D02*
X133159580Y-116083332D01*
X173789580Y-126529166D02*
X173837200Y-126576785D01*
X173837200Y-126576785D02*
X173884819Y-126719642D01*
X173884819Y-126719642D02*
X173884819Y-126814880D01*
X173884819Y-126814880D02*
X173837200Y-126957737D01*
X173837200Y-126957737D02*
X173741961Y-127052975D01*
X173741961Y-127052975D02*
X173646723Y-127100594D01*
X173646723Y-127100594D02*
X173456247Y-127148213D01*
X173456247Y-127148213D02*
X173313390Y-127148213D01*
X173313390Y-127148213D02*
X173122914Y-127100594D01*
X173122914Y-127100594D02*
X173027676Y-127052975D01*
X173027676Y-127052975D02*
X172932438Y-126957737D01*
X172932438Y-126957737D02*
X172884819Y-126814880D01*
X172884819Y-126814880D02*
X172884819Y-126719642D01*
X172884819Y-126719642D02*
X172932438Y-126576785D01*
X172932438Y-126576785D02*
X172980057Y-126529166D01*
X172980057Y-126148213D02*
X172932438Y-126100594D01*
X172932438Y-126100594D02*
X172884819Y-126005356D01*
X172884819Y-126005356D02*
X172884819Y-125767261D01*
X172884819Y-125767261D02*
X172932438Y-125672023D01*
X172932438Y-125672023D02*
X172980057Y-125624404D01*
X172980057Y-125624404D02*
X173075295Y-125576785D01*
X173075295Y-125576785D02*
X173170533Y-125576785D01*
X173170533Y-125576785D02*
X173313390Y-125624404D01*
X173313390Y-125624404D02*
X173884819Y-126195832D01*
X173884819Y-126195832D02*
X173884819Y-125576785D01*
X129714819Y-116373333D02*
X130429104Y-116373333D01*
X130429104Y-116373333D02*
X130571961Y-116420952D01*
X130571961Y-116420952D02*
X130667200Y-116516190D01*
X130667200Y-116516190D02*
X130714819Y-116659047D01*
X130714819Y-116659047D02*
X130714819Y-116754285D01*
X129810057Y-115944761D02*
X129762438Y-115897142D01*
X129762438Y-115897142D02*
X129714819Y-115801904D01*
X129714819Y-115801904D02*
X129714819Y-115563809D01*
X129714819Y-115563809D02*
X129762438Y-115468571D01*
X129762438Y-115468571D02*
X129810057Y-115420952D01*
X129810057Y-115420952D02*
X129905295Y-115373333D01*
X129905295Y-115373333D02*
X130000533Y-115373333D01*
X130000533Y-115373333D02*
X130143390Y-115420952D01*
X130143390Y-115420952D02*
X130714819Y-115992380D01*
X130714819Y-115992380D02*
X130714819Y-115373333D01*
X158529819Y-114686904D02*
X159339342Y-114686904D01*
X159339342Y-114686904D02*
X159434580Y-114639285D01*
X159434580Y-114639285D02*
X159482200Y-114591666D01*
X159482200Y-114591666D02*
X159529819Y-114496428D01*
X159529819Y-114496428D02*
X159529819Y-114305952D01*
X159529819Y-114305952D02*
X159482200Y-114210714D01*
X159482200Y-114210714D02*
X159434580Y-114163095D01*
X159434580Y-114163095D02*
X159339342Y-114115476D01*
X159339342Y-114115476D02*
X158529819Y-114115476D01*
X159529819Y-113115476D02*
X159529819Y-113686904D01*
X159529819Y-113401190D02*
X158529819Y-113401190D01*
X158529819Y-113401190D02*
X158672676Y-113496428D01*
X158672676Y-113496428D02*
X158767914Y-113591666D01*
X158767914Y-113591666D02*
X158815533Y-113686904D01*
X176833333Y-116159580D02*
X176785714Y-116207200D01*
X176785714Y-116207200D02*
X176642857Y-116254819D01*
X176642857Y-116254819D02*
X176547619Y-116254819D01*
X176547619Y-116254819D02*
X176404762Y-116207200D01*
X176404762Y-116207200D02*
X176309524Y-116111961D01*
X176309524Y-116111961D02*
X176261905Y-116016723D01*
X176261905Y-116016723D02*
X176214286Y-115826247D01*
X176214286Y-115826247D02*
X176214286Y-115683390D01*
X176214286Y-115683390D02*
X176261905Y-115492914D01*
X176261905Y-115492914D02*
X176309524Y-115397676D01*
X176309524Y-115397676D02*
X176404762Y-115302438D01*
X176404762Y-115302438D02*
X176547619Y-115254819D01*
X176547619Y-115254819D02*
X176642857Y-115254819D01*
X176642857Y-115254819D02*
X176785714Y-115302438D01*
X176785714Y-115302438D02*
X176833333Y-115350057D01*
X177785714Y-116254819D02*
X177214286Y-116254819D01*
X177500000Y-116254819D02*
X177500000Y-115254819D01*
X177500000Y-115254819D02*
X177404762Y-115397676D01*
X177404762Y-115397676D02*
X177309524Y-115492914D01*
X177309524Y-115492914D02*
X177214286Y-115540533D01*
X166761905Y-126954819D02*
X166761905Y-125954819D01*
X166761905Y-125954819D02*
X167000000Y-125954819D01*
X167000000Y-125954819D02*
X167142857Y-126002438D01*
X167142857Y-126002438D02*
X167238095Y-126097676D01*
X167238095Y-126097676D02*
X167285714Y-126192914D01*
X167285714Y-126192914D02*
X167333333Y-126383390D01*
X167333333Y-126383390D02*
X167333333Y-126526247D01*
X167333333Y-126526247D02*
X167285714Y-126716723D01*
X167285714Y-126716723D02*
X167238095Y-126811961D01*
X167238095Y-126811961D02*
X167142857Y-126907200D01*
X167142857Y-126907200D02*
X167000000Y-126954819D01*
X167000000Y-126954819D02*
X166761905Y-126954819D01*
X167714286Y-126050057D02*
X167761905Y-126002438D01*
X167761905Y-126002438D02*
X167857143Y-125954819D01*
X167857143Y-125954819D02*
X168095238Y-125954819D01*
X168095238Y-125954819D02*
X168190476Y-126002438D01*
X168190476Y-126002438D02*
X168238095Y-126050057D01*
X168238095Y-126050057D02*
X168285714Y-126145295D01*
X168285714Y-126145295D02*
X168285714Y-126240533D01*
X168285714Y-126240533D02*
X168238095Y-126383390D01*
X168238095Y-126383390D02*
X167666667Y-126954819D01*
X167666667Y-126954819D02*
X168285714Y-126954819D01*
X139884819Y-124341666D02*
X139408628Y-124674999D01*
X139884819Y-124913094D02*
X138884819Y-124913094D01*
X138884819Y-124913094D02*
X138884819Y-124532142D01*
X138884819Y-124532142D02*
X138932438Y-124436904D01*
X138932438Y-124436904D02*
X138980057Y-124389285D01*
X138980057Y-124389285D02*
X139075295Y-124341666D01*
X139075295Y-124341666D02*
X139218152Y-124341666D01*
X139218152Y-124341666D02*
X139313390Y-124389285D01*
X139313390Y-124389285D02*
X139361009Y-124436904D01*
X139361009Y-124436904D02*
X139408628Y-124532142D01*
X139408628Y-124532142D02*
X139408628Y-124913094D01*
X139884819Y-123389285D02*
X139884819Y-123960713D01*
X139884819Y-123674999D02*
X138884819Y-123674999D01*
X138884819Y-123674999D02*
X139027676Y-123770237D01*
X139027676Y-123770237D02*
X139122914Y-123865475D01*
X139122914Y-123865475D02*
X139170533Y-123960713D01*
X137284819Y-127738094D02*
X136284819Y-127738094D01*
X136284819Y-127738094D02*
X136284819Y-127499999D01*
X136284819Y-127499999D02*
X136332438Y-127357142D01*
X136332438Y-127357142D02*
X136427676Y-127261904D01*
X136427676Y-127261904D02*
X136522914Y-127214285D01*
X136522914Y-127214285D02*
X136713390Y-127166666D01*
X136713390Y-127166666D02*
X136856247Y-127166666D01*
X136856247Y-127166666D02*
X137046723Y-127214285D01*
X137046723Y-127214285D02*
X137141961Y-127261904D01*
X137141961Y-127261904D02*
X137237200Y-127357142D01*
X137237200Y-127357142D02*
X137284819Y-127499999D01*
X137284819Y-127499999D02*
X137284819Y-127738094D01*
X136284819Y-126833332D02*
X136284819Y-126214285D01*
X136284819Y-126214285D02*
X136665771Y-126547618D01*
X136665771Y-126547618D02*
X136665771Y-126404761D01*
X136665771Y-126404761D02*
X136713390Y-126309523D01*
X136713390Y-126309523D02*
X136761009Y-126261904D01*
X136761009Y-126261904D02*
X136856247Y-126214285D01*
X136856247Y-126214285D02*
X137094342Y-126214285D01*
X137094342Y-126214285D02*
X137189580Y-126261904D01*
X137189580Y-126261904D02*
X137237200Y-126309523D01*
X137237200Y-126309523D02*
X137284819Y-126404761D01*
X137284819Y-126404761D02*
X137284819Y-126690475D01*
X137284819Y-126690475D02*
X137237200Y-126785713D01*
X137237200Y-126785713D02*
X137189580Y-126833332D01*
X193999819Y-116838333D02*
X194714104Y-116838333D01*
X194714104Y-116838333D02*
X194856961Y-116885952D01*
X194856961Y-116885952D02*
X194952200Y-116981190D01*
X194952200Y-116981190D02*
X194999819Y-117124047D01*
X194999819Y-117124047D02*
X194999819Y-117219285D01*
X194999819Y-115838333D02*
X194999819Y-116409761D01*
X194999819Y-116124047D02*
X193999819Y-116124047D01*
X193999819Y-116124047D02*
X194142676Y-116219285D01*
X194142676Y-116219285D02*
X194237914Y-116314523D01*
X194237914Y-116314523D02*
X194285533Y-116409761D01*
X142564819Y-116616666D02*
X142564819Y-117092856D01*
X142564819Y-117092856D02*
X141564819Y-117092856D01*
X142564819Y-115759523D02*
X142564819Y-116330951D01*
X142564819Y-116045237D02*
X141564819Y-116045237D01*
X141564819Y-116045237D02*
X141707676Y-116140475D01*
X141707676Y-116140475D02*
X141802914Y-116235713D01*
X141802914Y-116235713D02*
X141850533Y-116330951D01*
X184634819Y-121925594D02*
X183634819Y-121925594D01*
X183634819Y-121925594D02*
X183634819Y-121687499D01*
X183634819Y-121687499D02*
X183682438Y-121544642D01*
X183682438Y-121544642D02*
X183777676Y-121449404D01*
X183777676Y-121449404D02*
X183872914Y-121401785D01*
X183872914Y-121401785D02*
X184063390Y-121354166D01*
X184063390Y-121354166D02*
X184206247Y-121354166D01*
X184206247Y-121354166D02*
X184396723Y-121401785D01*
X184396723Y-121401785D02*
X184491961Y-121449404D01*
X184491961Y-121449404D02*
X184587200Y-121544642D01*
X184587200Y-121544642D02*
X184634819Y-121687499D01*
X184634819Y-121687499D02*
X184634819Y-121925594D01*
X184634819Y-120401785D02*
X184634819Y-120973213D01*
X184634819Y-120687499D02*
X183634819Y-120687499D01*
X183634819Y-120687499D02*
X183777676Y-120782737D01*
X183777676Y-120782737D02*
X183872914Y-120877975D01*
X183872914Y-120877975D02*
X183920533Y-120973213D01*
D11*
%TO.C,C3*%
X133740000Y-111990000D02*
X136490000Y-111990000D01*
X133740000Y-119445563D02*
X133740000Y-111990000D01*
X134804437Y-120510000D02*
X133740000Y-119445563D01*
X134804437Y-120510000D02*
X136490000Y-120510000D01*
X134990000Y-121250000D02*
X135990000Y-121250000D01*
X135490000Y-121750000D02*
X135490000Y-120750000D01*
X141195563Y-120510000D02*
X139510000Y-120510000D01*
X141195563Y-120510000D02*
X142260000Y-119445563D01*
X142260000Y-111990000D02*
X139510000Y-111990000D01*
X142260000Y-119445563D02*
X142260000Y-111990000D01*
%TO.C,C2*%
X171490000Y-126216233D02*
X171490000Y-126508767D01*
X172510000Y-126216233D02*
X172510000Y-126508767D01*
%TO.C,J2*%
X119100000Y-110660000D02*
X119100000Y-111160000D01*
X119340000Y-110900000D02*
X119340000Y-121180000D01*
X119840000Y-110660000D02*
X119100000Y-110660000D01*
X119900000Y-110900000D02*
X119900000Y-121180000D01*
X121400000Y-110900000D02*
X121400000Y-121180000D01*
X122761000Y-117546000D02*
X122726000Y-117511000D01*
X122977000Y-117353000D02*
X122931000Y-117306000D01*
X125069000Y-119855000D02*
X125023000Y-119808000D01*
X125275000Y-119650000D02*
X125239000Y-119615000D01*
X126301000Y-110900000D02*
X126301000Y-121180000D01*
X129261000Y-110900000D02*
X119340000Y-110900000D01*
X129261000Y-110900000D02*
X129261000Y-121180000D01*
X129261000Y-121180000D02*
X119340000Y-121180000D01*
X122319747Y-113528805D02*
G75*
G02*
X122465000Y-112816000I1680254J28806D01*
G01*
X122465244Y-114183318D02*
G75*
G02*
X122320000Y-113500000I1534756J683318D01*
G01*
X123316958Y-111964573D02*
G75*
G02*
X124684000Y-111965000I683041J-1535420D01*
G01*
X124683042Y-115035427D02*
G75*
G02*
X123316000Y-115035000I-683042J1535427D01*
G01*
X125535427Y-112816958D02*
G75*
G02*
X125535000Y-114184000I-1535420J-683041D01*
G01*
X125680000Y-118580000D02*
G75*
G02*
X122320000Y-118580000I-1680000J0D01*
G01*
X122320000Y-118580000D02*
G75*
G02*
X125680000Y-118580000I1680000J0D01*
G01*
%TO.C,U1*%
X160525000Y-117250000D02*
X160525000Y-118750000D01*
X160525000Y-118750000D02*
X161475000Y-118750000D01*
X170925000Y-117250000D02*
X170925000Y-118750000D01*
X170925000Y-118750000D02*
X169975000Y-118750000D01*
X161475000Y-121312500D02*
X161145000Y-121552500D01*
X161145000Y-121072500D01*
X161475000Y-121312500D01*
G36*
X161475000Y-121312500D02*
G01*
X161145000Y-121552500D01*
X161145000Y-121072500D01*
X161475000Y-121312500D01*
G37*
%TO.C,C1*%
X171500000Y-118490000D02*
X172500000Y-118490000D01*
X172000000Y-117990000D02*
X172000000Y-118990000D01*
X172740000Y-117804437D02*
X172740000Y-119490000D01*
X172740000Y-117804437D02*
X173804437Y-116740000D01*
X172740000Y-124195563D02*
X172740000Y-122510000D01*
X172740000Y-124195563D02*
X173804437Y-125260000D01*
X173804437Y-116740000D02*
X181260000Y-116740000D01*
X173804437Y-125260000D02*
X181260000Y-125260000D01*
X181260000Y-116740000D02*
X181260000Y-119490000D01*
X181260000Y-125260000D02*
X181260000Y-122510000D01*
%TO.C,D2*%
X163990000Y-127350000D02*
X163990000Y-130650000D01*
X163990000Y-127350000D02*
X169500000Y-127350000D01*
X163990000Y-130650000D02*
X169500000Y-130650000D01*
%TO.C,R1*%
X137477500Y-123937742D02*
X137477500Y-124412258D01*
X138522500Y-123937742D02*
X138522500Y-124412258D01*
D12*
%TO.C,D3*%
X138050000Y-128090000D02*
G75*
G02*
X137950000Y-128090000I-50000J0D01*
G01*
X137950000Y-128090000D02*
G75*
G02*
X138050000Y-128090000I50000J0D01*
G01*
D11*
%TO.C,J1*%
X195544000Y-111365000D02*
X205465000Y-111365000D01*
X195544000Y-121645000D02*
X195544000Y-111365000D01*
X195544000Y-121645000D02*
X205465000Y-121645000D01*
X198504000Y-121645000D02*
X198504000Y-111365000D01*
X199530000Y-112895000D02*
X199566000Y-112930000D01*
X199736000Y-112690000D02*
X199782000Y-112737000D01*
X201828000Y-115192000D02*
X201874000Y-115239000D01*
X202044000Y-114999000D02*
X202079000Y-115034000D01*
X203405000Y-121645000D02*
X203405000Y-111365000D01*
X204905000Y-121645000D02*
X204905000Y-111365000D01*
X204965000Y-121885000D02*
X205705000Y-121885000D01*
X205465000Y-121645000D02*
X205465000Y-111365000D01*
X205705000Y-121885000D02*
X205705000Y-121385000D01*
X199269573Y-119728042D02*
G75*
G02*
X199270000Y-118361000I1535420J683041D01*
G01*
X200121958Y-117509573D02*
G75*
G02*
X201489000Y-117510000I683042J-1535427D01*
G01*
X201488042Y-120580427D02*
G75*
G02*
X200121000Y-120580000I-683041J1535420D01*
G01*
X202339756Y-118361682D02*
G75*
G02*
X202485000Y-119045000I-1534756J-683318D01*
G01*
X202485253Y-119016195D02*
G75*
G02*
X202340000Y-119729000I-1680254J-28806D01*
G01*
X202485000Y-113965000D02*
G75*
G02*
X199125000Y-113965000I-1680000J0D01*
G01*
X199125000Y-113965000D02*
G75*
G02*
X202485000Y-113965000I1680000J0D01*
G01*
%TO.C,L1*%
X144700000Y-110150000D02*
X147700000Y-110150000D01*
X144700000Y-122750000D02*
X144700000Y-110150000D01*
X147700000Y-122750000D02*
X144700000Y-122750000D01*
X154300000Y-110150000D02*
X157300000Y-110150000D01*
X157300000Y-110150000D02*
X157300000Y-122750000D01*
X157300000Y-122750000D02*
X154300000Y-122750000D01*
%TO.C,D1*%
X184865000Y-118587500D02*
X184865000Y-124472500D01*
X184865000Y-124472500D02*
X189135000Y-124472500D01*
X189135000Y-124472500D02*
X189135000Y-118587500D01*
%TD*%
M02*
