M48
; DRILL file {KiCad 8.0.4} date 2024-08-11T09:47:04+0530
; FORMAT={-:-/ absolute / inch / decimal}
; #@! TF.CreationDate,2024-08-11T09:47:04+05:30
; #@! TF.GenerationSoftware,Kicad,Pcbnew,8.0.4
; #@! TF.FileFunction,Plated,1,2,PTH
FMAT,2
INCH
; #@! TA.AperFunction,Plated,PTH,ViaDrill
T1C0.0118
; #@! TA.AperFunction,Plated,PTH,ComponentDrill
T2C0.0236
; #@! TA.AperFunction,Plated,PTH,ComponentDrill
T3C0.0394
%
G90
G05
T1
X4.949Y-3.8952
X4.999Y-3.52
X5.015Y-3.679
X5.023Y-4.158
X5.078Y-3.707
X5.085Y-3.422
X5.149Y-4.393
X5.167Y-3.959
X5.202Y-4.05
X5.28Y-3.892
X5.311Y-3.963
X5.313Y-3.371
X5.314Y-2.888
X5.362Y-2.82
X5.365Y-3.09
X5.365Y-3.442
X5.375Y-3.908
X5.434Y-3.906
X5.459Y-3.66
X5.474Y-3.227
X5.478Y-3.263
X5.521Y-3.741
X5.543Y-4.351
X5.544Y-3.789
X5.581Y-3.309
X5.581Y-3.58
X5.616Y-3.914
X5.62Y-3.758
X5.668Y-3.112
X5.674Y-2.851
X5.731Y-4.351
X5.737Y-3.081
X5.737Y-3.877
X5.737Y-3.953
X5.776Y-3.625
X5.814Y-3.953
X5.815Y-3.877
X5.861Y-4.29
X5.999Y-3.444
X5.999Y-3.507
X6.002Y-3.572
X6.14Y-2.71
X6.206Y-3.025
X6.208Y-3.242
X6.208Y-3.388
X6.254Y-3.395
X6.266Y-3.239
T3
X5.4874Y-2.936
X5.7866Y-2.936
T2
G00X5.4669Y-4.4131
M15
G01X5.4669Y-4.4564
M16
G05
G00X5.4669Y-4.5836
M15
G01X5.4669Y-4.6151
M16
G05
G00X5.8071Y-4.4131
M15
G01X5.8071Y-4.4564
M16
G05
G00X5.8071Y-4.5836
M15
G01X5.8071Y-4.6151
M16
G05
M30
