%TF.GenerationSoftware,KiCad,Pcbnew,8.0.4*%
%TF.CreationDate,2024-08-11T09:47:25+05:30*%
%TF.ProjectId,Wrkshp_PCB_test,57726b73-6870-45f5-9043-425f74657374,rev?*%
%TF.SameCoordinates,Original*%
%TF.FileFunction,Soldermask,Top*%
%TF.FilePolarity,Negative*%
%FSLAX46Y46*%
G04 Gerber Fmt 4.6, Leading zero omitted, Abs format (unit mm)*
G04 Created by KiCad (PCBNEW 8.0.4) date 2024-08-11 09:47:25*
%MOMM*%
%LPD*%
G01*
G04 APERTURE LIST*
G04 Aperture macros list*
%AMRoundRect*
0 Rectangle with rounded corners*
0 $1 Rounding radius*
0 $2 $3 $4 $5 $6 $7 $8 $9 X,Y pos of 4 corners*
0 Add a 4 corners polygon primitive as box body*
4,1,4,$2,$3,$4,$5,$6,$7,$8,$9,$2,$3,0*
0 Add four circle primitives for the rounded corners*
1,1,$1+$1,$2,$3*
1,1,$1+$1,$4,$5*
1,1,$1+$1,$6,$7*
1,1,$1+$1,$8,$9*
0 Add four rect primitives between the rounded corners*
20,1,$1+$1,$2,$3,$4,$5,0*
20,1,$1+$1,$4,$5,$6,$7,0*
20,1,$1+$1,$6,$7,$8,$9,0*
20,1,$1+$1,$8,$9,$2,$3,0*%
G04 Aperture macros list end*
%ADD10C,0.010000*%
%ADD11RoundRect,0.200000X0.275000X-0.200000X0.275000X0.200000X-0.275000X0.200000X-0.275000X-0.200000X0*%
%ADD12RoundRect,0.550000X-0.777817X0.000000X0.000000X-0.777817X0.777817X0.000000X0.000000X0.777817X0*%
%ADD13RoundRect,0.375000X0.625000X0.375000X-0.625000X0.375000X-0.625000X-0.375000X0.625000X-0.375000X0*%
%ADD14RoundRect,0.500000X0.500000X1.400000X-0.500000X1.400000X-0.500000X-1.400000X0.500000X-1.400000X0*%
%ADD15RoundRect,0.200000X0.200000X0.275000X-0.200000X0.275000X-0.200000X-0.275000X0.200000X-0.275000X0*%
%ADD16RoundRect,0.200000X-0.200000X-0.275000X0.200000X-0.275000X0.200000X0.275000X-0.200000X0.275000X0*%
%ADD17RoundRect,0.102000X-0.200000X0.400000X-0.200000X-0.400000X0.200000X-0.400000X0.200000X0.400000X0*%
%ADD18RoundRect,0.102000X-0.400000X0.200000X-0.400000X-0.200000X0.400000X-0.200000X0.400000X0.200000X0*%
%ADD19RoundRect,0.102000X-0.725000X0.725000X-0.725000X-0.725000X0.725000X-0.725000X0.725000X0.725000X0*%
%ADD20RoundRect,0.102000X-0.350000X0.350000X-0.350000X-0.350000X0.350000X-0.350000X0.350000X0.350000X0*%
%ADD21RoundRect,0.225000X0.250000X-0.225000X0.250000X0.225000X-0.250000X0.225000X-0.250000X-0.225000X0*%
%ADD22RoundRect,0.200000X-0.275000X0.200000X-0.275000X-0.200000X0.275000X-0.200000X0.275000X0.200000X0*%
%ADD23R,1.000000X1.700000*%
%ADD24RoundRect,0.150000X-0.512500X-0.150000X0.512500X-0.150000X0.512500X0.150000X-0.512500X0.150000X0*%
%ADD25R,1.500000X0.650000*%
%ADD26R,1.350000X1.800000*%
%ADD27RoundRect,0.225000X-0.225000X-0.250000X0.225000X-0.250000X0.225000X0.250000X-0.225000X0.250000X0*%
%ADD28RoundRect,0.100000X0.637500X0.100000X-0.637500X0.100000X-0.637500X-0.100000X0.637500X-0.100000X0*%
%ADD29RoundRect,0.225000X-0.250000X0.225000X-0.250000X-0.225000X0.250000X-0.225000X0.250000X0.225000X0*%
%ADD30RoundRect,0.225000X0.225000X0.250000X-0.225000X0.250000X-0.225000X-0.250000X0.225000X-0.250000X0*%
%ADD31C,0.650000*%
%ADD32RoundRect,0.150000X-0.150000X-0.425000X0.150000X-0.425000X0.150000X0.425000X-0.150000X0.425000X0*%
%ADD33RoundRect,0.075000X-0.075000X-0.500000X0.075000X-0.500000X0.075000X0.500000X-0.075000X0.500000X0*%
%ADD34O,1.000000X2.100000*%
%ADD35O,1.000000X1.800000*%
%ADD36RoundRect,0.150000X0.587500X0.150000X-0.587500X0.150000X-0.587500X-0.150000X0.587500X-0.150000X0*%
%ADD37R,2.000000X2.000000*%
%ADD38C,2.000000*%
G04 APERTURE END LIST*
D10*
%TO.C,U1*%
X149510000Y-97293800D02*
X149510000Y-98283800D01*
X147860000Y-98283800D01*
X147860000Y-96633800D01*
X148850000Y-96633800D01*
X149510000Y-97293800D01*
G36*
X149510000Y-97293800D02*
G01*
X149510000Y-98283800D01*
X147860000Y-98283800D01*
X147860000Y-96633800D01*
X148850000Y-96633800D01*
X149510000Y-97293800D01*
G37*
%TD*%
D11*
%TO.C,R10*%
X156108400Y-71792600D03*
X156108400Y-70142600D03*
%TD*%
D12*
%TO.C,BT1*%
X136309036Y-68821364D03*
X133794564Y-71335836D03*
%TD*%
D11*
%TO.C,R5*%
X125389000Y-98038900D03*
X125389000Y-96388900D03*
%TD*%
D13*
%TO.C,U2*%
X137719200Y-83046600D03*
X137719200Y-80746600D03*
D14*
X131419200Y-80746600D03*
D13*
X137719200Y-78446600D03*
%TD*%
D15*
%TO.C,R1*%
X140956800Y-108991400D03*
X139306800Y-108991400D03*
%TD*%
D16*
%TO.C,R2*%
X146037800Y-108991400D03*
X147687800Y-108991400D03*
%TD*%
D17*
%TO.C,U1*%
X150710000Y-93533800D03*
X149910000Y-93533800D03*
X149110000Y-93533800D03*
X148310000Y-93533800D03*
X147510000Y-93533800D03*
X146710000Y-93533800D03*
X145910000Y-93533800D03*
X145110000Y-93533800D03*
X144310000Y-93533800D03*
X143510000Y-93533800D03*
X142710000Y-93533800D03*
D18*
X141810000Y-94633800D03*
X141810000Y-95433800D03*
X141810000Y-96233800D03*
X141810000Y-97033800D03*
X141810000Y-97833800D03*
X141810000Y-98633800D03*
X141810000Y-99433800D03*
X141810000Y-100233800D03*
X141810000Y-101033800D03*
X141810000Y-101833800D03*
X141810000Y-102633800D03*
X141810000Y-103433800D03*
X141810000Y-104233800D03*
D17*
X142710000Y-105333800D03*
X143510000Y-105333800D03*
X144310000Y-105333800D03*
X145110000Y-105333800D03*
X145910000Y-105333800D03*
X146710000Y-105333800D03*
X147510000Y-105333800D03*
X148310000Y-105333800D03*
X149110000Y-105333800D03*
X149910000Y-105333800D03*
X150710000Y-105333800D03*
D18*
X151610000Y-104233800D03*
X151610000Y-103433800D03*
X151610000Y-102633800D03*
X151610000Y-101833800D03*
X151610000Y-101033800D03*
X151610000Y-100233800D03*
X151610000Y-99433800D03*
X151610000Y-98633800D03*
X151610000Y-97833800D03*
X151610000Y-97033800D03*
X151610000Y-96233800D03*
X151610000Y-95433800D03*
X151610000Y-94633800D03*
D19*
X146710000Y-97458800D03*
X144735000Y-97458800D03*
X148685000Y-99433800D03*
X146710000Y-99433800D03*
X144735000Y-99433800D03*
X148685000Y-101408800D03*
X146710000Y-101408800D03*
X144735000Y-101408800D03*
D20*
X151660000Y-105383800D03*
X141760000Y-105383800D03*
X141760000Y-93483800D03*
X151660000Y-93483800D03*
%TD*%
D21*
%TO.C,C5*%
X128955800Y-107251800D03*
X128955800Y-105701800D03*
%TD*%
D22*
%TO.C,R4*%
X136550400Y-89916800D03*
X136550400Y-91566800D03*
%TD*%
D23*
%TO.C,SW3*%
X130891200Y-109626800D03*
X130891200Y-103326800D03*
X134691200Y-109626800D03*
X134691200Y-103326800D03*
%TD*%
D24*
%TO.C,U3*%
X130378200Y-90200400D03*
X130378200Y-91150400D03*
X130378200Y-92100400D03*
X132653200Y-92100400D03*
X132653200Y-91150400D03*
X132653200Y-90200400D03*
%TD*%
D25*
%TO.C,U4*%
X127337200Y-95061200D03*
X127337200Y-96331200D03*
X127337200Y-97601200D03*
X127337200Y-98871200D03*
X132737200Y-98871200D03*
X132737200Y-97601200D03*
X132737200Y-96331200D03*
X132737200Y-95061200D03*
D26*
X129362200Y-96066200D03*
X129362200Y-97866200D03*
X130712200Y-96066200D03*
X130712200Y-97866200D03*
%TD*%
D15*
%TO.C,R14*%
X138493000Y-104114600D03*
X136843000Y-104114600D03*
%TD*%
D23*
%TO.C,SW2*%
X140619400Y-90805400D03*
X140619400Y-84505400D03*
X144419400Y-90805400D03*
X144419400Y-84505400D03*
%TD*%
D27*
%TO.C,C7*%
X149643800Y-89103200D03*
X151193800Y-89103200D03*
%TD*%
D22*
%TO.C,R8*%
X156641800Y-83426800D03*
X156641800Y-85076800D03*
%TD*%
D28*
%TO.C,Q2*%
X133367700Y-88198600D03*
X133367700Y-87548600D03*
X133367700Y-86898600D03*
X133367700Y-86248600D03*
X127642700Y-86248600D03*
X127642700Y-86898600D03*
X127642700Y-87548600D03*
X127642700Y-88198600D03*
%TD*%
D29*
%TO.C,C2*%
X140004800Y-80784400D03*
X140004800Y-82334400D03*
%TD*%
D16*
%TO.C,R3*%
X144082000Y-77139800D03*
X145732000Y-77139800D03*
%TD*%
D15*
%TO.C,R7*%
X128536200Y-90449400D03*
X126886200Y-90449400D03*
%TD*%
D21*
%TO.C,C3*%
X134950200Y-91503800D03*
X134950200Y-89953800D03*
%TD*%
D11*
%TO.C,R13*%
X146398600Y-88490800D03*
X146398600Y-86840800D03*
%TD*%
D30*
%TO.C,C9*%
X134010400Y-100660200D03*
X132460400Y-100660200D03*
%TD*%
D15*
%TO.C,R15*%
X137299200Y-100457000D03*
X135649200Y-100457000D03*
%TD*%
D16*
%TO.C,R11*%
X138494000Y-102438200D03*
X140144000Y-102438200D03*
%TD*%
D27*
%TO.C,C8*%
X149643800Y-90728800D03*
X151193800Y-90728800D03*
%TD*%
%TO.C,C6*%
X149643800Y-87452200D03*
X151193800Y-87452200D03*
%TD*%
D31*
%TO.C,J1*%
X140289800Y-113142800D03*
X146069800Y-113142800D03*
D32*
X139979800Y-112067800D03*
X140779800Y-112067800D03*
D33*
X141929800Y-112067800D03*
X142929800Y-112067800D03*
X143429800Y-112067800D03*
X144429800Y-112067800D03*
D32*
X145579800Y-112067800D03*
X146379800Y-112067800D03*
X146379800Y-112067800D03*
X145579800Y-112067800D03*
D33*
X144929800Y-112067800D03*
X143929800Y-112067800D03*
X142429800Y-112067800D03*
X141429800Y-112067800D03*
D32*
X140779800Y-112067800D03*
X139979800Y-112067800D03*
D34*
X138859800Y-112642800D03*
D35*
X138859800Y-116822800D03*
D34*
X147499800Y-112642800D03*
D35*
X147499800Y-116822800D03*
%TD*%
D22*
%TO.C,R12*%
X148082000Y-89802200D03*
X148082000Y-91452200D03*
%TD*%
%TO.C,R9*%
X158648400Y-83528400D03*
X158648400Y-85178400D03*
%TD*%
D36*
%TO.C,Q1*%
X144117300Y-75525000D03*
X144117300Y-73625000D03*
X142242300Y-74575000D03*
%TD*%
D30*
%TO.C,C1*%
X136309400Y-76250800D03*
X134759400Y-76250800D03*
%TD*%
D21*
%TO.C,C4*%
X138626200Y-88440800D03*
X138626200Y-86890800D03*
%TD*%
D37*
%TO.C,BZ1*%
X146979800Y-74575000D03*
D38*
X139379800Y-74575000D03*
%TD*%
M02*
