%TF.GenerationSoftware,KiCad,Pcbnew,8.0.4*%
%TF.CreationDate,2024-08-11T09:47:25+05:30*%
%TF.ProjectId,Wrkshp_PCB_test,57726b73-6870-45f5-9043-425f74657374,rev?*%
%TF.SameCoordinates,Original*%
%TF.FileFunction,Legend,Bot*%
%TF.FilePolarity,Positive*%
%FSLAX46Y46*%
G04 Gerber Fmt 4.6, Leading zero omitted, Abs format (unit mm)*
G04 Created by KiCad (PCBNEW 8.0.4) date 2024-08-11 09:47:25*
%MOMM*%
%LPD*%
G01*
G04 APERTURE LIST*
%ADD10C,0.150000*%
%ADD11C,0.120000*%
G04 APERTURE END LIST*
D10*
X141236532Y-92660000D02*
X141093675Y-92707619D01*
X141093675Y-92707619D02*
X140855580Y-92707619D01*
X140855580Y-92707619D02*
X140760342Y-92660000D01*
X140760342Y-92660000D02*
X140712723Y-92612380D01*
X140712723Y-92612380D02*
X140665104Y-92517142D01*
X140665104Y-92517142D02*
X140665104Y-92421904D01*
X140665104Y-92421904D02*
X140712723Y-92326666D01*
X140712723Y-92326666D02*
X140760342Y-92279047D01*
X140760342Y-92279047D02*
X140855580Y-92231428D01*
X140855580Y-92231428D02*
X141046056Y-92183809D01*
X141046056Y-92183809D02*
X141141294Y-92136190D01*
X141141294Y-92136190D02*
X141188913Y-92088571D01*
X141188913Y-92088571D02*
X141236532Y-91993333D01*
X141236532Y-91993333D02*
X141236532Y-91898095D01*
X141236532Y-91898095D02*
X141188913Y-91802857D01*
X141188913Y-91802857D02*
X141141294Y-91755238D01*
X141141294Y-91755238D02*
X141046056Y-91707619D01*
X141046056Y-91707619D02*
X140807961Y-91707619D01*
X140807961Y-91707619D02*
X140665104Y-91755238D01*
X140331770Y-91707619D02*
X140093675Y-92707619D01*
X140093675Y-92707619D02*
X139903199Y-91993333D01*
X139903199Y-91993333D02*
X139712723Y-92707619D01*
X139712723Y-92707619D02*
X139474628Y-91707619D01*
X138569866Y-92707619D02*
X139141294Y-92707619D01*
X138855580Y-92707619D02*
X138855580Y-91707619D01*
X138855580Y-91707619D02*
X138950818Y-91850476D01*
X138950818Y-91850476D02*
X139046056Y-91945714D01*
X139046056Y-91945714D02*
X139141294Y-91993333D01*
X144060752Y-67306009D02*
X143917895Y-67353628D01*
X143917895Y-67353628D02*
X143870276Y-67401247D01*
X143870276Y-67401247D02*
X143822657Y-67496485D01*
X143822657Y-67496485D02*
X143822657Y-67639342D01*
X143822657Y-67639342D02*
X143870276Y-67734580D01*
X143870276Y-67734580D02*
X143917895Y-67782200D01*
X143917895Y-67782200D02*
X144013133Y-67829819D01*
X144013133Y-67829819D02*
X144394085Y-67829819D01*
X144394085Y-67829819D02*
X144394085Y-66829819D01*
X144394085Y-66829819D02*
X144060752Y-66829819D01*
X144060752Y-66829819D02*
X143965514Y-66877438D01*
X143965514Y-66877438D02*
X143917895Y-66925057D01*
X143917895Y-66925057D02*
X143870276Y-67020295D01*
X143870276Y-67020295D02*
X143870276Y-67115533D01*
X143870276Y-67115533D02*
X143917895Y-67210771D01*
X143917895Y-67210771D02*
X143965514Y-67258390D01*
X143965514Y-67258390D02*
X144060752Y-67306009D01*
X144060752Y-67306009D02*
X144394085Y-67306009D01*
X143489323Y-66829819D02*
X142822657Y-66829819D01*
X142822657Y-66829819D02*
X143489323Y-67829819D01*
X143489323Y-67829819D02*
X142822657Y-67829819D01*
X141917895Y-67829819D02*
X142489323Y-67829819D01*
X142203609Y-67829819D02*
X142203609Y-66829819D01*
X142203609Y-66829819D02*
X142298847Y-66972676D01*
X142298847Y-66972676D02*
X142394085Y-67067914D01*
X142394085Y-67067914D02*
X142489323Y-67115533D01*
X147370751Y-72108866D02*
X146608847Y-72108866D01*
X146989799Y-72489819D02*
X146989799Y-71727914D01*
X152960294Y-76400819D02*
X152960294Y-75400819D01*
X152960294Y-75400819D02*
X152722199Y-75400819D01*
X152722199Y-75400819D02*
X152579342Y-75448438D01*
X152579342Y-75448438D02*
X152484104Y-75543676D01*
X152484104Y-75543676D02*
X152436485Y-75638914D01*
X152436485Y-75638914D02*
X152388866Y-75829390D01*
X152388866Y-75829390D02*
X152388866Y-75972247D01*
X152388866Y-75972247D02*
X152436485Y-76162723D01*
X152436485Y-76162723D02*
X152484104Y-76257961D01*
X152484104Y-76257961D02*
X152579342Y-76353200D01*
X152579342Y-76353200D02*
X152722199Y-76400819D01*
X152722199Y-76400819D02*
X152960294Y-76400819D01*
X151436485Y-76400819D02*
X152007913Y-76400819D01*
X151722199Y-76400819D02*
X151722199Y-75400819D01*
X151722199Y-75400819D02*
X151817437Y-75543676D01*
X151817437Y-75543676D02*
X151912675Y-75638914D01*
X151912675Y-75638914D02*
X152007913Y-75686533D01*
D11*
%TO.C,SW1*%
X136979800Y-94975000D02*
X136979800Y-96125000D01*
X136979800Y-94975000D02*
X138579800Y-93425000D01*
X136979800Y-101125000D02*
X136979800Y-98025000D01*
X136979800Y-104175000D02*
X136979800Y-103025000D01*
X136979800Y-104175000D02*
X138579800Y-105725000D01*
X138579800Y-93425000D02*
X147779800Y-93425000D01*
X138579800Y-105725000D02*
X147779800Y-105725000D01*
X147779800Y-93425000D02*
X149379800Y-94975000D01*
X147779800Y-105725000D02*
X149379800Y-104175000D01*
X149379800Y-94975000D02*
X149379800Y-96125000D01*
X149379800Y-101125000D02*
X149379800Y-98025000D01*
X149379800Y-104175000D02*
X149379800Y-103025000D01*
%TO.C,BZ1*%
X149279800Y-74575000D02*
G75*
G02*
X137079800Y-74575000I-6100000J0D01*
G01*
X137079800Y-74575000D02*
G75*
G02*
X149279800Y-74575000I6100000J0D01*
G01*
%TO.C,D1*%
X152679800Y-76875000D02*
X158779800Y-76875000D01*
X157679800Y-82275000D02*
X152679800Y-82275000D01*
X158779800Y-76875000D02*
X158779800Y-77975000D01*
%TD*%
M02*
