%TF.GenerationSoftware,KiCad,Pcbnew,8.0.4*%
%TF.CreationDate,2024-08-11T09:47:10+05:30*%
%TF.ProjectId,Wrkshp_PCB_test,57726b73-6870-45f5-9043-425f74657374,rev?*%
%TF.SameCoordinates,Original*%
%TF.FileFunction,Drillmap*%
%TF.FilePolarity,Positive*%
%FSLAX45Y45*%
G04 Gerber Fmt 4.5, Leading zero omitted, Abs format (unit mm)*
G04 Created by KiCad (PCBNEW 8.0.4) date 2024-08-11 09:47:10*
%MOMM*%
%LPD*%
G01*
G04 APERTURE LIST*
%ADD10C,0.100000*%
%ADD11C,0.200000*%
G04 APERTURE END LIST*
D10*
X15696025Y-6884256D02*
G75*
G02*
X16254040Y-9733505I-19001131J-5200569D01*
G01*
X16254040Y-9733505D02*
G75*
G02*
X12381920Y-9733505I-1936060J-232745D01*
G01*
X13267980Y-7466250D02*
G75*
G02*
X12967980Y-7466250I-150000J0D01*
G01*
X12967980Y-7466250D02*
G75*
G02*
X13267980Y-7466250I150000J0D01*
G01*
X15213762Y-6516250D02*
G75*
G02*
X15696023Y-6884256I-2J-500000D01*
G01*
X15213762Y-6516250D02*
X13422198Y-6516250D01*
X15667980Y-7457500D02*
G75*
G02*
X15367980Y-7457500I-150000J0D01*
G01*
X15367980Y-7457500D02*
G75*
G02*
X15667980Y-7457500I150000J0D01*
G01*
X12939935Y-6884256D02*
G75*
G02*
X13422198Y-6516248I482265J-131994D01*
G01*
X12381920Y-9733505D02*
G75*
G02*
X12939934Y-6884255I19559150J-2351315D01*
G01*
D11*
D10*
X13996480Y-11281780D02*
X14061480Y-11346780D01*
X14061480Y-11281780D02*
X13996480Y-11346780D01*
X14574480Y-11281780D02*
X14639480Y-11346780D01*
X14639480Y-11281780D02*
X14574480Y-11346780D01*
D11*
X12623757Y-12232734D02*
X12623757Y-12032734D01*
X12623757Y-12032734D02*
X12671376Y-12032734D01*
X12671376Y-12032734D02*
X12699947Y-12042258D01*
X12699947Y-12042258D02*
X12718995Y-12061305D01*
X12718995Y-12061305D02*
X12728519Y-12080353D01*
X12728519Y-12080353D02*
X12738042Y-12118448D01*
X12738042Y-12118448D02*
X12738042Y-12147019D01*
X12738042Y-12147019D02*
X12728519Y-12185115D01*
X12728519Y-12185115D02*
X12718995Y-12204162D01*
X12718995Y-12204162D02*
X12699947Y-12223210D01*
X12699947Y-12223210D02*
X12671376Y-12232734D01*
X12671376Y-12232734D02*
X12623757Y-12232734D01*
X12823757Y-12232734D02*
X12823757Y-12099400D01*
X12823757Y-12137496D02*
X12833281Y-12118448D01*
X12833281Y-12118448D02*
X12842804Y-12108924D01*
X12842804Y-12108924D02*
X12861852Y-12099400D01*
X12861852Y-12099400D02*
X12880900Y-12099400D01*
X12947566Y-12232734D02*
X12947566Y-12099400D01*
X12947566Y-12032734D02*
X12938042Y-12042258D01*
X12938042Y-12042258D02*
X12947566Y-12051781D01*
X12947566Y-12051781D02*
X12957090Y-12042258D01*
X12957090Y-12042258D02*
X12947566Y-12032734D01*
X12947566Y-12032734D02*
X12947566Y-12051781D01*
X13071376Y-12232734D02*
X13052328Y-12223210D01*
X13052328Y-12223210D02*
X13042804Y-12204162D01*
X13042804Y-12204162D02*
X13042804Y-12032734D01*
X13176138Y-12232734D02*
X13157090Y-12223210D01*
X13157090Y-12223210D02*
X13147566Y-12204162D01*
X13147566Y-12204162D02*
X13147566Y-12032734D01*
X13404709Y-12232734D02*
X13404709Y-12032734D01*
X13404709Y-12032734D02*
X13471376Y-12175591D01*
X13471376Y-12175591D02*
X13538042Y-12032734D01*
X13538042Y-12032734D02*
X13538042Y-12232734D01*
X13718995Y-12232734D02*
X13718995Y-12127972D01*
X13718995Y-12127972D02*
X13709471Y-12108924D01*
X13709471Y-12108924D02*
X13690423Y-12099400D01*
X13690423Y-12099400D02*
X13652328Y-12099400D01*
X13652328Y-12099400D02*
X13633281Y-12108924D01*
X13718995Y-12223210D02*
X13699947Y-12232734D01*
X13699947Y-12232734D02*
X13652328Y-12232734D01*
X13652328Y-12232734D02*
X13633281Y-12223210D01*
X13633281Y-12223210D02*
X13623757Y-12204162D01*
X13623757Y-12204162D02*
X13623757Y-12185115D01*
X13623757Y-12185115D02*
X13633281Y-12166067D01*
X13633281Y-12166067D02*
X13652328Y-12156543D01*
X13652328Y-12156543D02*
X13699947Y-12156543D01*
X13699947Y-12156543D02*
X13718995Y-12147019D01*
X13814233Y-12099400D02*
X13814233Y-12299400D01*
X13814233Y-12108924D02*
X13833281Y-12099400D01*
X13833281Y-12099400D02*
X13871376Y-12099400D01*
X13871376Y-12099400D02*
X13890423Y-12108924D01*
X13890423Y-12108924D02*
X13899947Y-12118448D01*
X13899947Y-12118448D02*
X13909471Y-12137496D01*
X13909471Y-12137496D02*
X13909471Y-12194638D01*
X13909471Y-12194638D02*
X13899947Y-12213686D01*
X13899947Y-12213686D02*
X13890423Y-12223210D01*
X13890423Y-12223210D02*
X13871376Y-12232734D01*
X13871376Y-12232734D02*
X13833281Y-12232734D01*
X13833281Y-12232734D02*
X13814233Y-12223210D01*
X13995185Y-12213686D02*
X14004709Y-12223210D01*
X14004709Y-12223210D02*
X13995185Y-12232734D01*
X13995185Y-12232734D02*
X13985662Y-12223210D01*
X13985662Y-12223210D02*
X13995185Y-12213686D01*
X13995185Y-12213686D02*
X13995185Y-12232734D01*
X13995185Y-12108924D02*
X14004709Y-12118448D01*
X14004709Y-12118448D02*
X13995185Y-12127972D01*
X13995185Y-12127972D02*
X13985662Y-12118448D01*
X13985662Y-12118448D02*
X13995185Y-12108924D01*
X13995185Y-12108924D02*
X13995185Y-12127972D01*
D10*
X12297980Y-12528750D02*
X12362980Y-12593750D01*
X12362980Y-12528750D02*
X12297980Y-12593750D01*
D11*
X12661852Y-12452734D02*
X12680900Y-12452734D01*
X12680900Y-12452734D02*
X12699947Y-12462258D01*
X12699947Y-12462258D02*
X12709471Y-12471781D01*
X12709471Y-12471781D02*
X12718995Y-12490829D01*
X12718995Y-12490829D02*
X12728519Y-12528924D01*
X12728519Y-12528924D02*
X12728519Y-12576543D01*
X12728519Y-12576543D02*
X12718995Y-12614638D01*
X12718995Y-12614638D02*
X12709471Y-12633686D01*
X12709471Y-12633686D02*
X12699947Y-12643210D01*
X12699947Y-12643210D02*
X12680900Y-12652734D01*
X12680900Y-12652734D02*
X12661852Y-12652734D01*
X12661852Y-12652734D02*
X12642804Y-12643210D01*
X12642804Y-12643210D02*
X12633281Y-12633686D01*
X12633281Y-12633686D02*
X12623757Y-12614638D01*
X12623757Y-12614638D02*
X12614233Y-12576543D01*
X12614233Y-12576543D02*
X12614233Y-12528924D01*
X12614233Y-12528924D02*
X12623757Y-12490829D01*
X12623757Y-12490829D02*
X12633281Y-12471781D01*
X12633281Y-12471781D02*
X12642804Y-12462258D01*
X12642804Y-12462258D02*
X12661852Y-12452734D01*
X12814233Y-12633686D02*
X12823757Y-12643210D01*
X12823757Y-12643210D02*
X12814233Y-12652734D01*
X12814233Y-12652734D02*
X12804709Y-12643210D01*
X12804709Y-12643210D02*
X12814233Y-12633686D01*
X12814233Y-12633686D02*
X12814233Y-12652734D01*
X12995185Y-12452734D02*
X12957090Y-12452734D01*
X12957090Y-12452734D02*
X12938042Y-12462258D01*
X12938042Y-12462258D02*
X12928519Y-12471781D01*
X12928519Y-12471781D02*
X12909471Y-12500353D01*
X12909471Y-12500353D02*
X12899947Y-12538448D01*
X12899947Y-12538448D02*
X12899947Y-12614638D01*
X12899947Y-12614638D02*
X12909471Y-12633686D01*
X12909471Y-12633686D02*
X12918995Y-12643210D01*
X12918995Y-12643210D02*
X12938042Y-12652734D01*
X12938042Y-12652734D02*
X12976138Y-12652734D01*
X12976138Y-12652734D02*
X12995185Y-12643210D01*
X12995185Y-12643210D02*
X13004709Y-12633686D01*
X13004709Y-12633686D02*
X13014233Y-12614638D01*
X13014233Y-12614638D02*
X13014233Y-12567019D01*
X13014233Y-12567019D02*
X13004709Y-12547972D01*
X13004709Y-12547972D02*
X12995185Y-12538448D01*
X12995185Y-12538448D02*
X12976138Y-12528924D01*
X12976138Y-12528924D02*
X12938042Y-12528924D01*
X12938042Y-12528924D02*
X12918995Y-12538448D01*
X12918995Y-12538448D02*
X12909471Y-12547972D01*
X12909471Y-12547972D02*
X12899947Y-12567019D01*
X13195185Y-12452734D02*
X13099947Y-12452734D01*
X13099947Y-12452734D02*
X13090423Y-12547972D01*
X13090423Y-12547972D02*
X13099947Y-12538448D01*
X13099947Y-12538448D02*
X13118995Y-12528924D01*
X13118995Y-12528924D02*
X13166614Y-12528924D01*
X13166614Y-12528924D02*
X13185662Y-12538448D01*
X13185662Y-12538448D02*
X13195185Y-12547972D01*
X13195185Y-12547972D02*
X13204709Y-12567019D01*
X13204709Y-12567019D02*
X13204709Y-12614638D01*
X13204709Y-12614638D02*
X13195185Y-12633686D01*
X13195185Y-12633686D02*
X13185662Y-12643210D01*
X13185662Y-12643210D02*
X13166614Y-12652734D01*
X13166614Y-12652734D02*
X13118995Y-12652734D01*
X13118995Y-12652734D02*
X13099947Y-12643210D01*
X13099947Y-12643210D02*
X13090423Y-12633686D01*
X13328519Y-12452734D02*
X13347566Y-12452734D01*
X13347566Y-12452734D02*
X13366614Y-12462258D01*
X13366614Y-12462258D02*
X13376138Y-12471781D01*
X13376138Y-12471781D02*
X13385662Y-12490829D01*
X13385662Y-12490829D02*
X13395185Y-12528924D01*
X13395185Y-12528924D02*
X13395185Y-12576543D01*
X13395185Y-12576543D02*
X13385662Y-12614638D01*
X13385662Y-12614638D02*
X13376138Y-12633686D01*
X13376138Y-12633686D02*
X13366614Y-12643210D01*
X13366614Y-12643210D02*
X13347566Y-12652734D01*
X13347566Y-12652734D02*
X13328519Y-12652734D01*
X13328519Y-12652734D02*
X13309471Y-12643210D01*
X13309471Y-12643210D02*
X13299947Y-12633686D01*
X13299947Y-12633686D02*
X13290423Y-12614638D01*
X13290423Y-12614638D02*
X13280900Y-12576543D01*
X13280900Y-12576543D02*
X13280900Y-12528924D01*
X13280900Y-12528924D02*
X13290423Y-12490829D01*
X13290423Y-12490829D02*
X13299947Y-12471781D01*
X13299947Y-12471781D02*
X13309471Y-12462258D01*
X13309471Y-12462258D02*
X13328519Y-12452734D01*
X13480900Y-12652734D02*
X13480900Y-12519400D01*
X13480900Y-12538448D02*
X13490423Y-12528924D01*
X13490423Y-12528924D02*
X13509471Y-12519400D01*
X13509471Y-12519400D02*
X13538043Y-12519400D01*
X13538043Y-12519400D02*
X13557090Y-12528924D01*
X13557090Y-12528924D02*
X13566614Y-12547972D01*
X13566614Y-12547972D02*
X13566614Y-12652734D01*
X13566614Y-12547972D02*
X13576138Y-12528924D01*
X13576138Y-12528924D02*
X13595185Y-12519400D01*
X13595185Y-12519400D02*
X13623757Y-12519400D01*
X13623757Y-12519400D02*
X13642804Y-12528924D01*
X13642804Y-12528924D02*
X13652328Y-12547972D01*
X13652328Y-12547972D02*
X13652328Y-12652734D01*
X13747566Y-12652734D02*
X13747566Y-12519400D01*
X13747566Y-12538448D02*
X13757090Y-12528924D01*
X13757090Y-12528924D02*
X13776138Y-12519400D01*
X13776138Y-12519400D02*
X13804709Y-12519400D01*
X13804709Y-12519400D02*
X13823757Y-12528924D01*
X13823757Y-12528924D02*
X13833281Y-12547972D01*
X13833281Y-12547972D02*
X13833281Y-12652734D01*
X13833281Y-12547972D02*
X13842804Y-12528924D01*
X13842804Y-12528924D02*
X13861852Y-12519400D01*
X13861852Y-12519400D02*
X13890423Y-12519400D01*
X13890423Y-12519400D02*
X13909471Y-12528924D01*
X13909471Y-12528924D02*
X13918995Y-12547972D01*
X13918995Y-12547972D02*
X13918995Y-12652734D01*
X14309471Y-12443210D02*
X14138043Y-12700353D01*
X14566614Y-12452734D02*
X14585662Y-12452734D01*
X14585662Y-12452734D02*
X14604709Y-12462258D01*
X14604709Y-12462258D02*
X14614233Y-12471781D01*
X14614233Y-12471781D02*
X14623757Y-12490829D01*
X14623757Y-12490829D02*
X14633281Y-12528924D01*
X14633281Y-12528924D02*
X14633281Y-12576543D01*
X14633281Y-12576543D02*
X14623757Y-12614638D01*
X14623757Y-12614638D02*
X14614233Y-12633686D01*
X14614233Y-12633686D02*
X14604709Y-12643210D01*
X14604709Y-12643210D02*
X14585662Y-12652734D01*
X14585662Y-12652734D02*
X14566614Y-12652734D01*
X14566614Y-12652734D02*
X14547566Y-12643210D01*
X14547566Y-12643210D02*
X14538043Y-12633686D01*
X14538043Y-12633686D02*
X14528519Y-12614638D01*
X14528519Y-12614638D02*
X14518995Y-12576543D01*
X14518995Y-12576543D02*
X14518995Y-12528924D01*
X14518995Y-12528924D02*
X14528519Y-12490829D01*
X14528519Y-12490829D02*
X14538043Y-12471781D01*
X14538043Y-12471781D02*
X14547566Y-12462258D01*
X14547566Y-12462258D02*
X14566614Y-12452734D01*
X14718995Y-12633686D02*
X14728519Y-12643210D01*
X14728519Y-12643210D02*
X14718995Y-12652734D01*
X14718995Y-12652734D02*
X14709471Y-12643210D01*
X14709471Y-12643210D02*
X14718995Y-12633686D01*
X14718995Y-12633686D02*
X14718995Y-12652734D01*
X14852328Y-12452734D02*
X14871376Y-12452734D01*
X14871376Y-12452734D02*
X14890424Y-12462258D01*
X14890424Y-12462258D02*
X14899947Y-12471781D01*
X14899947Y-12471781D02*
X14909471Y-12490829D01*
X14909471Y-12490829D02*
X14918995Y-12528924D01*
X14918995Y-12528924D02*
X14918995Y-12576543D01*
X14918995Y-12576543D02*
X14909471Y-12614638D01*
X14909471Y-12614638D02*
X14899947Y-12633686D01*
X14899947Y-12633686D02*
X14890424Y-12643210D01*
X14890424Y-12643210D02*
X14871376Y-12652734D01*
X14871376Y-12652734D02*
X14852328Y-12652734D01*
X14852328Y-12652734D02*
X14833281Y-12643210D01*
X14833281Y-12643210D02*
X14823757Y-12633686D01*
X14823757Y-12633686D02*
X14814233Y-12614638D01*
X14814233Y-12614638D02*
X14804709Y-12576543D01*
X14804709Y-12576543D02*
X14804709Y-12528924D01*
X14804709Y-12528924D02*
X14814233Y-12490829D01*
X14814233Y-12490829D02*
X14823757Y-12471781D01*
X14823757Y-12471781D02*
X14833281Y-12462258D01*
X14833281Y-12462258D02*
X14852328Y-12452734D01*
X14995186Y-12471781D02*
X15004709Y-12462258D01*
X15004709Y-12462258D02*
X15023757Y-12452734D01*
X15023757Y-12452734D02*
X15071376Y-12452734D01*
X15071376Y-12452734D02*
X15090424Y-12462258D01*
X15090424Y-12462258D02*
X15099947Y-12471781D01*
X15099947Y-12471781D02*
X15109471Y-12490829D01*
X15109471Y-12490829D02*
X15109471Y-12509877D01*
X15109471Y-12509877D02*
X15099947Y-12538448D01*
X15099947Y-12538448D02*
X14985662Y-12652734D01*
X14985662Y-12652734D02*
X15109471Y-12652734D01*
X15290424Y-12452734D02*
X15195186Y-12452734D01*
X15195186Y-12452734D02*
X15185662Y-12547972D01*
X15185662Y-12547972D02*
X15195186Y-12538448D01*
X15195186Y-12538448D02*
X15214233Y-12528924D01*
X15214233Y-12528924D02*
X15261852Y-12528924D01*
X15261852Y-12528924D02*
X15280900Y-12538448D01*
X15280900Y-12538448D02*
X15290424Y-12547972D01*
X15290424Y-12547972D02*
X15299947Y-12567019D01*
X15299947Y-12567019D02*
X15299947Y-12614638D01*
X15299947Y-12614638D02*
X15290424Y-12633686D01*
X15290424Y-12633686D02*
X15280900Y-12643210D01*
X15280900Y-12643210D02*
X15261852Y-12652734D01*
X15261852Y-12652734D02*
X15214233Y-12652734D01*
X15214233Y-12652734D02*
X15195186Y-12643210D01*
X15195186Y-12643210D02*
X15185662Y-12633686D01*
X15471376Y-12452734D02*
X15433281Y-12452734D01*
X15433281Y-12452734D02*
X15414233Y-12462258D01*
X15414233Y-12462258D02*
X15404709Y-12471781D01*
X15404709Y-12471781D02*
X15385662Y-12500353D01*
X15385662Y-12500353D02*
X15376138Y-12538448D01*
X15376138Y-12538448D02*
X15376138Y-12614638D01*
X15376138Y-12614638D02*
X15385662Y-12633686D01*
X15385662Y-12633686D02*
X15395186Y-12643210D01*
X15395186Y-12643210D02*
X15414233Y-12652734D01*
X15414233Y-12652734D02*
X15452328Y-12652734D01*
X15452328Y-12652734D02*
X15471376Y-12643210D01*
X15471376Y-12643210D02*
X15480900Y-12633686D01*
X15480900Y-12633686D02*
X15490424Y-12614638D01*
X15490424Y-12614638D02*
X15490424Y-12567019D01*
X15490424Y-12567019D02*
X15480900Y-12547972D01*
X15480900Y-12547972D02*
X15471376Y-12538448D01*
X15471376Y-12538448D02*
X15452328Y-12528924D01*
X15452328Y-12528924D02*
X15414233Y-12528924D01*
X15414233Y-12528924D02*
X15395186Y-12538448D01*
X15395186Y-12538448D02*
X15385662Y-12547972D01*
X15385662Y-12547972D02*
X15376138Y-12567019D01*
X15566614Y-12452734D02*
X15566614Y-12490829D01*
X15642805Y-12452734D02*
X15642805Y-12490829D01*
X15938043Y-12728924D02*
X15928519Y-12719400D01*
X15928519Y-12719400D02*
X15909471Y-12690829D01*
X15909471Y-12690829D02*
X15899948Y-12671781D01*
X15899948Y-12671781D02*
X15890424Y-12643210D01*
X15890424Y-12643210D02*
X15880900Y-12595591D01*
X15880900Y-12595591D02*
X15880900Y-12557496D01*
X15880900Y-12557496D02*
X15890424Y-12509877D01*
X15890424Y-12509877D02*
X15899948Y-12481305D01*
X15899948Y-12481305D02*
X15909471Y-12462258D01*
X15909471Y-12462258D02*
X15928519Y-12433686D01*
X15928519Y-12433686D02*
X15938043Y-12424162D01*
X16004709Y-12471781D02*
X16014233Y-12462258D01*
X16014233Y-12462258D02*
X16033281Y-12452734D01*
X16033281Y-12452734D02*
X16080900Y-12452734D01*
X16080900Y-12452734D02*
X16099948Y-12462258D01*
X16099948Y-12462258D02*
X16109471Y-12471781D01*
X16109471Y-12471781D02*
X16118995Y-12490829D01*
X16118995Y-12490829D02*
X16118995Y-12509877D01*
X16118995Y-12509877D02*
X16109471Y-12538448D01*
X16109471Y-12538448D02*
X15995186Y-12652734D01*
X15995186Y-12652734D02*
X16118995Y-12652734D01*
X16357090Y-12652734D02*
X16357090Y-12452734D01*
X16442805Y-12652734D02*
X16442805Y-12547972D01*
X16442805Y-12547972D02*
X16433281Y-12528924D01*
X16433281Y-12528924D02*
X16414233Y-12519400D01*
X16414233Y-12519400D02*
X16385662Y-12519400D01*
X16385662Y-12519400D02*
X16366614Y-12528924D01*
X16366614Y-12528924D02*
X16357090Y-12538448D01*
X16566614Y-12652734D02*
X16547567Y-12643210D01*
X16547567Y-12643210D02*
X16538043Y-12633686D01*
X16538043Y-12633686D02*
X16528519Y-12614638D01*
X16528519Y-12614638D02*
X16528519Y-12557496D01*
X16528519Y-12557496D02*
X16538043Y-12538448D01*
X16538043Y-12538448D02*
X16547567Y-12528924D01*
X16547567Y-12528924D02*
X16566614Y-12519400D01*
X16566614Y-12519400D02*
X16595186Y-12519400D01*
X16595186Y-12519400D02*
X16614233Y-12528924D01*
X16614233Y-12528924D02*
X16623757Y-12538448D01*
X16623757Y-12538448D02*
X16633281Y-12557496D01*
X16633281Y-12557496D02*
X16633281Y-12614638D01*
X16633281Y-12614638D02*
X16623757Y-12633686D01*
X16623757Y-12633686D02*
X16614233Y-12643210D01*
X16614233Y-12643210D02*
X16595186Y-12652734D01*
X16595186Y-12652734D02*
X16566614Y-12652734D01*
X16747567Y-12652734D02*
X16728519Y-12643210D01*
X16728519Y-12643210D02*
X16718995Y-12624162D01*
X16718995Y-12624162D02*
X16718995Y-12452734D01*
X16899948Y-12643210D02*
X16880900Y-12652734D01*
X16880900Y-12652734D02*
X16842805Y-12652734D01*
X16842805Y-12652734D02*
X16823757Y-12643210D01*
X16823757Y-12643210D02*
X16814233Y-12624162D01*
X16814233Y-12624162D02*
X16814233Y-12547972D01*
X16814233Y-12547972D02*
X16823757Y-12528924D01*
X16823757Y-12528924D02*
X16842805Y-12519400D01*
X16842805Y-12519400D02*
X16880900Y-12519400D01*
X16880900Y-12519400D02*
X16899948Y-12528924D01*
X16899948Y-12528924D02*
X16909472Y-12547972D01*
X16909472Y-12547972D02*
X16909472Y-12567019D01*
X16909472Y-12567019D02*
X16814233Y-12586067D01*
X16985662Y-12643210D02*
X17004710Y-12652734D01*
X17004710Y-12652734D02*
X17042805Y-12652734D01*
X17042805Y-12652734D02*
X17061853Y-12643210D01*
X17061853Y-12643210D02*
X17071376Y-12624162D01*
X17071376Y-12624162D02*
X17071376Y-12614638D01*
X17071376Y-12614638D02*
X17061853Y-12595591D01*
X17061853Y-12595591D02*
X17042805Y-12586067D01*
X17042805Y-12586067D02*
X17014233Y-12586067D01*
X17014233Y-12586067D02*
X16995186Y-12576543D01*
X16995186Y-12576543D02*
X16985662Y-12557496D01*
X16985662Y-12557496D02*
X16985662Y-12547972D01*
X16985662Y-12547972D02*
X16995186Y-12528924D01*
X16995186Y-12528924D02*
X17014233Y-12519400D01*
X17014233Y-12519400D02*
X17042805Y-12519400D01*
X17042805Y-12519400D02*
X17061853Y-12528924D01*
X17138043Y-12728924D02*
X17147567Y-12719400D01*
X17147567Y-12719400D02*
X17166614Y-12690829D01*
X17166614Y-12690829D02*
X17176138Y-12671781D01*
X17176138Y-12671781D02*
X17185662Y-12643210D01*
X17185662Y-12643210D02*
X17195186Y-12595591D01*
X17195186Y-12595591D02*
X17195186Y-12557496D01*
X17195186Y-12557496D02*
X17185662Y-12509877D01*
X17185662Y-12509877D02*
X17176138Y-12481305D01*
X17176138Y-12481305D02*
X17166614Y-12462258D01*
X17166614Y-12462258D02*
X17147567Y-12433686D01*
X17147567Y-12433686D02*
X17138043Y-12424162D01*
X17499948Y-12728924D02*
X17490424Y-12719400D01*
X17490424Y-12719400D02*
X17471376Y-12690829D01*
X17471376Y-12690829D02*
X17461853Y-12671781D01*
X17461853Y-12671781D02*
X17452329Y-12643210D01*
X17452329Y-12643210D02*
X17442805Y-12595591D01*
X17442805Y-12595591D02*
X17442805Y-12557496D01*
X17442805Y-12557496D02*
X17452329Y-12509877D01*
X17452329Y-12509877D02*
X17461853Y-12481305D01*
X17461853Y-12481305D02*
X17471376Y-12462258D01*
X17471376Y-12462258D02*
X17490424Y-12433686D01*
X17490424Y-12433686D02*
X17499948Y-12424162D01*
X17576138Y-12519400D02*
X17576138Y-12652734D01*
X17576138Y-12538448D02*
X17585662Y-12528924D01*
X17585662Y-12528924D02*
X17604710Y-12519400D01*
X17604710Y-12519400D02*
X17633281Y-12519400D01*
X17633281Y-12519400D02*
X17652329Y-12528924D01*
X17652329Y-12528924D02*
X17661853Y-12547972D01*
X17661853Y-12547972D02*
X17661853Y-12652734D01*
X17785662Y-12652734D02*
X17766614Y-12643210D01*
X17766614Y-12643210D02*
X17757091Y-12633686D01*
X17757091Y-12633686D02*
X17747567Y-12614638D01*
X17747567Y-12614638D02*
X17747567Y-12557496D01*
X17747567Y-12557496D02*
X17757091Y-12538448D01*
X17757091Y-12538448D02*
X17766614Y-12528924D01*
X17766614Y-12528924D02*
X17785662Y-12519400D01*
X17785662Y-12519400D02*
X17814234Y-12519400D01*
X17814234Y-12519400D02*
X17833281Y-12528924D01*
X17833281Y-12528924D02*
X17842805Y-12538448D01*
X17842805Y-12538448D02*
X17852329Y-12557496D01*
X17852329Y-12557496D02*
X17852329Y-12614638D01*
X17852329Y-12614638D02*
X17842805Y-12633686D01*
X17842805Y-12633686D02*
X17833281Y-12643210D01*
X17833281Y-12643210D02*
X17814234Y-12652734D01*
X17814234Y-12652734D02*
X17785662Y-12652734D01*
X17909472Y-12519400D02*
X17985662Y-12519400D01*
X17938043Y-12452734D02*
X17938043Y-12624162D01*
X17938043Y-12624162D02*
X17947567Y-12643210D01*
X17947567Y-12643210D02*
X17966614Y-12652734D01*
X17966614Y-12652734D02*
X17985662Y-12652734D01*
X18204710Y-12519400D02*
X18204710Y-12719400D01*
X18204710Y-12528924D02*
X18223757Y-12519400D01*
X18223757Y-12519400D02*
X18261853Y-12519400D01*
X18261853Y-12519400D02*
X18280900Y-12528924D01*
X18280900Y-12528924D02*
X18290424Y-12538448D01*
X18290424Y-12538448D02*
X18299948Y-12557496D01*
X18299948Y-12557496D02*
X18299948Y-12614638D01*
X18299948Y-12614638D02*
X18290424Y-12633686D01*
X18290424Y-12633686D02*
X18280900Y-12643210D01*
X18280900Y-12643210D02*
X18261853Y-12652734D01*
X18261853Y-12652734D02*
X18223757Y-12652734D01*
X18223757Y-12652734D02*
X18204710Y-12643210D01*
X18414234Y-12652734D02*
X18395186Y-12643210D01*
X18395186Y-12643210D02*
X18385662Y-12624162D01*
X18385662Y-12624162D02*
X18385662Y-12452734D01*
X18576138Y-12652734D02*
X18576138Y-12547972D01*
X18576138Y-12547972D02*
X18566615Y-12528924D01*
X18566615Y-12528924D02*
X18547567Y-12519400D01*
X18547567Y-12519400D02*
X18509472Y-12519400D01*
X18509472Y-12519400D02*
X18490424Y-12528924D01*
X18576138Y-12643210D02*
X18557091Y-12652734D01*
X18557091Y-12652734D02*
X18509472Y-12652734D01*
X18509472Y-12652734D02*
X18490424Y-12643210D01*
X18490424Y-12643210D02*
X18480900Y-12624162D01*
X18480900Y-12624162D02*
X18480900Y-12605115D01*
X18480900Y-12605115D02*
X18490424Y-12586067D01*
X18490424Y-12586067D02*
X18509472Y-12576543D01*
X18509472Y-12576543D02*
X18557091Y-12576543D01*
X18557091Y-12576543D02*
X18576138Y-12567019D01*
X18642805Y-12519400D02*
X18718995Y-12519400D01*
X18671376Y-12452734D02*
X18671376Y-12624162D01*
X18671376Y-12624162D02*
X18680900Y-12643210D01*
X18680900Y-12643210D02*
X18699948Y-12652734D01*
X18699948Y-12652734D02*
X18718995Y-12652734D01*
X18861853Y-12643210D02*
X18842805Y-12652734D01*
X18842805Y-12652734D02*
X18804710Y-12652734D01*
X18804710Y-12652734D02*
X18785662Y-12643210D01*
X18785662Y-12643210D02*
X18776138Y-12624162D01*
X18776138Y-12624162D02*
X18776138Y-12547972D01*
X18776138Y-12547972D02*
X18785662Y-12528924D01*
X18785662Y-12528924D02*
X18804710Y-12519400D01*
X18804710Y-12519400D02*
X18842805Y-12519400D01*
X18842805Y-12519400D02*
X18861853Y-12528924D01*
X18861853Y-12528924D02*
X18871376Y-12547972D01*
X18871376Y-12547972D02*
X18871376Y-12567019D01*
X18871376Y-12567019D02*
X18776138Y-12586067D01*
X19042805Y-12652734D02*
X19042805Y-12452734D01*
X19042805Y-12643210D02*
X19023757Y-12652734D01*
X19023757Y-12652734D02*
X18985662Y-12652734D01*
X18985662Y-12652734D02*
X18966615Y-12643210D01*
X18966615Y-12643210D02*
X18957091Y-12633686D01*
X18957091Y-12633686D02*
X18947567Y-12614638D01*
X18947567Y-12614638D02*
X18947567Y-12557496D01*
X18947567Y-12557496D02*
X18957091Y-12538448D01*
X18957091Y-12538448D02*
X18966615Y-12528924D01*
X18966615Y-12528924D02*
X18985662Y-12519400D01*
X18985662Y-12519400D02*
X19023757Y-12519400D01*
X19023757Y-12519400D02*
X19042805Y-12528924D01*
X19118996Y-12728924D02*
X19128519Y-12719400D01*
X19128519Y-12719400D02*
X19147567Y-12690829D01*
X19147567Y-12690829D02*
X19157091Y-12671781D01*
X19157091Y-12671781D02*
X19166615Y-12643210D01*
X19166615Y-12643210D02*
X19176138Y-12595591D01*
X19176138Y-12595591D02*
X19176138Y-12557496D01*
X19176138Y-12557496D02*
X19166615Y-12509877D01*
X19166615Y-12509877D02*
X19157091Y-12481305D01*
X19157091Y-12481305D02*
X19147567Y-12462258D01*
X19147567Y-12462258D02*
X19128519Y-12433686D01*
X19128519Y-12433686D02*
X19118996Y-12424162D01*
M02*
