%TF.GenerationSoftware,KiCad,Pcbnew,8.0.4*%
%TF.CreationDate,2024-08-11T09:47:25+05:30*%
%TF.ProjectId,Wrkshp_PCB_test,57726b73-6870-45f5-9043-425f74657374,rev?*%
%TF.SameCoordinates,Original*%
%TF.FileFunction,Copper,L1,Top*%
%TF.FilePolarity,Positive*%
%FSLAX46Y46*%
G04 Gerber Fmt 4.6, Leading zero omitted, Abs format (unit mm)*
G04 Created by KiCad (PCBNEW 8.0.4) date 2024-08-11 09:47:25*
%MOMM*%
%LPD*%
G01*
G04 APERTURE LIST*
G04 Aperture macros list*
%AMRoundRect*
0 Rectangle with rounded corners*
0 $1 Rounding radius*
0 $2 $3 $4 $5 $6 $7 $8 $9 X,Y pos of 4 corners*
0 Add a 4 corners polygon primitive as box body*
4,1,4,$2,$3,$4,$5,$6,$7,$8,$9,$2,$3,0*
0 Add four circle primitives for the rounded corners*
1,1,$1+$1,$2,$3*
1,1,$1+$1,$4,$5*
1,1,$1+$1,$6,$7*
1,1,$1+$1,$8,$9*
0 Add four rect primitives between the rounded corners*
20,1,$1+$1,$2,$3,$4,$5,0*
20,1,$1+$1,$4,$5,$6,$7,0*
20,1,$1+$1,$6,$7,$8,$9,0*
20,1,$1+$1,$8,$9,$2,$3,0*%
%AMFreePoly0*
4,1,14,0.728536,0.728536,0.730000,0.725000,0.730000,-0.725000,0.728536,-0.728536,0.725000,-0.730000,-0.725000,-0.730000,-0.728536,-0.728536,-0.730000,-0.725000,-0.730000,0.125000,-0.728536,0.128536,-0.128536,0.728536,-0.125000,0.730000,0.725000,0.730000,0.728536,0.728536,0.728536,0.728536,$1*%
G04 Aperture macros list end*
%TA.AperFunction,SMDPad,CuDef*%
%ADD10RoundRect,0.200000X0.275000X-0.200000X0.275000X0.200000X-0.275000X0.200000X-0.275000X-0.200000X0*%
%TD*%
%TA.AperFunction,SMDPad,CuDef*%
%ADD11RoundRect,0.550000X-0.777817X0.000000X0.000000X-0.777817X0.777817X0.000000X0.000000X0.777817X0*%
%TD*%
%TA.AperFunction,SMDPad,CuDef*%
%ADD12RoundRect,0.375000X0.625000X0.375000X-0.625000X0.375000X-0.625000X-0.375000X0.625000X-0.375000X0*%
%TD*%
%TA.AperFunction,SMDPad,CuDef*%
%ADD13RoundRect,0.500000X0.500000X1.400000X-0.500000X1.400000X-0.500000X-1.400000X0.500000X-1.400000X0*%
%TD*%
%TA.AperFunction,SMDPad,CuDef*%
%ADD14RoundRect,0.200000X0.200000X0.275000X-0.200000X0.275000X-0.200000X-0.275000X0.200000X-0.275000X0*%
%TD*%
%TA.AperFunction,SMDPad,CuDef*%
%ADD15RoundRect,0.200000X-0.200000X-0.275000X0.200000X-0.275000X0.200000X0.275000X-0.200000X0.275000X0*%
%TD*%
%TA.AperFunction,SMDPad,CuDef*%
%ADD16R,0.400000X0.800000*%
%TD*%
%TA.AperFunction,SMDPad,CuDef*%
%ADD17R,0.800000X0.400000*%
%TD*%
%TA.AperFunction,SMDPad,CuDef*%
%ADD18FreePoly0,270.000000*%
%TD*%
%TA.AperFunction,SMDPad,CuDef*%
%ADD19R,1.450000X1.450000*%
%TD*%
%TA.AperFunction,SMDPad,CuDef*%
%ADD20R,0.700000X0.700000*%
%TD*%
%TA.AperFunction,SMDPad,CuDef*%
%ADD21RoundRect,0.225000X0.250000X-0.225000X0.250000X0.225000X-0.250000X0.225000X-0.250000X-0.225000X0*%
%TD*%
%TA.AperFunction,SMDPad,CuDef*%
%ADD22RoundRect,0.200000X-0.275000X0.200000X-0.275000X-0.200000X0.275000X-0.200000X0.275000X0.200000X0*%
%TD*%
%TA.AperFunction,SMDPad,CuDef*%
%ADD23R,1.000000X1.700000*%
%TD*%
%TA.AperFunction,SMDPad,CuDef*%
%ADD24RoundRect,0.150000X-0.512500X-0.150000X0.512500X-0.150000X0.512500X0.150000X-0.512500X0.150000X0*%
%TD*%
%TA.AperFunction,SMDPad,CuDef*%
%ADD25R,1.500000X0.650000*%
%TD*%
%TA.AperFunction,SMDPad,CuDef*%
%ADD26R,1.350000X1.800000*%
%TD*%
%TA.AperFunction,SMDPad,CuDef*%
%ADD27RoundRect,0.225000X-0.225000X-0.250000X0.225000X-0.250000X0.225000X0.250000X-0.225000X0.250000X0*%
%TD*%
%TA.AperFunction,SMDPad,CuDef*%
%ADD28RoundRect,0.100000X0.637500X0.100000X-0.637500X0.100000X-0.637500X-0.100000X0.637500X-0.100000X0*%
%TD*%
%TA.AperFunction,SMDPad,CuDef*%
%ADD29RoundRect,0.225000X-0.250000X0.225000X-0.250000X-0.225000X0.250000X-0.225000X0.250000X0.225000X0*%
%TD*%
%TA.AperFunction,SMDPad,CuDef*%
%ADD30RoundRect,0.225000X0.225000X0.250000X-0.225000X0.250000X-0.225000X-0.250000X0.225000X-0.250000X0*%
%TD*%
%TA.AperFunction,SMDPad,CuDef*%
%ADD31RoundRect,0.150000X-0.150000X-0.425000X0.150000X-0.425000X0.150000X0.425000X-0.150000X0.425000X0*%
%TD*%
%TA.AperFunction,SMDPad,CuDef*%
%ADD32RoundRect,0.075000X-0.075000X-0.500000X0.075000X-0.500000X0.075000X0.500000X-0.075000X0.500000X0*%
%TD*%
%TA.AperFunction,ComponentPad*%
%ADD33O,1.000000X2.100000*%
%TD*%
%TA.AperFunction,ComponentPad*%
%ADD34O,1.000000X1.800000*%
%TD*%
%TA.AperFunction,SMDPad,CuDef*%
%ADD35RoundRect,0.150000X0.587500X0.150000X-0.587500X0.150000X-0.587500X-0.150000X0.587500X-0.150000X0*%
%TD*%
%TA.AperFunction,ComponentPad*%
%ADD36R,2.000000X2.000000*%
%TD*%
%TA.AperFunction,ComponentPad*%
%ADD37C,2.000000*%
%TD*%
%TA.AperFunction,ViaPad*%
%ADD38C,0.600000*%
%TD*%
%TA.AperFunction,Conductor*%
%ADD39C,0.508000*%
%TD*%
%TA.AperFunction,Conductor*%
%ADD40C,0.254000*%
%TD*%
G04 APERTURE END LIST*
D10*
%TO.P,R10,1*%
%TO.N,Net-(D1-RK)*%
X156108400Y-71792600D03*
%TO.P,R10,2*%
%TO.N,GND*%
X156108400Y-70142600D03*
%TD*%
D11*
%TO.P,BT1,1,+*%
%TO.N,+BATT*%
X136309036Y-68821364D03*
%TO.P,BT1,2,-*%
%TO.N,Net-(BT1--)*%
X133794564Y-71335836D03*
%TD*%
D10*
%TO.P,R5,1*%
%TO.N,GND*%
X125389000Y-98038900D03*
%TO.P,R5,2*%
%TO.N,Net-(U4-PROG)*%
X125389000Y-96388900D03*
%TD*%
D12*
%TO.P,U2,1,GND*%
%TO.N,GND*%
X137719200Y-83046600D03*
%TO.P,U2,2,VO*%
%TO.N,+3V3*%
X137719200Y-80746600D03*
D13*
X131419200Y-80746600D03*
D12*
%TO.P,U2,3,VI*%
%TO.N,+BATT*%
X137719200Y-78446600D03*
%TD*%
D14*
%TO.P,R1,1*%
%TO.N,Net-(J1-CC1)*%
X140956800Y-108991400D03*
%TO.P,R1,2*%
%TO.N,GND*%
X139306800Y-108991400D03*
%TD*%
D15*
%TO.P,R2,1*%
%TO.N,Net-(J1-CC2)*%
X146037800Y-108991400D03*
%TO.P,R2,2*%
%TO.N,GND*%
X147687800Y-108991400D03*
%TD*%
D16*
%TO.P,U1,1,GND*%
%TO.N,GND*%
X150710000Y-93533800D03*
%TO.P,U1,2,GND*%
X149910000Y-93533800D03*
%TO.P,U1,3,3V3*%
%TO.N,+3V3*%
X149110000Y-93533800D03*
%TO.P,U1,4,NC*%
%TO.N,unconnected-(U1-NC-Pad4)*%
X148310000Y-93533800D03*
%TO.P,U1,5,IO2*%
%TO.N,Net-(U1-IO2)*%
X147510000Y-93533800D03*
%TO.P,U1,6,IO3*%
%TO.N,Bulb_1*%
X146710000Y-93533800D03*
%TO.P,U1,7,NC*%
%TO.N,unconnected-(U1-NC-Pad7)*%
X145910000Y-93533800D03*
%TO.P,U1,8,EN*%
%TO.N,RESET*%
X145110000Y-93533800D03*
%TO.P,U1,9,NC*%
%TO.N,unconnected-(U1-NC-Pad9)*%
X144310000Y-93533800D03*
%TO.P,U1,10,NC*%
%TO.N,unconnected-(U1-NC-Pad10)*%
X143510000Y-93533800D03*
%TO.P,U1,11,GND*%
%TO.N,GND*%
X142710000Y-93533800D03*
D17*
%TO.P,U1,12,IO0*%
%TO.N,Button*%
X141810000Y-94633800D03*
%TO.P,U1,13,IO1*%
%TO.N,Bulb_2*%
X141810000Y-95433800D03*
%TO.P,U1,14,GND*%
%TO.N,GND*%
X141810000Y-96233800D03*
%TO.P,U1,15,NC*%
%TO.N,unconnected-(U1-NC-Pad15)*%
X141810000Y-97033800D03*
%TO.P,U1,16,IO10*%
%TO.N,unconnected-(U1-IO10-Pad16)*%
X141810000Y-97833800D03*
%TO.P,U1,17,NC*%
%TO.N,unconnected-(U1-NC-Pad17)*%
X141810000Y-98633800D03*
%TO.P,U1,18,IO4*%
%TO.N,Bulb_3*%
X141810000Y-99433800D03*
%TO.P,U1,19,IO5*%
%TO.N,Buzzer*%
X141810000Y-100233800D03*
%TO.P,U1,20,IO6*%
%TO.N,CHG*%
X141810000Y-101033800D03*
%TO.P,U1,21,IO7*%
%TO.N,unconnected-(U1-IO7-Pad21)*%
X141810000Y-101833800D03*
%TO.P,U1,22,IO8*%
%TO.N,Net-(U1-IO8)*%
X141810000Y-102633800D03*
%TO.P,U1,23,IO9*%
%TO.N,BOOT*%
X141810000Y-103433800D03*
%TO.P,U1,24,NC*%
%TO.N,unconnected-(U1-NC-Pad24)*%
X141810000Y-104233800D03*
D16*
%TO.P,U1,25,NC*%
%TO.N,unconnected-(U1-NC-Pad25)*%
X142710000Y-105333800D03*
%TO.P,U1,26,USB_DN/IO18*%
%TO.N,USB_DN*%
X143510000Y-105333800D03*
%TO.P,U1,27,USB_DP/IO19*%
%TO.N,USB_DP*%
X144310000Y-105333800D03*
%TO.P,U1,28,NC*%
%TO.N,unconnected-(U1-NC-Pad28)*%
X145110000Y-105333800D03*
%TO.P,U1,29,NC*%
%TO.N,unconnected-(U1-NC-Pad29)*%
X145910000Y-105333800D03*
%TO.P,U1,30,RXD0*%
%TO.N,unconnected-(U1-RXD0-Pad30)*%
X146710000Y-105333800D03*
%TO.P,U1,31,TXD0*%
%TO.N,unconnected-(U1-TXD0-Pad31)*%
X147510000Y-105333800D03*
%TO.P,U1,32,NC*%
%TO.N,unconnected-(U1-NC-Pad32)*%
X148310000Y-105333800D03*
%TO.P,U1,33,NC*%
%TO.N,unconnected-(U1-NC-Pad33)*%
X149110000Y-105333800D03*
%TO.P,U1,34,NC*%
%TO.N,unconnected-(U1-NC-Pad34)*%
X149910000Y-105333800D03*
%TO.P,U1,35,NC*%
%TO.N,unconnected-(U1-NC-Pad35)*%
X150710000Y-105333800D03*
D17*
%TO.P,U1,36,GND*%
%TO.N,GND*%
X151610000Y-104233800D03*
%TO.P,U1,37,GND*%
X151610000Y-103433800D03*
%TO.P,U1,38,GND*%
X151610000Y-102633800D03*
%TO.P,U1,39,GND*%
X151610000Y-101833800D03*
%TO.P,U1,40,GND*%
X151610000Y-101033800D03*
%TO.P,U1,41,GND*%
X151610000Y-100233800D03*
%TO.P,U1,42,GND*%
X151610000Y-99433800D03*
%TO.P,U1,43,GND*%
X151610000Y-98633800D03*
%TO.P,U1,44,GND*%
X151610000Y-97833800D03*
%TO.P,U1,45,GND*%
X151610000Y-97033800D03*
%TO.P,U1,46,GND*%
X151610000Y-96233800D03*
%TO.P,U1,47,GND*%
X151610000Y-95433800D03*
%TO.P,U1,48,GND*%
X151610000Y-94633800D03*
D18*
%TO.P,U1,49,GND*%
X148685000Y-97458800D03*
D19*
X146710000Y-97458800D03*
X144735000Y-97458800D03*
X148685000Y-99433800D03*
X146710000Y-99433800D03*
X144735000Y-99433800D03*
X148685000Y-101408800D03*
X146710000Y-101408800D03*
X144735000Y-101408800D03*
D20*
%TO.P,U1,50,GND*%
X151660000Y-105383800D03*
%TO.P,U1,51,GND*%
X141760000Y-105383800D03*
%TO.P,U1,52,GND*%
X141760000Y-93483800D03*
%TO.P,U1,53,GND*%
X151660000Y-93483800D03*
%TD*%
D21*
%TO.P,C5,1*%
%TO.N,BOOT*%
X128955800Y-107251800D03*
%TO.P,C5,2*%
%TO.N,GND*%
X128955800Y-105701800D03*
%TD*%
D22*
%TO.P,R4,1*%
%TO.N,+BATT*%
X136550400Y-89916800D03*
%TO.P,R4,2*%
%TO.N,Net-(U3-VCC)*%
X136550400Y-91566800D03*
%TD*%
D23*
%TO.P,SW3,1,1*%
%TO.N,GND*%
X130891200Y-109626800D03*
X130891200Y-103326800D03*
%TO.P,SW3,2,2*%
%TO.N,BOOT*%
X134691200Y-109626800D03*
X134691200Y-103326800D03*
%TD*%
D24*
%TO.P,U3,1,OD*%
%TO.N,Net-(Q2-G_{1})*%
X130378200Y-90200400D03*
%TO.P,U3,2,CS*%
%TO.N,Net-(U3-CS)*%
X130378200Y-91150400D03*
%TO.P,U3,3,OC*%
%TO.N,Net-(Q2-G_{2})*%
X130378200Y-92100400D03*
%TO.P,U3,4,TD*%
%TO.N,unconnected-(U3-TD-Pad4)*%
X132653200Y-92100400D03*
%TO.P,U3,5,VCC*%
%TO.N,Net-(U3-VCC)*%
X132653200Y-91150400D03*
%TO.P,U3,6,GND*%
%TO.N,Net-(BT1--)*%
X132653200Y-90200400D03*
%TD*%
D25*
%TO.P,U4,1,TEMP*%
%TO.N,GND*%
X127337200Y-95061200D03*
%TO.P,U4,2,PROG*%
%TO.N,Net-(U4-PROG)*%
X127337200Y-96331200D03*
%TO.P,U4,3,GND*%
%TO.N,GND*%
X127337200Y-97601200D03*
%TO.P,U4,4,VCC*%
%TO.N,VBUS*%
X127337200Y-98871200D03*
%TO.P,U4,5,BAT*%
%TO.N,+BATT*%
X132737200Y-98871200D03*
%TO.P,U4,6,~{STDBY}*%
%TO.N,unconnected-(U4-~{STDBY}-Pad6)*%
X132737200Y-97601200D03*
%TO.P,U4,7,~{CHRG}*%
%TO.N,CHG*%
X132737200Y-96331200D03*
%TO.P,U4,8,CE*%
%TO.N,VBUS*%
X132737200Y-95061200D03*
D26*
%TO.P,U4,9,EP*%
%TO.N,GND*%
X129362200Y-96066200D03*
X129362200Y-97866200D03*
X130712200Y-96066200D03*
X130712200Y-97866200D03*
%TD*%
D14*
%TO.P,R14,1*%
%TO.N,+3V3*%
X138493000Y-104114600D03*
%TO.P,R14,2*%
%TO.N,BOOT*%
X136843000Y-104114600D03*
%TD*%
D23*
%TO.P,SW2,1,1*%
%TO.N,GND*%
X140619400Y-90805400D03*
X140619400Y-84505400D03*
%TO.P,SW2,2,2*%
%TO.N,RESET*%
X144419400Y-90805400D03*
X144419400Y-84505400D03*
%TD*%
D27*
%TO.P,C7,1*%
%TO.N,+3V3*%
X149643800Y-89103200D03*
%TO.P,C7,2*%
%TO.N,GND*%
X151193800Y-89103200D03*
%TD*%
D22*
%TO.P,R8,1*%
%TO.N,Net-(D1-BK)*%
X156641800Y-83426800D03*
%TO.P,R8,2*%
%TO.N,GND*%
X156641800Y-85076800D03*
%TD*%
D28*
%TO.P,Q2,1,D_{12}*%
%TO.N,unconnected-(Q2-D_{12}-Pad1)*%
X133367700Y-88198600D03*
%TO.P,Q2,2,S_{1}*%
%TO.N,Net-(BT1--)*%
X133367700Y-87548600D03*
%TO.P,Q2,3,S_{1}*%
X133367700Y-86898600D03*
%TO.P,Q2,4,G_{1}*%
%TO.N,Net-(Q2-G_{1})*%
X133367700Y-86248600D03*
%TO.P,Q2,5,G_{2}*%
%TO.N,Net-(Q2-G_{2})*%
X127642700Y-86248600D03*
%TO.P,Q2,6,S_{2}*%
%TO.N,GND*%
X127642700Y-86898600D03*
%TO.P,Q2,7,S_{2}*%
%TO.N,unconnected-(Q2-S_{2}-Pad7)*%
X127642700Y-87548600D03*
%TO.P,Q2,8,D_{12}*%
%TO.N,unconnected-(Q2-D_{12}-Pad1)_0*%
X127642700Y-88198600D03*
%TD*%
D29*
%TO.P,C2,1*%
%TO.N,+3V3*%
X140004800Y-80784400D03*
%TO.P,C2,2*%
%TO.N,GND*%
X140004800Y-82334400D03*
%TD*%
D15*
%TO.P,R3,1*%
%TO.N,Buzzer*%
X144082000Y-77139800D03*
%TO.P,R3,2*%
%TO.N,GND*%
X145732000Y-77139800D03*
%TD*%
D14*
%TO.P,R7,1*%
%TO.N,Net-(U3-CS)*%
X128536200Y-90449400D03*
%TO.P,R7,2*%
%TO.N,GND*%
X126886200Y-90449400D03*
%TD*%
D21*
%TO.P,C3,1*%
%TO.N,Net-(U3-VCC)*%
X134950200Y-91503800D03*
%TO.P,C3,2*%
%TO.N,Net-(BT1--)*%
X134950200Y-89953800D03*
%TD*%
D10*
%TO.P,R13,1*%
%TO.N,+3V3*%
X146398600Y-88490800D03*
%TO.P,R13,2*%
%TO.N,RESET*%
X146398600Y-86840800D03*
%TD*%
D30*
%TO.P,C9,1*%
%TO.N,Button*%
X134010400Y-100660200D03*
%TO.P,C9,2*%
%TO.N,GND*%
X132460400Y-100660200D03*
%TD*%
D14*
%TO.P,R15,1*%
%TO.N,+3V3*%
X137299200Y-100457000D03*
%TO.P,R15,2*%
%TO.N,Button*%
X135649200Y-100457000D03*
%TD*%
D15*
%TO.P,R11,1*%
%TO.N,+3V3*%
X138494000Y-102438200D03*
%TO.P,R11,2*%
%TO.N,Net-(U1-IO8)*%
X140144000Y-102438200D03*
%TD*%
D27*
%TO.P,C8,1*%
%TO.N,+3V3*%
X149643800Y-90728800D03*
%TO.P,C8,2*%
%TO.N,GND*%
X151193800Y-90728800D03*
%TD*%
%TO.P,C6,1*%
%TO.N,+3V3*%
X149643800Y-87452200D03*
%TO.P,C6,2*%
%TO.N,GND*%
X151193800Y-87452200D03*
%TD*%
D31*
%TO.P,J1,A1,GND*%
%TO.N,GND*%
X139979800Y-112067800D03*
%TO.P,J1,A4,VBUS*%
%TO.N,VBUS*%
X140779800Y-112067800D03*
D32*
%TO.P,J1,A5,CC1*%
%TO.N,Net-(J1-CC1)*%
X141929800Y-112067800D03*
%TO.P,J1,A6,D+*%
%TO.N,USB_DP*%
X142929800Y-112067800D03*
%TO.P,J1,A7,D-*%
%TO.N,USB_DN*%
X143429800Y-112067800D03*
%TO.P,J1,A8,SBU1*%
%TO.N,unconnected-(J1-SBU1-PadA8)*%
X144429800Y-112067800D03*
D31*
%TO.P,J1,A9,VBUS*%
%TO.N,VBUS*%
X145579800Y-112067800D03*
%TO.P,J1,A12,GND*%
%TO.N,GND*%
X146379800Y-112067800D03*
%TO.P,J1,B1,GND*%
X146379800Y-112067800D03*
%TO.P,J1,B4,VBUS*%
%TO.N,VBUS*%
X145579800Y-112067800D03*
D32*
%TO.P,J1,B5,CC2*%
%TO.N,Net-(J1-CC2)*%
X144929800Y-112067800D03*
%TO.P,J1,B6,D+*%
%TO.N,USB_DP*%
X143929800Y-112067800D03*
%TO.P,J1,B7,D-*%
%TO.N,USB_DN*%
X142429800Y-112067800D03*
%TO.P,J1,B8,SBU2*%
%TO.N,unconnected-(J1-SBU2-PadB8)*%
X141429800Y-112067800D03*
D31*
%TO.P,J1,B9,VBUS*%
%TO.N,VBUS*%
X140779800Y-112067800D03*
%TO.P,J1,B12,GND*%
%TO.N,GND*%
X139979800Y-112067800D03*
D33*
%TO.P,J1,S1,SHIELD*%
X138859800Y-112642800D03*
D34*
X138859800Y-116822800D03*
D33*
X147499800Y-112642800D03*
D34*
X147499800Y-116822800D03*
%TD*%
D22*
%TO.P,R12,1*%
%TO.N,+3V3*%
X148082000Y-89802200D03*
%TO.P,R12,2*%
%TO.N,Net-(U1-IO2)*%
X148082000Y-91452200D03*
%TD*%
%TO.P,R9,1*%
%TO.N,Net-(D1-GK)*%
X158648400Y-83528400D03*
%TO.P,R9,2*%
%TO.N,GND*%
X158648400Y-85178400D03*
%TD*%
D35*
%TO.P,Q1,1,B*%
%TO.N,Buzzer*%
X144117300Y-75525000D03*
%TO.P,Q1,2,E*%
%TO.N,GND*%
X144117300Y-73625000D03*
%TO.P,Q1,3,C*%
%TO.N,Net-(BZ1--)*%
X142242300Y-74575000D03*
%TD*%
D30*
%TO.P,C1,1*%
%TO.N,+BATT*%
X136309400Y-76250800D03*
%TO.P,C1,2*%
%TO.N,GND*%
X134759400Y-76250800D03*
%TD*%
D21*
%TO.P,C4,1*%
%TO.N,RESET*%
X138626200Y-88440800D03*
%TO.P,C4,2*%
%TO.N,GND*%
X138626200Y-86890800D03*
%TD*%
D36*
%TO.P,BZ1,1,+*%
%TO.N,+3V3*%
X146979800Y-74575000D03*
D37*
%TO.P,BZ1,2,-*%
%TO.N,Net-(BZ1--)*%
X139379800Y-74575000D03*
%TD*%
D38*
%TO.N,Net-(BT1--)*%
X134950200Y-85623400D03*
X134975600Y-73355200D03*
%TO.N,+BATT*%
X136271000Y-78486000D03*
X134112000Y-98856800D03*
X136194800Y-71628000D03*
X136271000Y-87426800D03*
%TO.N,GND*%
X148869400Y-108966000D03*
X140817600Y-96240600D03*
X131241800Y-100558600D03*
X147701000Y-98475800D03*
X141757400Y-84048600D03*
X158851600Y-86233000D03*
X152374600Y-87477600D03*
X139039600Y-81965800D03*
X129159000Y-86918800D03*
X147675600Y-100406200D03*
X145719800Y-98475800D03*
X145719800Y-100406200D03*
X144119600Y-72415400D03*
X130784600Y-111582200D03*
X157683200Y-86055200D03*
X132130800Y-102870000D03*
X127381000Y-93446600D03*
X155956000Y-68834000D03*
X152450800Y-90728800D03*
X152374600Y-89077800D03*
X145719800Y-78257400D03*
X139141200Y-82880200D03*
X126974600Y-89408000D03*
X127584200Y-105613200D03*
X141757400Y-90932000D03*
%TO.N,Bulb_1*%
X146710400Y-92075000D03*
%TO.N,Net-(D1-GK)*%
X159156400Y-82270600D03*
%TO.N,Net-(D1-RK)*%
X157632400Y-76835000D03*
%TO.N,Bulb_3*%
X142646400Y-99415600D03*
%TO.N,Net-(D1-BK)*%
X157683200Y-82346800D03*
%TO.N,Bulb_2*%
X142748000Y-95453200D03*
%TO.N,CHG*%
X136525000Y-99263200D03*
X138023600Y-99212400D03*
%TO.N,VBUS*%
X145567400Y-110515400D03*
X128981200Y-94157800D03*
X125703692Y-98938501D03*
X140792200Y-110515400D03*
%TO.N,Button*%
X140233400Y-95021400D03*
X134899400Y-100660200D03*
%TO.N,Buzzer*%
X138658600Y-92964000D03*
X143967200Y-79044800D03*
%TD*%
D39*
%TO.N,Net-(BT1--)*%
X134975600Y-73355200D02*
X134975600Y-72516872D01*
X134950200Y-87274400D02*
X134950200Y-89953800D01*
D40*
X131699000Y-87579200D02*
X132379600Y-86898600D01*
X131699000Y-89865200D02*
X131699000Y-87579200D01*
D39*
X134975600Y-72516872D02*
X133794564Y-71335836D01*
D40*
X132653200Y-90200400D02*
X132034200Y-90200400D01*
X132034200Y-90200400D02*
X131699000Y-89865200D01*
X132379600Y-86898600D02*
X133367700Y-86898600D01*
D39*
X134950200Y-85623400D02*
X134950200Y-87274400D01*
D40*
X133954600Y-90200400D02*
X134201200Y-89953800D01*
X134201200Y-89953800D02*
X134950200Y-89953800D01*
D39*
X134950200Y-87274400D02*
X132867400Y-87274400D01*
D40*
X132653200Y-90200400D02*
X133954600Y-90200400D01*
D39*
%TO.N,+BATT*%
X136309400Y-78447600D02*
X136309400Y-76250800D01*
X136296400Y-89662800D02*
X136550400Y-89916800D01*
X136194800Y-68935600D02*
X136309036Y-68821364D01*
X136194800Y-71628000D02*
X136194800Y-68935600D01*
X132737200Y-98871200D02*
X134097600Y-98871200D01*
X136271000Y-87426800D02*
X136296400Y-87452200D01*
X136271000Y-78486000D02*
X136309400Y-78447600D01*
X136271000Y-78486000D02*
X137679800Y-78486000D01*
X134097600Y-98871200D02*
X134112000Y-98856800D01*
X136296400Y-87452200D02*
X136296400Y-89662800D01*
%TO.N,+3V3*%
X136042400Y-80746600D02*
X131419200Y-80746600D01*
D40*
X137352400Y-100403800D02*
X137352400Y-85688800D01*
D39*
X148944800Y-89802200D02*
X149643800Y-89103200D01*
X148082000Y-89802200D02*
X148944800Y-89802200D01*
D40*
X138494000Y-102438200D02*
X138494000Y-101651800D01*
D39*
X137719200Y-80746600D02*
X136042400Y-80746600D01*
X149643800Y-82384600D02*
X149643800Y-90728800D01*
D40*
X138493000Y-102439200D02*
X138494000Y-102438200D01*
X138494000Y-101651800D02*
X137299200Y-100457000D01*
X137352400Y-85688800D02*
X136042400Y-84378800D01*
D39*
X146979800Y-74575000D02*
X146979800Y-80731200D01*
X146964400Y-80746600D02*
X148005800Y-80746600D01*
D40*
X137299200Y-100457000D02*
X137352400Y-100403800D01*
D39*
X148005800Y-80746600D02*
X149643800Y-82384600D01*
X149643800Y-91986400D02*
X149110000Y-92520200D01*
D40*
X138493000Y-104114600D02*
X138493000Y-102439200D01*
D39*
X149110000Y-92520200D02*
X149110000Y-93533800D01*
D40*
X136042400Y-84378800D02*
X136042400Y-80746600D01*
D39*
X149643800Y-90728800D02*
X149643800Y-91986400D01*
X146398600Y-88490800D02*
X149631400Y-88490800D01*
X137719200Y-80746600D02*
X146964400Y-80746600D01*
X146979800Y-80731200D02*
X146964400Y-80746600D01*
%TO.N,Net-(BZ1--)*%
X142242300Y-74575000D02*
X139379800Y-74575000D01*
D40*
%TO.N,GND*%
X140817600Y-96240600D02*
X141803200Y-96240600D01*
X129138800Y-86898600D02*
X129159000Y-86918800D01*
X141803200Y-96240600D02*
X141810000Y-96233800D01*
X127642700Y-86898600D02*
X129138800Y-86898600D01*
%TO.N,Net-(U3-VCC)*%
X134010200Y-91566800D02*
X136550400Y-91566800D01*
X132653200Y-91150400D02*
X133593800Y-91150400D01*
X133593800Y-91150400D02*
X134010200Y-91566800D01*
%TO.N,Bulb_1*%
X146710000Y-92075400D02*
X146710400Y-92075000D01*
X146710000Y-93533800D02*
X146710000Y-92075400D01*
%TO.N,Net-(D1-GK)*%
X159156400Y-83020400D02*
X158648400Y-83528400D01*
X159156400Y-82270600D02*
X159156400Y-83020400D01*
%TO.N,Net-(D1-RK)*%
X157453840Y-73211960D02*
X157657800Y-74053968D01*
X157657800Y-74053968D02*
X157657800Y-76809600D01*
X157393224Y-72976928D02*
X157453840Y-73211960D01*
X156208896Y-71792600D02*
X157393224Y-72976928D01*
X157657800Y-76809600D02*
X157632400Y-76835000D01*
X156108400Y-71792600D02*
X156208896Y-71792600D01*
%TO.N,Bulb_3*%
X142628200Y-99433800D02*
X142646400Y-99415600D01*
X141810000Y-99433800D02*
X142628200Y-99433800D01*
%TO.N,Net-(D1-BK)*%
X157683200Y-82385400D02*
X157683200Y-82346800D01*
X156641800Y-83426800D02*
X157683200Y-82385400D01*
%TO.N,Bulb_2*%
X141810000Y-95433800D02*
X142728600Y-95433800D01*
X142728600Y-95433800D02*
X142748000Y-95453200D01*
%TO.N,CHG*%
X136094200Y-99263200D02*
X136525000Y-99263200D01*
X139845000Y-101033800D02*
X141810000Y-101033800D01*
X133162200Y-96331200D02*
X135026400Y-98195400D01*
X135026400Y-98195400D02*
X136094200Y-99263200D01*
X132737200Y-96331200D02*
X133162200Y-96331200D01*
X138023600Y-99212400D02*
X139845000Y-101033800D01*
D39*
%TO.N,VBUS*%
X145579800Y-112067800D02*
X145579800Y-110527800D01*
X126655400Y-98871200D02*
X127337200Y-98871200D01*
X125703692Y-98938501D02*
X126588099Y-98938501D01*
D40*
X132410200Y-94157800D02*
X128981200Y-94157800D01*
D39*
X126588099Y-98938501D02*
X126655400Y-98871200D01*
X145579800Y-110527800D02*
X145567400Y-110515400D01*
X140779800Y-112067800D02*
X140779800Y-110527800D01*
X140779800Y-110527800D02*
X140792200Y-110515400D01*
D40*
X132737200Y-94484800D02*
X132410200Y-94157800D01*
X132737200Y-95061200D02*
X132737200Y-94484800D01*
%TO.N,Net-(J1-CC2)*%
X145415000Y-108991400D02*
X146037800Y-108991400D01*
X144929800Y-112067800D02*
X144929800Y-109476600D01*
X144929800Y-109476600D02*
X145415000Y-108991400D01*
%TO.N,USB_DP*%
X143865600Y-113055400D02*
X143027400Y-113055400D01*
X142929800Y-112957800D02*
X142929800Y-112067800D01*
X143027400Y-113055400D02*
X142929800Y-112957800D01*
X144310000Y-107353200D02*
X144310000Y-105333800D01*
X143929800Y-112067800D02*
X143929800Y-112991200D01*
X143929800Y-112067800D02*
X143929800Y-107733400D01*
X143929800Y-112991200D02*
X143865600Y-113055400D01*
X143929800Y-107733400D02*
X144310000Y-107353200D01*
%TO.N,USB_DN*%
X142417800Y-111175800D02*
X143306800Y-110286800D01*
X143429800Y-110286800D02*
X143429800Y-112067800D01*
X143306800Y-110286800D02*
X143429800Y-110286800D01*
X142429800Y-112067800D02*
X142417800Y-112055800D01*
X142417800Y-112055800D02*
X142417800Y-111175800D01*
X143510000Y-107213400D02*
X143429800Y-107293600D01*
X143429800Y-107293600D02*
X143429800Y-110286800D01*
X143510000Y-105333800D02*
X143510000Y-107213400D01*
%TO.N,Net-(J1-CC1)*%
X141929800Y-109301600D02*
X141619600Y-108991400D01*
X141619600Y-108991400D02*
X140956800Y-108991400D01*
X141929800Y-112067800D02*
X141929800Y-109301600D01*
%TO.N,Net-(Q2-G_{1})*%
X130378200Y-90200400D02*
X130378200Y-86614000D01*
X130743600Y-86248600D02*
X133367700Y-86248600D01*
X130378200Y-86614000D02*
X130743600Y-86248600D01*
%TO.N,Net-(Q2-G_{2})*%
X126060200Y-86944200D02*
X126755800Y-86248600D01*
X126136400Y-92100400D02*
X126060200Y-92024200D01*
X126755800Y-86248600D02*
X127642700Y-86248600D01*
X130378200Y-92100400D02*
X126136400Y-92100400D01*
X126060200Y-92024200D02*
X126060200Y-86944200D01*
%TO.N,Net-(U4-PROG)*%
X125446700Y-96331200D02*
X125389000Y-96388900D01*
X127337200Y-96331200D02*
X125446700Y-96331200D01*
%TO.N,Net-(U3-CS)*%
X128981200Y-90449400D02*
X129682200Y-91150400D01*
X128536200Y-90449400D02*
X128981200Y-90449400D01*
X129682200Y-91150400D02*
X130378200Y-91150400D01*
%TO.N,Net-(U1-IO8)*%
X140639800Y-102438200D02*
X140835400Y-102633800D01*
X140144000Y-102438200D02*
X140639800Y-102438200D01*
X140835400Y-102633800D02*
X141810000Y-102633800D01*
%TO.N,Net-(U1-IO2)*%
X147510000Y-92875600D02*
X148082000Y-92303600D01*
X147510000Y-93533800D02*
X147510000Y-92875600D01*
X148082000Y-92303600D02*
X148082000Y-91452200D01*
%TO.N,Button*%
X134010400Y-100660200D02*
X135446000Y-100660200D01*
X135446000Y-100660200D02*
X135649200Y-100457000D01*
X140233400Y-95021400D02*
X140621000Y-94633800D01*
X140621000Y-94633800D02*
X141810000Y-94633800D01*
%TO.N,Buzzer*%
X138658600Y-98933000D02*
X138658600Y-92964000D01*
X143967200Y-77254600D02*
X144082000Y-77139800D01*
X141810000Y-100233800D02*
X139959400Y-100233800D01*
X139959400Y-100233800D02*
X138658600Y-98933000D01*
X144082000Y-77139800D02*
X144082000Y-75560300D01*
X144082000Y-75560300D02*
X144117300Y-75525000D01*
X143967200Y-79044800D02*
X143967200Y-77254600D01*
%TO.N,BOOT*%
X137972800Y-105054400D02*
X139573000Y-105054400D01*
X137287000Y-104114600D02*
X137766000Y-104593600D01*
X136843000Y-104114600D02*
X134747000Y-104114600D01*
X137766000Y-104847600D02*
X137972800Y-105054400D01*
X136843000Y-104114600D02*
X137287000Y-104114600D01*
X141193600Y-103433800D02*
X141810000Y-103433800D01*
X139573000Y-105054400D02*
X141193600Y-103433800D01*
X128955800Y-107251800D02*
X134653400Y-107251800D01*
X134691200Y-109626800D02*
X134691200Y-107289600D01*
X134653400Y-107251800D02*
X134691200Y-107289600D01*
X134691200Y-107289600D02*
X134691200Y-103326800D01*
X137766000Y-104593600D02*
X137766000Y-104847600D01*
%TO.N,RESET*%
X146398600Y-86840800D02*
X144421200Y-86840800D01*
X144421200Y-86840800D02*
X144419400Y-86842600D01*
X138626200Y-88440800D02*
X144269000Y-88440800D01*
X144419400Y-86842600D02*
X144419400Y-88290400D01*
X145110000Y-92735200D02*
X144419400Y-92044600D01*
X145110000Y-93533800D02*
X145110000Y-92735200D01*
X144419400Y-88290400D02*
X144419400Y-90805400D01*
X144419400Y-84505400D02*
X144419400Y-86842600D01*
X144419400Y-92044600D02*
X144419400Y-90805400D01*
X144269000Y-88440800D02*
X144419400Y-88290400D01*
%TD*%
%TA.AperFunction,Conductor*%
%TO.N,GND*%
G36*
X152140308Y-65663117D02*
G01*
X152522797Y-65679750D01*
X152533504Y-65680682D01*
X152910448Y-65730104D01*
X152921029Y-65731962D01*
X153292267Y-65813917D01*
X153302659Y-65816690D01*
X153580724Y-65903983D01*
X153665345Y-65930549D01*
X153675474Y-65934219D01*
X154026919Y-66079132D01*
X154036691Y-66083668D01*
X154374211Y-66258530D01*
X154383552Y-66263896D01*
X154704649Y-66467412D01*
X154713490Y-66473570D01*
X155015682Y-66704168D01*
X155023955Y-66711069D01*
X155305007Y-66967042D01*
X155312649Y-66974635D01*
X155570425Y-67254040D01*
X155577379Y-67262269D01*
X155809913Y-67562974D01*
X155816127Y-67571774D01*
X156021692Y-67891543D01*
X156027119Y-67900850D01*
X156204155Y-68237260D01*
X156208753Y-68247003D01*
X156355917Y-68597501D01*
X156359652Y-68607606D01*
X156476675Y-68972168D01*
X156478427Y-68978135D01*
X156988025Y-70890297D01*
X156986268Y-70960145D01*
X156947027Y-71017954D01*
X156882762Y-71045372D01*
X156813875Y-71033692D01*
X156804065Y-71028350D01*
X156673006Y-70949122D01*
X156510596Y-70898514D01*
X156510594Y-70898513D01*
X156510592Y-70898513D01*
X156461178Y-70894023D01*
X156440016Y-70892100D01*
X155776784Y-70892100D01*
X155757545Y-70893848D01*
X155706207Y-70898513D01*
X155543793Y-70949122D01*
X155398211Y-71037130D01*
X155277930Y-71157411D01*
X155189922Y-71302993D01*
X155139313Y-71465407D01*
X155132900Y-71535986D01*
X155132900Y-72049213D01*
X155139313Y-72119792D01*
X155139313Y-72119794D01*
X155139314Y-72119796D01*
X155178291Y-72244880D01*
X155189922Y-72282206D01*
X155251104Y-72383413D01*
X155268940Y-72450968D01*
X155247422Y-72517442D01*
X155193382Y-72561729D01*
X155153833Y-72571247D01*
X154894366Y-72589804D01*
X154614762Y-72650628D01*
X154346633Y-72750635D01*
X154095490Y-72887770D01*
X154095482Y-72887775D01*
X153866412Y-73059254D01*
X153866394Y-73059270D01*
X153664070Y-73261594D01*
X153664054Y-73261612D01*
X153492575Y-73490682D01*
X153492570Y-73490690D01*
X153355435Y-73741833D01*
X153255428Y-74009962D01*
X153194604Y-74289566D01*
X153174190Y-74574998D01*
X153174190Y-74575001D01*
X153194604Y-74860433D01*
X153255428Y-75140037D01*
X153255430Y-75140043D01*
X153255431Y-75140046D01*
X153329563Y-75338801D01*
X153355435Y-75408166D01*
X153492570Y-75659309D01*
X153492575Y-75659317D01*
X153664054Y-75888387D01*
X153664070Y-75888405D01*
X153866394Y-76090729D01*
X153866412Y-76090745D01*
X154095482Y-76262224D01*
X154095490Y-76262229D01*
X154346633Y-76399364D01*
X154346632Y-76399364D01*
X154346636Y-76399365D01*
X154346639Y-76399367D01*
X154614754Y-76499369D01*
X154614760Y-76499370D01*
X154614762Y-76499371D01*
X154894366Y-76560195D01*
X154894368Y-76560195D01*
X154894372Y-76560196D01*
X155148020Y-76578337D01*
X155179799Y-76580610D01*
X155179800Y-76580610D01*
X155179801Y-76580610D01*
X155208395Y-76578564D01*
X155465228Y-76560196D01*
X155516034Y-76549144D01*
X155744837Y-76499371D01*
X155744837Y-76499370D01*
X155744846Y-76499369D01*
X156012961Y-76399367D01*
X156264115Y-76262226D01*
X156493195Y-76090739D01*
X156695539Y-75888395D01*
X156807033Y-75739455D01*
X156862966Y-75697584D01*
X156932658Y-75692600D01*
X156993981Y-75726084D01*
X157027466Y-75787407D01*
X157030300Y-75813766D01*
X157030300Y-76254594D01*
X157010615Y-76321633D01*
X157003247Y-76331907D01*
X157002584Y-76332738D01*
X156906611Y-76485476D01*
X156847031Y-76655745D01*
X156847030Y-76655750D01*
X156826835Y-76834996D01*
X156826835Y-76835003D01*
X156847030Y-77014249D01*
X156847031Y-77014254D01*
X156906611Y-77184523D01*
X156957037Y-77264775D01*
X157002584Y-77337262D01*
X157130138Y-77464816D01*
X157282878Y-77560789D01*
X157453145Y-77620368D01*
X157453150Y-77620369D01*
X157632396Y-77640565D01*
X157632400Y-77640565D01*
X157632404Y-77640565D01*
X157811649Y-77620369D01*
X157811652Y-77620368D01*
X157811655Y-77620368D01*
X157981922Y-77560789D01*
X158134662Y-77464816D01*
X158262216Y-77337262D01*
X158326504Y-77234948D01*
X158378836Y-77188659D01*
X158447890Y-77178010D01*
X158511738Y-77206385D01*
X158550110Y-77264775D01*
X158552501Y-77273835D01*
X158985936Y-79210113D01*
X158986289Y-79211738D01*
X159431153Y-81332071D01*
X159425653Y-81401724D01*
X159383370Y-81457347D01*
X159317727Y-81481279D01*
X159295912Y-81480753D01*
X159156404Y-81465035D01*
X159156396Y-81465035D01*
X158977150Y-81485230D01*
X158977145Y-81485231D01*
X158806876Y-81544811D01*
X158654137Y-81640784D01*
X158526584Y-81768337D01*
X158497495Y-81814633D01*
X158445160Y-81860924D01*
X158376106Y-81871572D01*
X158312258Y-81843197D01*
X158304820Y-81836342D01*
X158185462Y-81716984D01*
X158032723Y-81621011D01*
X157862454Y-81561431D01*
X157862449Y-81561430D01*
X157683204Y-81541235D01*
X157683196Y-81541235D01*
X157503950Y-81561430D01*
X157503945Y-81561431D01*
X157333676Y-81621011D01*
X157180937Y-81716984D01*
X157053384Y-81844537D01*
X156957410Y-81997278D01*
X156897830Y-82167550D01*
X156887984Y-82254937D01*
X156860917Y-82319351D01*
X156852446Y-82328734D01*
X156691198Y-82489982D01*
X156629878Y-82523466D01*
X156603519Y-82526300D01*
X156310184Y-82526300D01*
X156290945Y-82528048D01*
X156239607Y-82532713D01*
X156077193Y-82583322D01*
X155931611Y-82671330D01*
X155811330Y-82791611D01*
X155723322Y-82937193D01*
X155672713Y-83099607D01*
X155666300Y-83170186D01*
X155666300Y-83683413D01*
X155672713Y-83753992D01*
X155723322Y-83916406D01*
X155811330Y-84061988D01*
X155931611Y-84182269D01*
X155931613Y-84182270D01*
X155931615Y-84182272D01*
X156077194Y-84270278D01*
X156239604Y-84320886D01*
X156310184Y-84327300D01*
X156310187Y-84327300D01*
X156973413Y-84327300D01*
X156973416Y-84327300D01*
X157043996Y-84320886D01*
X157206406Y-84270278D01*
X157351985Y-84182272D01*
X157472272Y-84061985D01*
X157509084Y-84001089D01*
X157560610Y-83953903D01*
X157629469Y-83942064D01*
X157693798Y-83969332D01*
X157728273Y-84014343D01*
X157729920Y-84018001D01*
X157729922Y-84018006D01*
X157812859Y-84155200D01*
X157817930Y-84163588D01*
X157938211Y-84283869D01*
X157938213Y-84283870D01*
X157938215Y-84283872D01*
X158083794Y-84371878D01*
X158246204Y-84422486D01*
X158316784Y-84428900D01*
X158316787Y-84428900D01*
X158980013Y-84428900D01*
X158980016Y-84428900D01*
X159050596Y-84422486D01*
X159213006Y-84371878D01*
X159358585Y-84283872D01*
X159478872Y-84163585D01*
X159566878Y-84018006D01*
X159617486Y-83855596D01*
X159623900Y-83785016D01*
X159623900Y-83561928D01*
X159643585Y-83494889D01*
X159696389Y-83449134D01*
X159765547Y-83439190D01*
X159829103Y-83468215D01*
X159866877Y-83526993D01*
X159869587Y-83538093D01*
X159931769Y-83855596D01*
X160033502Y-84375047D01*
X160033811Y-84376681D01*
X160505243Y-86967579D01*
X160505530Y-86969217D01*
X160942187Y-89566264D01*
X160942451Y-89567905D01*
X161344222Y-92170441D01*
X161344465Y-92172086D01*
X161711310Y-94779846D01*
X161711531Y-94781495D01*
X162043252Y-97392993D01*
X162043656Y-97396596D01*
X162126237Y-98244369D01*
X162126653Y-98249943D01*
X162170895Y-99099581D01*
X162171060Y-99105168D01*
X162176969Y-99955952D01*
X162176882Y-99961540D01*
X162144447Y-100811730D01*
X162144108Y-100817309D01*
X162073394Y-101665168D01*
X162072804Y-101670726D01*
X161963954Y-102514539D01*
X161963114Y-102520065D01*
X161816350Y-103358112D01*
X161815262Y-103363594D01*
X161630883Y-104194177D01*
X161629549Y-104199605D01*
X161407928Y-105021033D01*
X161406351Y-105026395D01*
X161147941Y-105837001D01*
X161146124Y-105842287D01*
X160851438Y-106640447D01*
X160849384Y-106645645D01*
X160519051Y-107429668D01*
X160516766Y-107434769D01*
X160151416Y-108203154D01*
X160148903Y-108208146D01*
X159749304Y-108959279D01*
X159746568Y-108964153D01*
X159313530Y-109696507D01*
X159310577Y-109701253D01*
X158844985Y-110413338D01*
X158841822Y-110417946D01*
X158344594Y-111108355D01*
X158341226Y-111112815D01*
X157813420Y-111780078D01*
X157809855Y-111784383D01*
X157252483Y-112427223D01*
X157248727Y-112431362D01*
X156662982Y-113048401D01*
X156659044Y-113052367D01*
X156046055Y-113642416D01*
X156041941Y-113646200D01*
X155403024Y-114207992D01*
X155398745Y-114211588D01*
X154735145Y-114744031D01*
X154730708Y-114747429D01*
X154043773Y-115249438D01*
X154039187Y-115252633D01*
X153330360Y-115723156D01*
X153325635Y-115726142D01*
X152596286Y-116164269D01*
X152591431Y-116167038D01*
X151843108Y-116571836D01*
X151838133Y-116574384D01*
X151072322Y-116945053D01*
X151067238Y-116947374D01*
X150285504Y-117283156D01*
X150280320Y-117285246D01*
X149484239Y-117585462D01*
X149478966Y-117587316D01*
X148670161Y-117851356D01*
X148664810Y-117852970D01*
X147844955Y-118080287D01*
X147839537Y-118081659D01*
X147010242Y-118271806D01*
X147004767Y-118272932D01*
X146167755Y-118425514D01*
X146162235Y-118426392D01*
X145319193Y-118541100D01*
X145313639Y-118541728D01*
X144466312Y-118618328D01*
X144460736Y-118618706D01*
X143610790Y-118657047D01*
X143605202Y-118657173D01*
X142754398Y-118657173D01*
X142748810Y-118657047D01*
X141898863Y-118618706D01*
X141893287Y-118618328D01*
X141045960Y-118541728D01*
X141040406Y-118541100D01*
X140197364Y-118426392D01*
X140191844Y-118425514D01*
X139354832Y-118272932D01*
X139349357Y-118271806D01*
X138520062Y-118081659D01*
X138514644Y-118080287D01*
X137694789Y-117852970D01*
X137689438Y-117851356D01*
X136880633Y-117587316D01*
X136875360Y-117585462D01*
X136079279Y-117285246D01*
X136074095Y-117283156D01*
X135292361Y-116947374D01*
X135287277Y-116945053D01*
X134521466Y-116574384D01*
X134516491Y-116571836D01*
X133768168Y-116167038D01*
X133763313Y-116164269D01*
X133033964Y-115726142D01*
X133029239Y-115723156D01*
X132320412Y-115252633D01*
X132315826Y-115249438D01*
X131628891Y-114747429D01*
X131624474Y-114744046D01*
X130960825Y-114211564D01*
X130956575Y-114207992D01*
X130331968Y-113658783D01*
X130317656Y-113646198D01*
X130313544Y-113642416D01*
X130281411Y-113611486D01*
X129700552Y-113052364D01*
X129696617Y-113048401D01*
X129575357Y-112920663D01*
X129231549Y-112558486D01*
X129110872Y-112431362D01*
X129107116Y-112427223D01*
X128549744Y-111784383D01*
X128546179Y-111780078D01*
X128458831Y-111669651D01*
X128018356Y-111112793D01*
X128015022Y-111108377D01*
X127517775Y-110417943D01*
X127514614Y-110413338D01*
X127185430Y-109909878D01*
X127049016Y-109701244D01*
X127046069Y-109696507D01*
X126962991Y-109556006D01*
X126613027Y-108964146D01*
X126610295Y-108959279D01*
X126579606Y-108901593D01*
X126210696Y-108208146D01*
X126208183Y-108203154D01*
X125842833Y-107434769D01*
X125840548Y-107429668D01*
X125510215Y-106645645D01*
X125508161Y-106640447D01*
X125456418Y-106500300D01*
X125213468Y-105842268D01*
X125211665Y-105837021D01*
X124953248Y-105026395D01*
X124951671Y-105021033D01*
X124857208Y-104670909D01*
X124730048Y-104199597D01*
X124728716Y-104194177D01*
X124669254Y-103926317D01*
X124544334Y-103363581D01*
X124543249Y-103358112D01*
X124542998Y-103356677D01*
X124396480Y-102520037D01*
X124395649Y-102514568D01*
X124286791Y-101670694D01*
X124286208Y-101665199D01*
X124215489Y-100817289D01*
X124215152Y-100811730D01*
X124214167Y-100785923D01*
X124182716Y-99961522D01*
X124182630Y-99955952D01*
X124182895Y-99917862D01*
X124188539Y-99105140D01*
X124188703Y-99099609D01*
X124197092Y-98938497D01*
X124898127Y-98938497D01*
X124898127Y-98938504D01*
X124918322Y-99117750D01*
X124918323Y-99117755D01*
X124977903Y-99288024D01*
X125058065Y-99415600D01*
X125073876Y-99440763D01*
X125201430Y-99568317D01*
X125261880Y-99606300D01*
X125315501Y-99639993D01*
X125354170Y-99664290D01*
X125456109Y-99699960D01*
X125524437Y-99723869D01*
X125524442Y-99723870D01*
X125703688Y-99744066D01*
X125703692Y-99744066D01*
X125703696Y-99744066D01*
X125882941Y-99723870D01*
X125882943Y-99723869D01*
X125882947Y-99723869D01*
X125882950Y-99723867D01*
X125882954Y-99723867D01*
X125951277Y-99699960D01*
X125992232Y-99693001D01*
X126498280Y-99693001D01*
X126511535Y-99693711D01*
X126539327Y-99696700D01*
X128135072Y-99696699D01*
X128194683Y-99690291D01*
X128329531Y-99639996D01*
X128444746Y-99553746D01*
X128530996Y-99438531D01*
X128581291Y-99303683D01*
X128587700Y-99244073D01*
X128587699Y-98498328D01*
X128581291Y-98438717D01*
X128580366Y-98436238D01*
X128530997Y-98303871D01*
X128530993Y-98303864D01*
X128444747Y-98188655D01*
X128444744Y-98188652D01*
X128329535Y-98102406D01*
X128329528Y-98102402D01*
X128194682Y-98052108D01*
X128194683Y-98052108D01*
X128135083Y-98045701D01*
X128135081Y-98045700D01*
X128135073Y-98045700D01*
X128135064Y-98045700D01*
X126539329Y-98045700D01*
X126539323Y-98045701D01*
X126479716Y-98052108D01*
X126344871Y-98102402D01*
X126344869Y-98102403D01*
X126268909Y-98159268D01*
X126203445Y-98183685D01*
X126194598Y-98184001D01*
X125992232Y-98184001D01*
X125951277Y-98177042D01*
X125882954Y-98153134D01*
X125882941Y-98153131D01*
X125703696Y-98132936D01*
X125703688Y-98132936D01*
X125524442Y-98153131D01*
X125524437Y-98153132D01*
X125354168Y-98212712D01*
X125201429Y-98308685D01*
X125073876Y-98436238D01*
X124977903Y-98588977D01*
X124918323Y-98759246D01*
X124918322Y-98759251D01*
X124898127Y-98938497D01*
X124197092Y-98938497D01*
X124232946Y-98249934D01*
X124233362Y-98244369D01*
X124238789Y-98188654D01*
X124315946Y-97396562D01*
X124316347Y-97392993D01*
X124316669Y-97390465D01*
X124353353Y-97101658D01*
X124381329Y-97037635D01*
X124439477Y-96998899D01*
X124509338Y-96997749D01*
X124564046Y-97029604D01*
X124678811Y-97144369D01*
X124678813Y-97144370D01*
X124678815Y-97144372D01*
X124824394Y-97232378D01*
X124986804Y-97282986D01*
X125057384Y-97289400D01*
X125057387Y-97289400D01*
X125720613Y-97289400D01*
X125720616Y-97289400D01*
X125791196Y-97282986D01*
X125953606Y-97232378D01*
X126099185Y-97144372D01*
X126153768Y-97089788D01*
X126215089Y-97056305D01*
X126284781Y-97061289D01*
X126315759Y-97078205D01*
X126344864Y-97099993D01*
X126344871Y-97099997D01*
X126479717Y-97150291D01*
X126479716Y-97150291D01*
X126486644Y-97151035D01*
X126539327Y-97156700D01*
X128135072Y-97156699D01*
X128194683Y-97150291D01*
X128329531Y-97099996D01*
X128444746Y-97013746D01*
X128530996Y-96898531D01*
X128581291Y-96763683D01*
X128587700Y-96704073D01*
X128587699Y-95958328D01*
X128581291Y-95898717D01*
X128572868Y-95876135D01*
X128530997Y-95763871D01*
X128530993Y-95763864D01*
X128444747Y-95648655D01*
X128444744Y-95648652D01*
X128329535Y-95562406D01*
X128329528Y-95562402D01*
X128194682Y-95512108D01*
X128194683Y-95512108D01*
X128135083Y-95505701D01*
X128135081Y-95505700D01*
X128135073Y-95505700D01*
X128135064Y-95505700D01*
X126539329Y-95505700D01*
X126539323Y-95505701D01*
X126479716Y-95512108D01*
X126344871Y-95562402D01*
X126344864Y-95562406D01*
X126248898Y-95634246D01*
X126183434Y-95658663D01*
X126115161Y-95643811D01*
X126101671Y-95634931D01*
X126097565Y-95632449D01*
X125953606Y-95545422D01*
X125791196Y-95494814D01*
X125791194Y-95494813D01*
X125791192Y-95494813D01*
X125741778Y-95490323D01*
X125720616Y-95488400D01*
X125057384Y-95488400D01*
X125038145Y-95490148D01*
X124986807Y-95494813D01*
X124931301Y-95512109D01*
X124860992Y-95534018D01*
X124824391Y-95545423D01*
X124747772Y-95591741D01*
X124680218Y-95609577D01*
X124613744Y-95588059D01*
X124569457Y-95534018D01*
X124560611Y-95470002D01*
X124648086Y-94781352D01*
X124648267Y-94779997D01*
X125015145Y-92172000D01*
X125015362Y-92170531D01*
X125186152Y-91064211D01*
X125215834Y-91000961D01*
X125275001Y-90963798D01*
X125344866Y-90964522D01*
X125403250Y-91002904D01*
X125431614Y-91066757D01*
X125432700Y-91083131D01*
X125432700Y-92086007D01*
X125456812Y-92207227D01*
X125456814Y-92207235D01*
X125483730Y-92272215D01*
X125504115Y-92321429D01*
X125504120Y-92321439D01*
X125555032Y-92397633D01*
X125555032Y-92397634D01*
X125572785Y-92424203D01*
X125572786Y-92424205D01*
X125572788Y-92424207D01*
X125572789Y-92424208D01*
X125648989Y-92500408D01*
X125700746Y-92552165D01*
X125736393Y-92587812D01*
X125839160Y-92656479D01*
X125839173Y-92656486D01*
X125920094Y-92690004D01*
X125953365Y-92703785D01*
X125953369Y-92703785D01*
X125953370Y-92703786D01*
X126074594Y-92727900D01*
X126074597Y-92727900D01*
X129371891Y-92727900D01*
X129438930Y-92747585D01*
X129459572Y-92764219D01*
X129463829Y-92768476D01*
X129463833Y-92768479D01*
X129463835Y-92768481D01*
X129605302Y-92852144D01*
X129646924Y-92864236D01*
X129763126Y-92897997D01*
X129763129Y-92897997D01*
X129763131Y-92897998D01*
X129800006Y-92900900D01*
X129800014Y-92900900D01*
X130956386Y-92900900D01*
X130956394Y-92900900D01*
X130993269Y-92897998D01*
X130993271Y-92897997D01*
X130993273Y-92897997D01*
X131041157Y-92884085D01*
X131151098Y-92852144D01*
X131292565Y-92768481D01*
X131408781Y-92652265D01*
X131408967Y-92651949D01*
X131409177Y-92651753D01*
X131413561Y-92646102D01*
X131414472Y-92646809D01*
X131460036Y-92604266D01*
X131528777Y-92591762D01*
X131593367Y-92618406D01*
X131617555Y-92646321D01*
X131617839Y-92646102D01*
X131621879Y-92651311D01*
X131622432Y-92651948D01*
X131622619Y-92652265D01*
X131622621Y-92652267D01*
X131622623Y-92652270D01*
X131738829Y-92768476D01*
X131738833Y-92768479D01*
X131738835Y-92768481D01*
X131880302Y-92852144D01*
X131921924Y-92864236D01*
X132038126Y-92897997D01*
X132038129Y-92897997D01*
X132038131Y-92897998D01*
X132075006Y-92900900D01*
X132075014Y-92900900D01*
X133231386Y-92900900D01*
X133231394Y-92900900D01*
X133268269Y-92897998D01*
X133268271Y-92897997D01*
X133268273Y-92897997D01*
X133316157Y-92884085D01*
X133426098Y-92852144D01*
X133567565Y-92768481D01*
X133683781Y-92652265D01*
X133767444Y-92510798D01*
X133813298Y-92352969D01*
X133816200Y-92316094D01*
X133816200Y-92316075D01*
X133816295Y-92313666D01*
X133816390Y-92313669D01*
X133816391Y-92313667D01*
X133816461Y-92313672D01*
X133817485Y-92313712D01*
X133835885Y-92251053D01*
X133888689Y-92205298D01*
X133942305Y-92196372D01*
X133942305Y-92194300D01*
X133948397Y-92194300D01*
X134072004Y-92194300D01*
X134088326Y-92194300D01*
X134155365Y-92213985D01*
X134176007Y-92230619D01*
X134247155Y-92301767D01*
X134247159Y-92301770D01*
X134391494Y-92390798D01*
X134391497Y-92390799D01*
X134391503Y-92390803D01*
X134552492Y-92444149D01*
X134651855Y-92454300D01*
X135248544Y-92454299D01*
X135248552Y-92454298D01*
X135248555Y-92454298D01*
X135302960Y-92448740D01*
X135347908Y-92444149D01*
X135508897Y-92390803D01*
X135653244Y-92301768D01*
X135653247Y-92301764D01*
X135658912Y-92297287D01*
X135660802Y-92299677D01*
X135710027Y-92272751D01*
X135779722Y-92277682D01*
X135824158Y-92306216D01*
X135840211Y-92322269D01*
X135840213Y-92322270D01*
X135840215Y-92322272D01*
X135985794Y-92410278D01*
X136148204Y-92460886D01*
X136218784Y-92467300D01*
X136600900Y-92467300D01*
X136667939Y-92486985D01*
X136713694Y-92539789D01*
X136724900Y-92591300D01*
X136724900Y-98341402D01*
X136705215Y-98408441D01*
X136652411Y-98454196D01*
X136587017Y-98464622D01*
X136525004Y-98457635D01*
X136524996Y-98457635D01*
X136345746Y-98477831D01*
X136345742Y-98477832D01*
X136308540Y-98490849D01*
X136238762Y-98494410D01*
X136179907Y-98461488D01*
X134024018Y-96305599D01*
X133990533Y-96244276D01*
X133987699Y-96217918D01*
X133987699Y-95958329D01*
X133987698Y-95958323D01*
X133987390Y-95955462D01*
X133981291Y-95898717D01*
X133981290Y-95898713D01*
X133930997Y-95763870D01*
X133926747Y-95756088D01*
X133929957Y-95754334D01*
X133911561Y-95705201D01*
X133926327Y-95636909D01*
X133926952Y-95635936D01*
X133930997Y-95628529D01*
X133955659Y-95562406D01*
X133981291Y-95493683D01*
X133987700Y-95434073D01*
X133987699Y-94688328D01*
X133981291Y-94628717D01*
X133945440Y-94532596D01*
X133930997Y-94493871D01*
X133930993Y-94493864D01*
X133844747Y-94378655D01*
X133844744Y-94378652D01*
X133729535Y-94292406D01*
X133729528Y-94292402D01*
X133594682Y-94242108D01*
X133594683Y-94242108D01*
X133535083Y-94235701D01*
X133535081Y-94235700D01*
X133535073Y-94235700D01*
X133535065Y-94235700D01*
X133391724Y-94235700D01*
X133324685Y-94216015D01*
X133288622Y-94180591D01*
X133224612Y-94084793D01*
X133181102Y-94041283D01*
X133137208Y-93997389D01*
X132978732Y-93838913D01*
X132810211Y-93670391D01*
X132810210Y-93670390D01*
X132787983Y-93655539D01*
X132787982Y-93655538D01*
X132707439Y-93601720D01*
X132707426Y-93601713D01*
X132647028Y-93576696D01*
X132593235Y-93554414D01*
X132593227Y-93554412D01*
X132472007Y-93530300D01*
X132472003Y-93530300D01*
X129522872Y-93530300D01*
X129456900Y-93511294D01*
X129330723Y-93432011D01*
X129160454Y-93372431D01*
X129160449Y-93372430D01*
X128981204Y-93352235D01*
X128981196Y-93352235D01*
X128801950Y-93372430D01*
X128801945Y-93372431D01*
X128631676Y-93432011D01*
X128478937Y-93527984D01*
X128351384Y-93655537D01*
X128255411Y-93808276D01*
X128195831Y-93978545D01*
X128195830Y-93978550D01*
X128175635Y-94157796D01*
X128175635Y-94157803D01*
X128195830Y-94337049D01*
X128195831Y-94337054D01*
X128255411Y-94507323D01*
X128331709Y-94628750D01*
X128351384Y-94660062D01*
X128478938Y-94787616D01*
X128565720Y-94842145D01*
X128590617Y-94857789D01*
X128631678Y-94883589D01*
X128705156Y-94909300D01*
X128801945Y-94943168D01*
X128801950Y-94943169D01*
X128981196Y-94963365D01*
X128981200Y-94963365D01*
X128981204Y-94963365D01*
X129160449Y-94943169D01*
X129160452Y-94943168D01*
X129160455Y-94943168D01*
X129330722Y-94883589D01*
X129456900Y-94804305D01*
X129522872Y-94785300D01*
X131362700Y-94785300D01*
X131429739Y-94804985D01*
X131475494Y-94857789D01*
X131486700Y-94909300D01*
X131486700Y-95434070D01*
X131486701Y-95434076D01*
X131493108Y-95493683D01*
X131543402Y-95628528D01*
X131547654Y-95636314D01*
X131544480Y-95638046D01*
X131562859Y-95687502D01*
X131547925Y-95755757D01*
X131547317Y-95756702D01*
X131543402Y-95763871D01*
X131493110Y-95898713D01*
X131493109Y-95898717D01*
X131486700Y-95958327D01*
X131486700Y-95958334D01*
X131486700Y-95958335D01*
X131486700Y-96704070D01*
X131486701Y-96704076D01*
X131493108Y-96763683D01*
X131543402Y-96898528D01*
X131547654Y-96906314D01*
X131544480Y-96908046D01*
X131562859Y-96957502D01*
X131547925Y-97025757D01*
X131547317Y-97026702D01*
X131543402Y-97033871D01*
X131493110Y-97168713D01*
X131493109Y-97168717D01*
X131486700Y-97228327D01*
X131486700Y-97228334D01*
X131486700Y-97228335D01*
X131486700Y-97974070D01*
X131486701Y-97974076D01*
X131493108Y-98033683D01*
X131543402Y-98168528D01*
X131547654Y-98176314D01*
X131544480Y-98178046D01*
X131562859Y-98227502D01*
X131547925Y-98295757D01*
X131547317Y-98296702D01*
X131543402Y-98303871D01*
X131494033Y-98436239D01*
X131493109Y-98438717D01*
X131486700Y-98498327D01*
X131486700Y-98498334D01*
X131486700Y-98498335D01*
X131486700Y-99244070D01*
X131486701Y-99244076D01*
X131493108Y-99303683D01*
X131543402Y-99438528D01*
X131543406Y-99438535D01*
X131629652Y-99553744D01*
X131629655Y-99553747D01*
X131744864Y-99639993D01*
X131744871Y-99639997D01*
X131879717Y-99690291D01*
X131879716Y-99690291D01*
X131886644Y-99691035D01*
X131939327Y-99696700D01*
X133173526Y-99696699D01*
X133240565Y-99716384D01*
X133286320Y-99769187D01*
X133296264Y-99838346D01*
X133267239Y-99901902D01*
X133261208Y-99908379D01*
X133212432Y-99957155D01*
X133212429Y-99957159D01*
X133123401Y-100101494D01*
X133123396Y-100101505D01*
X133070051Y-100262490D01*
X133059900Y-100361847D01*
X133059900Y-100958537D01*
X133059901Y-100958555D01*
X133070050Y-101057907D01*
X133070051Y-101057910D01*
X133123396Y-101218894D01*
X133123401Y-101218905D01*
X133212429Y-101363240D01*
X133212432Y-101363244D01*
X133332355Y-101483167D01*
X133332359Y-101483170D01*
X133476694Y-101572198D01*
X133476697Y-101572199D01*
X133476703Y-101572203D01*
X133637692Y-101625549D01*
X133737055Y-101635700D01*
X134283744Y-101635699D01*
X134283752Y-101635698D01*
X134283755Y-101635698D01*
X134338160Y-101630140D01*
X134383108Y-101625549D01*
X134544097Y-101572203D01*
X134688444Y-101483168D01*
X134688446Y-101483165D01*
X134693954Y-101478810D01*
X134758746Y-101452663D01*
X134784759Y-101452848D01*
X134899397Y-101465765D01*
X134899400Y-101465765D01*
X134899404Y-101465765D01*
X135078649Y-101445569D01*
X135078650Y-101445568D01*
X135078655Y-101445568D01*
X135184033Y-101408693D01*
X135253810Y-101405131D01*
X135261857Y-101407343D01*
X135322004Y-101426086D01*
X135392584Y-101432500D01*
X135392587Y-101432500D01*
X135905813Y-101432500D01*
X135905816Y-101432500D01*
X135976396Y-101426086D01*
X136138806Y-101375478D01*
X136284385Y-101287472D01*
X136320065Y-101251792D01*
X136386519Y-101185339D01*
X136447842Y-101151854D01*
X136517534Y-101156838D01*
X136561881Y-101185339D01*
X136664011Y-101287469D01*
X136664013Y-101287470D01*
X136664015Y-101287472D01*
X136809594Y-101375478D01*
X136972004Y-101426086D01*
X137042584Y-101432500D01*
X137335919Y-101432500D01*
X137402958Y-101452185D01*
X137423600Y-101468819D01*
X137648836Y-101694055D01*
X137682321Y-101755378D01*
X137677337Y-101825070D01*
X137667273Y-101845885D01*
X137650522Y-101873594D01*
X137599913Y-102036007D01*
X137593500Y-102106586D01*
X137593500Y-102769813D01*
X137599913Y-102840392D01*
X137599913Y-102840394D01*
X137599914Y-102840396D01*
X137650522Y-103002806D01*
X137736792Y-103145514D01*
X137738530Y-103148388D01*
X137778361Y-103188219D01*
X137811846Y-103249542D01*
X137806862Y-103319234D01*
X137778361Y-103363581D01*
X137755681Y-103386261D01*
X137694358Y-103419746D01*
X137624666Y-103414762D01*
X137580319Y-103386261D01*
X137478188Y-103284130D01*
X137470499Y-103279482D01*
X137332606Y-103196122D01*
X137170196Y-103145514D01*
X137170194Y-103145513D01*
X137170192Y-103145513D01*
X137120778Y-103141023D01*
X137099616Y-103139100D01*
X136586384Y-103139100D01*
X136567145Y-103140848D01*
X136515807Y-103145513D01*
X136353393Y-103196122D01*
X136207811Y-103284130D01*
X136087531Y-103404410D01*
X136087528Y-103404414D01*
X136073723Y-103427251D01*
X136022195Y-103474438D01*
X135967607Y-103487100D01*
X135815700Y-103487100D01*
X135748661Y-103467415D01*
X135702906Y-103414611D01*
X135691700Y-103363100D01*
X135691699Y-102428929D01*
X135691698Y-102428923D01*
X135691697Y-102428916D01*
X135685291Y-102369317D01*
X135634996Y-102234469D01*
X135634995Y-102234468D01*
X135634993Y-102234464D01*
X135548747Y-102119255D01*
X135548744Y-102119252D01*
X135433535Y-102033006D01*
X135433528Y-102033002D01*
X135298682Y-101982708D01*
X135298683Y-101982708D01*
X135239083Y-101976301D01*
X135239081Y-101976300D01*
X135239073Y-101976300D01*
X135239064Y-101976300D01*
X134143329Y-101976300D01*
X134143323Y-101976301D01*
X134083716Y-101982708D01*
X133948871Y-102033002D01*
X133948864Y-102033006D01*
X133833655Y-102119252D01*
X133833652Y-102119255D01*
X133747406Y-102234464D01*
X133747402Y-102234471D01*
X133697108Y-102369317D01*
X133690701Y-102428916D01*
X133690701Y-102428923D01*
X133690700Y-102428935D01*
X133690700Y-104224670D01*
X133690701Y-104224676D01*
X133697108Y-104284283D01*
X133747402Y-104419128D01*
X133747406Y-104419135D01*
X133833652Y-104534344D01*
X133833655Y-104534347D01*
X133948864Y-104620593D01*
X133948869Y-104620596D01*
X133983032Y-104633338D01*
X134038966Y-104675208D01*
X134063384Y-104740671D01*
X134063700Y-104749520D01*
X134063700Y-106500300D01*
X134044015Y-106567339D01*
X133991211Y-106613094D01*
X133939700Y-106624300D01*
X129878766Y-106624300D01*
X129811727Y-106604615D01*
X129781501Y-106577212D01*
X129778768Y-106573756D01*
X129658844Y-106453832D01*
X129658840Y-106453829D01*
X129514505Y-106364801D01*
X129514499Y-106364798D01*
X129514497Y-106364797D01*
X129514494Y-106364796D01*
X129353509Y-106311451D01*
X129254146Y-106301300D01*
X128657462Y-106301300D01*
X128657444Y-106301301D01*
X128558092Y-106311450D01*
X128558089Y-106311451D01*
X128397105Y-106364796D01*
X128397094Y-106364801D01*
X128252759Y-106453829D01*
X128252755Y-106453832D01*
X128132832Y-106573755D01*
X128132829Y-106573759D01*
X128043801Y-106718094D01*
X128043796Y-106718105D01*
X127990451Y-106879090D01*
X127980300Y-106978447D01*
X127980300Y-107525137D01*
X127980301Y-107525155D01*
X127990450Y-107624507D01*
X127990451Y-107624510D01*
X128043796Y-107785494D01*
X128043801Y-107785505D01*
X128132829Y-107929840D01*
X128132832Y-107929844D01*
X128252755Y-108049767D01*
X128252759Y-108049770D01*
X128397094Y-108138798D01*
X128397097Y-108138799D01*
X128397103Y-108138803D01*
X128558092Y-108192149D01*
X128657455Y-108202300D01*
X129254144Y-108202299D01*
X129254152Y-108202298D01*
X129254155Y-108202298D01*
X129308560Y-108196740D01*
X129353508Y-108192149D01*
X129514497Y-108138803D01*
X129658844Y-108049768D01*
X129778768Y-107929844D01*
X129778770Y-107929839D01*
X129781501Y-107926388D01*
X129838523Y-107886012D01*
X129878766Y-107879300D01*
X133939700Y-107879300D01*
X134006739Y-107898985D01*
X134052494Y-107951789D01*
X134063700Y-108003300D01*
X134063700Y-108204079D01*
X134044015Y-108271118D01*
X133991211Y-108316873D01*
X133983036Y-108320260D01*
X133948865Y-108333005D01*
X133833655Y-108419252D01*
X133833654Y-108419254D01*
X133747406Y-108534464D01*
X133747402Y-108534471D01*
X133697108Y-108669317D01*
X133690701Y-108728916D01*
X133690701Y-108728923D01*
X133690700Y-108728935D01*
X133690700Y-110524670D01*
X133690701Y-110524676D01*
X133697108Y-110584283D01*
X133747402Y-110719128D01*
X133747406Y-110719135D01*
X133833652Y-110834344D01*
X133833655Y-110834347D01*
X133948864Y-110920593D01*
X133948871Y-110920597D01*
X134083717Y-110970891D01*
X134083716Y-110970891D01*
X134090644Y-110971635D01*
X134143327Y-110977300D01*
X135239072Y-110977299D01*
X135298683Y-110970891D01*
X135433531Y-110920596D01*
X135548746Y-110834346D01*
X135634996Y-110719131D01*
X135685291Y-110584283D01*
X135691700Y-110524673D01*
X135691699Y-108728928D01*
X135685291Y-108669317D01*
X135681736Y-108659786D01*
X135634997Y-108534471D01*
X135634993Y-108534464D01*
X135548746Y-108419254D01*
X135548744Y-108419252D01*
X135433534Y-108333005D01*
X135399364Y-108320260D01*
X135343431Y-108278387D01*
X135319016Y-108212922D01*
X135318700Y-108204079D01*
X135318700Y-104866100D01*
X135338385Y-104799061D01*
X135391189Y-104753306D01*
X135442700Y-104742100D01*
X135967607Y-104742100D01*
X136034646Y-104761785D01*
X136073723Y-104801949D01*
X136087528Y-104824785D01*
X136087531Y-104824789D01*
X136207811Y-104945069D01*
X136207813Y-104945070D01*
X136207815Y-104945072D01*
X136353394Y-105033078D01*
X136515804Y-105083686D01*
X136586384Y-105090100D01*
X136586387Y-105090100D01*
X137099599Y-105090100D01*
X137099616Y-105090100D01*
X137099633Y-105090098D01*
X137101290Y-105090023D01*
X137101604Y-105090100D01*
X137102426Y-105090100D01*
X137102426Y-105090301D01*
X137126031Y-105096080D01*
X137127706Y-105095840D01*
X137130777Y-105097242D01*
X137169155Y-105106639D01*
X137186028Y-105122474D01*
X137191262Y-105124865D01*
X137204197Y-105139527D01*
X137210029Y-105145000D01*
X137213159Y-105149684D01*
X137213158Y-105149684D01*
X137213160Y-105149686D01*
X137256483Y-105214524D01*
X137278590Y-105247610D01*
X137572788Y-105541808D01*
X137572792Y-105541811D01*
X137675560Y-105610479D01*
X137675573Y-105610486D01*
X137789760Y-105657783D01*
X137789765Y-105657785D01*
X137789769Y-105657785D01*
X137789770Y-105657786D01*
X137910993Y-105681900D01*
X137910996Y-105681900D01*
X139634804Y-105681900D01*
X139634805Y-105681899D01*
X139756035Y-105657786D01*
X139836784Y-105624337D01*
X139870233Y-105610483D01*
X139973008Y-105541811D01*
X140060411Y-105454408D01*
X140810425Y-104704392D01*
X140871746Y-104670909D01*
X140941437Y-104675893D01*
X140997369Y-104717763D01*
X141052454Y-104791346D01*
X141062760Y-104799061D01*
X141167664Y-104877593D01*
X141167671Y-104877597D01*
X141189995Y-104885923D01*
X141302517Y-104927891D01*
X141362127Y-104934300D01*
X141885500Y-104934299D01*
X141952539Y-104953983D01*
X141998294Y-105006787D01*
X142009500Y-105058299D01*
X142009500Y-105781670D01*
X142009501Y-105781676D01*
X142015908Y-105841283D01*
X142066202Y-105976128D01*
X142066206Y-105976135D01*
X142152452Y-106091344D01*
X142152455Y-106091347D01*
X142267664Y-106177593D01*
X142267671Y-106177597D01*
X142309999Y-106193384D01*
X142402517Y-106227891D01*
X142462127Y-106234300D01*
X142758501Y-106234299D01*
X142825539Y-106253983D01*
X142871294Y-106306787D01*
X142882500Y-106358299D01*
X142882500Y-106949018D01*
X142877156Y-106985027D01*
X142875479Y-106990553D01*
X142871384Y-107001996D01*
X142826416Y-107110558D01*
X142826412Y-107110572D01*
X142803095Y-107227798D01*
X142803094Y-107227806D01*
X142802300Y-107231792D01*
X142802300Y-109212500D01*
X142782615Y-109279539D01*
X142729811Y-109325294D01*
X142660653Y-109335238D01*
X142597097Y-109306213D01*
X142559323Y-109247435D01*
X142556683Y-109236692D01*
X142533186Y-109118570D01*
X142533185Y-109118569D01*
X142533185Y-109118565D01*
X142533183Y-109118560D01*
X142485886Y-109004373D01*
X142485879Y-109004360D01*
X142417212Y-108901593D01*
X142417211Y-108901592D01*
X142329808Y-108814189D01*
X142175403Y-108659784D01*
X142019611Y-108503991D01*
X142019603Y-108503985D01*
X141916843Y-108435323D01*
X141916829Y-108435315D01*
X141878053Y-108419254D01*
X141878050Y-108419251D01*
X141805820Y-108389332D01*
X141751417Y-108345491D01*
X141747157Y-108338922D01*
X141743580Y-108333005D01*
X141712272Y-108281215D01*
X141712270Y-108281213D01*
X141712269Y-108281211D01*
X141591988Y-108160930D01*
X141555377Y-108138798D01*
X141446406Y-108072922D01*
X141283996Y-108022314D01*
X141283994Y-108022313D01*
X141283992Y-108022313D01*
X141234578Y-108017823D01*
X141213416Y-108015900D01*
X140700184Y-108015900D01*
X140680945Y-108017648D01*
X140629607Y-108022313D01*
X140467193Y-108072922D01*
X140321611Y-108160930D01*
X140201330Y-108281211D01*
X140113322Y-108426793D01*
X140062713Y-108589207D01*
X140056300Y-108659786D01*
X140056300Y-109323013D01*
X140062713Y-109393592D01*
X140113322Y-109556006D01*
X140201330Y-109701588D01*
X140201331Y-109701589D01*
X140249950Y-109750207D01*
X140283436Y-109811530D01*
X140278452Y-109881221D01*
X140249952Y-109925570D01*
X140162383Y-110013139D01*
X140066411Y-110165876D01*
X140006831Y-110336145D01*
X140006830Y-110336150D01*
X139986635Y-110515396D01*
X139986635Y-110515403D01*
X140006830Y-110694646D01*
X140006832Y-110694656D01*
X140018341Y-110727545D01*
X140025300Y-110768500D01*
X140025300Y-111374241D01*
X140020376Y-111408836D01*
X139982202Y-111540226D01*
X139982201Y-111540232D01*
X139979300Y-111577098D01*
X139979300Y-112558501D01*
X139980764Y-112577098D01*
X139966399Y-112645475D01*
X139941002Y-112675358D01*
X139942182Y-112676538D01*
X139829285Y-112789435D01*
X139753519Y-112920663D01*
X139719293Y-113048401D01*
X139714300Y-113067034D01*
X139714300Y-113218566D01*
X139714301Y-113218568D01*
X139753519Y-113364936D01*
X139791402Y-113430550D01*
X139829285Y-113496165D01*
X139936435Y-113603315D01*
X140067665Y-113679081D01*
X140214034Y-113718300D01*
X140214036Y-113718300D01*
X140365564Y-113718300D01*
X140365566Y-113718300D01*
X140511935Y-113679081D01*
X140643165Y-113603315D01*
X140750315Y-113496165D01*
X140826081Y-113364935D01*
X140860841Y-113235206D01*
X140897206Y-113175546D01*
X140960053Y-113145017D01*
X140980616Y-113143300D01*
X140995486Y-113143300D01*
X140995494Y-113143300D01*
X141032369Y-113140398D01*
X141108662Y-113118232D01*
X141178528Y-113118431D01*
X141190698Y-113122743D01*
X141204564Y-113128487D01*
X141317080Y-113143300D01*
X141317087Y-113143300D01*
X141542513Y-113143300D01*
X141542520Y-113143300D01*
X141655036Y-113128487D01*
X141655036Y-113128486D01*
X141663095Y-113127426D01*
X141663498Y-113130489D01*
X141696102Y-113130489D01*
X141696505Y-113127426D01*
X141704563Y-113128486D01*
X141704564Y-113128487D01*
X141817080Y-113143300D01*
X141817087Y-113143300D01*
X142042513Y-113143300D01*
X142042520Y-113143300D01*
X142155036Y-113128487D01*
X142155036Y-113128486D01*
X142163095Y-113127426D01*
X142163498Y-113130489D01*
X142196102Y-113130489D01*
X142196505Y-113127426D01*
X142204563Y-113128486D01*
X142204564Y-113128487D01*
X142257053Y-113135397D01*
X142320949Y-113163663D01*
X142355428Y-113210881D01*
X142358611Y-113218565D01*
X142358612Y-113218567D01*
X142373713Y-113255026D01*
X142373717Y-113255033D01*
X142438926Y-113352625D01*
X142438929Y-113352634D01*
X142438932Y-113352633D01*
X142442389Y-113357808D01*
X142627388Y-113542808D01*
X142627392Y-113542811D01*
X142730160Y-113611479D01*
X142730173Y-113611486D01*
X142844360Y-113658783D01*
X142844365Y-113658785D01*
X142844369Y-113658785D01*
X142844370Y-113658786D01*
X142965594Y-113682900D01*
X142965597Y-113682900D01*
X143927404Y-113682900D01*
X143927405Y-113682899D01*
X144048635Y-113658786D01*
X144145409Y-113618700D01*
X144162833Y-113611483D01*
X144265608Y-113542811D01*
X144353011Y-113455408D01*
X144417211Y-113391208D01*
X144442986Y-113352633D01*
X144485883Y-113288433D01*
X144514823Y-113218566D01*
X144518802Y-113208958D01*
X144562642Y-113154555D01*
X144617179Y-113133471D01*
X144663095Y-113127426D01*
X144663498Y-113130489D01*
X144696102Y-113130489D01*
X144696505Y-113127426D01*
X144704563Y-113128486D01*
X144704564Y-113128487D01*
X144817080Y-113143300D01*
X144817087Y-113143300D01*
X145042513Y-113143300D01*
X145042520Y-113143300D01*
X145155036Y-113128487D01*
X145168886Y-113122749D01*
X145238353Y-113115277D01*
X145250920Y-113118227D01*
X145327231Y-113140398D01*
X145364106Y-113143300D01*
X145378984Y-113143300D01*
X145446023Y-113162985D01*
X145491778Y-113215789D01*
X145498759Y-113235207D01*
X145533519Y-113364936D01*
X145571402Y-113430550D01*
X145609285Y-113496165D01*
X145716435Y-113603315D01*
X145847665Y-113679081D01*
X145994034Y-113718300D01*
X145994036Y-113718300D01*
X146145564Y-113718300D01*
X146145566Y-113718300D01*
X146291935Y-113679081D01*
X146423165Y-113603315D01*
X146530315Y-113496165D01*
X146606081Y-113364935D01*
X146645300Y-113218566D01*
X146645300Y-113067034D01*
X146606081Y-112920665D01*
X146530315Y-112789435D01*
X146423165Y-112682285D01*
X146423164Y-112682284D01*
X146417418Y-112676538D01*
X146419280Y-112674675D01*
X146385765Y-112628777D01*
X146378836Y-112577092D01*
X146380300Y-112558494D01*
X146380300Y-111577106D01*
X146377398Y-111540231D01*
X146339224Y-111408836D01*
X146334300Y-111374241D01*
X146334300Y-110768500D01*
X146341259Y-110727545D01*
X146344204Y-110719128D01*
X146352768Y-110694655D01*
X146371920Y-110524676D01*
X146372965Y-110515403D01*
X146372965Y-110515396D01*
X146352769Y-110336150D01*
X146352768Y-110336145D01*
X146293188Y-110165876D01*
X146282246Y-110148462D01*
X146263246Y-110081226D01*
X146283614Y-110014390D01*
X146336881Y-109969176D01*
X146363053Y-109960872D01*
X146364986Y-109960486D01*
X146364996Y-109960486D01*
X146527406Y-109909878D01*
X146672985Y-109821872D01*
X146793272Y-109701585D01*
X146881278Y-109556006D01*
X146931886Y-109393596D01*
X146938300Y-109323016D01*
X146938300Y-108659784D01*
X146931886Y-108589204D01*
X146881278Y-108426794D01*
X146793272Y-108281215D01*
X146793270Y-108281213D01*
X146793269Y-108281211D01*
X146672988Y-108160930D01*
X146636377Y-108138798D01*
X146527406Y-108072922D01*
X146364996Y-108022314D01*
X146364994Y-108022313D01*
X146364992Y-108022313D01*
X146315578Y-108017823D01*
X146294416Y-108015900D01*
X145781184Y-108015900D01*
X145761945Y-108017648D01*
X145710607Y-108022313D01*
X145548193Y-108072922D01*
X145402611Y-108160930D01*
X145282330Y-108281211D01*
X145234078Y-108361028D01*
X145182549Y-108408214D01*
X145175417Y-108411436D01*
X145117772Y-108435314D01*
X145117760Y-108435320D01*
X145014992Y-108503988D01*
X145014988Y-108503991D01*
X144768981Y-108749999D01*
X144707658Y-108783484D01*
X144637966Y-108778500D01*
X144582033Y-108736628D01*
X144557616Y-108671164D01*
X144557300Y-108662318D01*
X144557300Y-108044681D01*
X144576985Y-107977642D01*
X144593619Y-107957000D01*
X144671319Y-107879300D01*
X144797411Y-107753208D01*
X144806763Y-107739211D01*
X144866083Y-107650433D01*
X144881419Y-107613408D01*
X144913386Y-107536235D01*
X144937500Y-107415003D01*
X144937500Y-107291397D01*
X144937500Y-106358299D01*
X144957185Y-106291260D01*
X145009989Y-106245505D01*
X145061500Y-106234299D01*
X145357871Y-106234299D01*
X145357872Y-106234299D01*
X145417483Y-106227891D01*
X145466665Y-106209546D01*
X145536355Y-106204561D01*
X145553333Y-106209547D01*
X145602508Y-106227888D01*
X145602511Y-106227889D01*
X145602517Y-106227891D01*
X145662127Y-106234300D01*
X146157872Y-106234299D01*
X146217483Y-106227891D01*
X146266665Y-106209546D01*
X146336355Y-106204561D01*
X146353333Y-106209547D01*
X146402508Y-106227888D01*
X146402511Y-106227889D01*
X146402517Y-106227891D01*
X146462127Y-106234300D01*
X146957872Y-106234299D01*
X147017483Y-106227891D01*
X147066665Y-106209546D01*
X147136355Y-106204561D01*
X147153333Y-106209547D01*
X147202508Y-106227888D01*
X147202511Y-106227889D01*
X147202517Y-106227891D01*
X147262127Y-106234300D01*
X147757872Y-106234299D01*
X147817483Y-106227891D01*
X147866665Y-106209546D01*
X147936355Y-106204561D01*
X147953333Y-106209547D01*
X148002508Y-106227888D01*
X148002511Y-106227889D01*
X148002517Y-106227891D01*
X148062127Y-106234300D01*
X148557872Y-106234299D01*
X148617483Y-106227891D01*
X148666665Y-106209546D01*
X148736355Y-106204561D01*
X148753333Y-106209547D01*
X148802508Y-106227888D01*
X148802511Y-106227889D01*
X148802517Y-106227891D01*
X148862127Y-106234300D01*
X149357872Y-106234299D01*
X149417483Y-106227891D01*
X149466665Y-106209546D01*
X149536355Y-106204561D01*
X149553333Y-106209547D01*
X149602508Y-106227888D01*
X149602511Y-106227889D01*
X149602517Y-106227891D01*
X149662127Y-106234300D01*
X150157872Y-106234299D01*
X150217483Y-106227891D01*
X150266665Y-106209546D01*
X150336355Y-106204561D01*
X150353333Y-106209547D01*
X150402508Y-106227888D01*
X150402511Y-106227889D01*
X150402517Y-106227891D01*
X150462127Y-106234300D01*
X150957872Y-106234299D01*
X151017483Y-106227891D01*
X151152331Y-106177596D01*
X151267546Y-106091346D01*
X151310625Y-106033800D01*
X152310000Y-106033800D01*
X157710000Y-106033800D01*
X157710000Y-92833800D01*
X152310000Y-92833800D01*
X152310000Y-106033800D01*
X151310625Y-106033800D01*
X151353796Y-105976131D01*
X151404091Y-105841283D01*
X151410500Y-105781673D01*
X151410499Y-104885928D01*
X151404091Y-104826317D01*
X151395002Y-104801949D01*
X151353797Y-104691471D01*
X151353793Y-104691464D01*
X151267547Y-104576255D01*
X151267544Y-104576252D01*
X151152335Y-104490006D01*
X151152328Y-104490002D01*
X151017486Y-104439710D01*
X151017485Y-104439709D01*
X151017483Y-104439709D01*
X150957873Y-104433300D01*
X150957863Y-104433300D01*
X150462129Y-104433300D01*
X150462123Y-104433301D01*
X150402516Y-104439708D01*
X150353332Y-104458053D01*
X150283640Y-104463037D01*
X150266667Y-104458053D01*
X150217486Y-104439710D01*
X150217485Y-104439709D01*
X150217483Y-104439709D01*
X150157873Y-104433300D01*
X150157863Y-104433300D01*
X149662129Y-104433300D01*
X149662123Y-104433301D01*
X149602516Y-104439708D01*
X149553332Y-104458053D01*
X149483640Y-104463037D01*
X149466667Y-104458053D01*
X149417486Y-104439710D01*
X149417485Y-104439709D01*
X149417483Y-104439709D01*
X149357873Y-104433300D01*
X149357863Y-104433300D01*
X148862129Y-104433300D01*
X148862123Y-104433301D01*
X148802516Y-104439708D01*
X148753332Y-104458053D01*
X148683640Y-104463037D01*
X148666667Y-104458053D01*
X148617486Y-104439710D01*
X148617485Y-104439709D01*
X148617483Y-104439709D01*
X148557873Y-104433300D01*
X148557863Y-104433300D01*
X148062129Y-104433300D01*
X148062123Y-104433301D01*
X148002516Y-104439708D01*
X147953332Y-104458053D01*
X147883640Y-104463037D01*
X147866667Y-104458053D01*
X147817486Y-104439710D01*
X147817485Y-104439709D01*
X147817483Y-104439709D01*
X147757873Y-104433300D01*
X147757863Y-104433300D01*
X147262129Y-104433300D01*
X147262123Y-104433301D01*
X147202516Y-104439708D01*
X147153332Y-104458053D01*
X147083640Y-104463037D01*
X147066667Y-104458053D01*
X147017486Y-104439710D01*
X147017485Y-104439709D01*
X147017483Y-104439709D01*
X146957873Y-104433300D01*
X146957863Y-104433300D01*
X146462129Y-104433300D01*
X146462123Y-104433301D01*
X146402516Y-104439708D01*
X146353332Y-104458053D01*
X146283640Y-104463037D01*
X146266667Y-104458053D01*
X146217486Y-104439710D01*
X146217485Y-104439709D01*
X146217483Y-104439709D01*
X146157873Y-104433300D01*
X146157863Y-104433300D01*
X145662129Y-104433300D01*
X145662123Y-104433301D01*
X145602516Y-104439708D01*
X145553332Y-104458053D01*
X145483640Y-104463037D01*
X145466667Y-104458053D01*
X145417486Y-104439710D01*
X145417485Y-104439709D01*
X145417483Y-104439709D01*
X145357873Y-104433300D01*
X145357863Y-104433300D01*
X144862129Y-104433300D01*
X144862123Y-104433301D01*
X144802516Y-104439708D01*
X144753332Y-104458053D01*
X144683640Y-104463037D01*
X144666667Y-104458053D01*
X144617486Y-104439710D01*
X144617485Y-104439709D01*
X144617483Y-104439709D01*
X144557873Y-104433300D01*
X144557863Y-104433300D01*
X144062129Y-104433300D01*
X144062123Y-104433301D01*
X144002516Y-104439708D01*
X143953332Y-104458053D01*
X143883640Y-104463037D01*
X143866667Y-104458053D01*
X143817486Y-104439710D01*
X143817485Y-104439709D01*
X143817483Y-104439709D01*
X143757873Y-104433300D01*
X143757863Y-104433300D01*
X143262129Y-104433300D01*
X143262123Y-104433301D01*
X143202516Y-104439708D01*
X143153332Y-104458053D01*
X143083640Y-104463037D01*
X143066667Y-104458053D01*
X143017482Y-104439708D01*
X143017483Y-104439708D01*
X142957883Y-104433301D01*
X142957881Y-104433300D01*
X142957873Y-104433300D01*
X142957865Y-104433300D01*
X142834499Y-104433300D01*
X142767460Y-104413615D01*
X142721705Y-104360811D01*
X142710499Y-104309300D01*
X142710499Y-103985929D01*
X142710498Y-103985923D01*
X142704091Y-103926317D01*
X142685747Y-103877134D01*
X142680762Y-103807443D01*
X142685747Y-103790465D01*
X142704089Y-103741288D01*
X142704088Y-103741288D01*
X142704091Y-103741283D01*
X142710500Y-103681673D01*
X142710499Y-103185928D01*
X142704091Y-103126317D01*
X142685747Y-103077134D01*
X142680762Y-103007443D01*
X142685747Y-102990465D01*
X142704091Y-102941283D01*
X142710500Y-102881673D01*
X142710499Y-102385928D01*
X142704091Y-102326317D01*
X142685747Y-102277134D01*
X142680762Y-102207443D01*
X142685747Y-102190465D01*
X142704089Y-102141288D01*
X142704088Y-102141288D01*
X142704091Y-102141283D01*
X142710500Y-102081673D01*
X142710499Y-101585928D01*
X142704091Y-101526317D01*
X142687998Y-101483169D01*
X142685747Y-101477134D01*
X142680762Y-101407443D01*
X142685747Y-101390465D01*
X142704089Y-101341288D01*
X142704088Y-101341288D01*
X142704091Y-101341283D01*
X142710500Y-101281673D01*
X142710499Y-100785928D01*
X142704091Y-100726317D01*
X142685747Y-100677134D01*
X142680762Y-100607443D01*
X142685747Y-100590465D01*
X142704089Y-100541288D01*
X142704088Y-100541288D01*
X142704091Y-100541283D01*
X142710500Y-100481673D01*
X142710499Y-100324755D01*
X142730183Y-100257717D01*
X142782987Y-100211962D01*
X142820618Y-100201535D01*
X142825655Y-100200968D01*
X142995922Y-100141389D01*
X143148662Y-100045416D01*
X143276216Y-99917862D01*
X143372189Y-99765122D01*
X143431768Y-99594855D01*
X143431769Y-99594849D01*
X143451965Y-99415603D01*
X143451965Y-99415596D01*
X143431769Y-99236350D01*
X143431768Y-99236345D01*
X143405538Y-99161383D01*
X143372189Y-99066078D01*
X143276216Y-98913338D01*
X143148662Y-98785784D01*
X143027098Y-98709400D01*
X142995921Y-98689810D01*
X142825650Y-98630230D01*
X142820611Y-98629663D01*
X142756198Y-98602594D01*
X142716645Y-98544997D01*
X142710499Y-98506443D01*
X142710499Y-98385929D01*
X142710498Y-98385923D01*
X142704091Y-98326317D01*
X142695719Y-98303871D01*
X142685747Y-98277134D01*
X142680762Y-98207443D01*
X142685747Y-98190465D01*
X142686422Y-98188655D01*
X142704091Y-98141283D01*
X142710500Y-98081673D01*
X142710499Y-97585928D01*
X142704091Y-97526317D01*
X142685747Y-97477134D01*
X142680762Y-97407443D01*
X142685747Y-97390465D01*
X142704089Y-97341288D01*
X142704088Y-97341288D01*
X142704091Y-97341283D01*
X142710500Y-97281673D01*
X142710499Y-96785928D01*
X142704091Y-96726317D01*
X142695794Y-96704072D01*
X142653797Y-96591471D01*
X142653793Y-96591464D01*
X142567547Y-96476255D01*
X142567543Y-96476252D01*
X142559058Y-96469900D01*
X142517188Y-96413969D01*
X142512202Y-96344277D01*
X142545687Y-96282954D01*
X142607009Y-96249468D01*
X142647252Y-96247414D01*
X142747996Y-96258765D01*
X142748000Y-96258765D01*
X142748004Y-96258765D01*
X142927249Y-96238569D01*
X142927252Y-96238568D01*
X142927255Y-96238568D01*
X143097522Y-96178989D01*
X143250262Y-96083016D01*
X143377816Y-95955462D01*
X143473789Y-95802722D01*
X143533368Y-95632455D01*
X143533810Y-95628531D01*
X143553565Y-95453203D01*
X143553565Y-95453196D01*
X143533369Y-95273950D01*
X143533368Y-95273945D01*
X143473788Y-95103676D01*
X143377815Y-94950937D01*
X143250262Y-94823384D01*
X143097523Y-94727411D01*
X142927254Y-94667831D01*
X142927250Y-94667830D01*
X142820615Y-94655816D01*
X142756201Y-94628750D01*
X142716646Y-94571155D01*
X142710499Y-94532596D01*
X142710499Y-94385929D01*
X142710499Y-94385928D01*
X142706365Y-94347474D01*
X142718771Y-94278717D01*
X142766382Y-94227580D01*
X142834081Y-94210301D01*
X142900375Y-94232366D01*
X142928921Y-94259910D01*
X142952455Y-94291347D01*
X143067664Y-94377593D01*
X143067671Y-94377597D01*
X143070508Y-94378655D01*
X143202517Y-94427891D01*
X143262127Y-94434300D01*
X143757872Y-94434299D01*
X143817483Y-94427891D01*
X143866665Y-94409546D01*
X143936355Y-94404561D01*
X143953333Y-94409547D01*
X144002508Y-94427888D01*
X144002511Y-94427889D01*
X144002517Y-94427891D01*
X144062127Y-94434300D01*
X144557872Y-94434299D01*
X144617483Y-94427891D01*
X144666665Y-94409546D01*
X144736355Y-94404561D01*
X144753333Y-94409547D01*
X144802508Y-94427888D01*
X144802511Y-94427889D01*
X144802517Y-94427891D01*
X144862127Y-94434300D01*
X145357872Y-94434299D01*
X145417483Y-94427891D01*
X145466665Y-94409546D01*
X145536355Y-94404561D01*
X145553333Y-94409547D01*
X145602508Y-94427888D01*
X145602511Y-94427889D01*
X145602517Y-94427891D01*
X145662127Y-94434300D01*
X146157872Y-94434299D01*
X146217483Y-94427891D01*
X146266665Y-94409546D01*
X146336355Y-94404561D01*
X146353333Y-94409547D01*
X146402508Y-94427888D01*
X146402511Y-94427889D01*
X146402517Y-94427891D01*
X146462127Y-94434300D01*
X146957872Y-94434299D01*
X147017483Y-94427891D01*
X147066665Y-94409546D01*
X147136355Y-94404561D01*
X147153333Y-94409547D01*
X147202508Y-94427888D01*
X147202511Y-94427889D01*
X147202517Y-94427891D01*
X147262127Y-94434300D01*
X147757872Y-94434299D01*
X147817483Y-94427891D01*
X147866665Y-94409546D01*
X147936355Y-94404561D01*
X147953333Y-94409547D01*
X148002508Y-94427888D01*
X148002511Y-94427889D01*
X148002517Y-94427891D01*
X148062127Y-94434300D01*
X148557872Y-94434299D01*
X148617483Y-94427891D01*
X148666665Y-94409546D01*
X148736355Y-94404561D01*
X148753333Y-94409547D01*
X148802508Y-94427888D01*
X148802511Y-94427889D01*
X148802517Y-94427891D01*
X148862127Y-94434300D01*
X149357872Y-94434299D01*
X149417483Y-94427891D01*
X149552331Y-94377596D01*
X149667546Y-94291346D01*
X149753796Y-94176131D01*
X149804091Y-94041283D01*
X149810500Y-93981673D01*
X149810499Y-93838912D01*
X149819938Y-93791459D01*
X149835505Y-93753880D01*
X149864500Y-93608112D01*
X149864500Y-92884085D01*
X149884185Y-92817046D01*
X149900815Y-92796408D01*
X150124763Y-92572460D01*
X150124766Y-92572459D01*
X150229859Y-92467366D01*
X150312429Y-92343790D01*
X150369305Y-92206480D01*
X150398300Y-92060712D01*
X150398300Y-91526674D01*
X150417985Y-91459635D01*
X150434619Y-91438993D01*
X150441768Y-91431844D01*
X150530803Y-91287497D01*
X150584149Y-91126508D01*
X150594300Y-91027145D01*
X150594299Y-90430456D01*
X150584149Y-90331092D01*
X150530803Y-90170103D01*
X150530799Y-90170097D01*
X150530798Y-90170094D01*
X150441770Y-90025759D01*
X150441767Y-90025755D01*
X150434619Y-90018607D01*
X150401134Y-89957284D01*
X150398300Y-89930926D01*
X150398300Y-89901074D01*
X150417985Y-89834035D01*
X150434619Y-89813393D01*
X150441768Y-89806244D01*
X150530803Y-89661897D01*
X150584149Y-89500908D01*
X150594300Y-89401545D01*
X150594299Y-88804856D01*
X150584149Y-88705492D01*
X150530803Y-88544503D01*
X150530799Y-88544497D01*
X150530798Y-88544494D01*
X150441770Y-88400159D01*
X150441767Y-88400155D01*
X150434619Y-88393007D01*
X150401134Y-88331684D01*
X150398300Y-88305326D01*
X150398300Y-88250074D01*
X150417985Y-88183035D01*
X150434619Y-88162393D01*
X150441768Y-88155244D01*
X150530803Y-88010897D01*
X150584149Y-87849908D01*
X150594300Y-87750545D01*
X150594299Y-87153856D01*
X150584149Y-87054492D01*
X150530803Y-86893503D01*
X150530799Y-86893497D01*
X150530798Y-86893494D01*
X150441770Y-86749159D01*
X150441767Y-86749155D01*
X150434619Y-86742007D01*
X150401134Y-86680684D01*
X150398300Y-86654326D01*
X150398300Y-82465046D01*
X150398301Y-82465025D01*
X150398301Y-82310285D01*
X150369306Y-82164526D01*
X150369305Y-82164522D01*
X150348288Y-82113782D01*
X150332995Y-82076861D01*
X150318670Y-82042277D01*
X150312430Y-82027211D01*
X150276453Y-81973367D01*
X150229859Y-81903634D01*
X150229857Y-81903631D01*
X150120447Y-81794221D01*
X150120424Y-81794200D01*
X148486769Y-80160543D01*
X148486768Y-80160542D01*
X148445573Y-80133017D01*
X148363189Y-80077970D01*
X148363186Y-80077968D01*
X148363185Y-80077968D01*
X148282755Y-80044653D01*
X148225880Y-80021095D01*
X148201694Y-80016284D01*
X148080114Y-79992099D01*
X148080112Y-79992099D01*
X147931488Y-79992099D01*
X147925374Y-79992099D01*
X147925354Y-79992100D01*
X147858300Y-79992100D01*
X147791261Y-79972415D01*
X147745506Y-79919611D01*
X147734300Y-79868100D01*
X147734300Y-76199499D01*
X147753985Y-76132460D01*
X147806789Y-76086705D01*
X147858300Y-76075499D01*
X148027671Y-76075499D01*
X148027672Y-76075499D01*
X148087283Y-76069091D01*
X148222131Y-76018796D01*
X148337346Y-75932546D01*
X148423596Y-75817331D01*
X148473891Y-75682483D01*
X148480300Y-75622873D01*
X148480299Y-73527128D01*
X148473891Y-73467517D01*
X148431997Y-73355194D01*
X148423597Y-73332671D01*
X148423593Y-73332664D01*
X148337347Y-73217455D01*
X148337344Y-73217452D01*
X148222135Y-73131206D01*
X148222128Y-73131202D01*
X148087282Y-73080908D01*
X148087283Y-73080908D01*
X148027683Y-73074501D01*
X148027681Y-73074500D01*
X148027673Y-73074500D01*
X148027664Y-73074500D01*
X145931929Y-73074500D01*
X145931923Y-73074501D01*
X145872316Y-73080908D01*
X145737471Y-73131202D01*
X145737464Y-73131206D01*
X145622255Y-73217452D01*
X145622252Y-73217455D01*
X145536006Y-73332664D01*
X145536002Y-73332671D01*
X145485708Y-73467517D01*
X145479301Y-73527116D01*
X145479301Y-73527123D01*
X145479300Y-73527135D01*
X145479300Y-74953449D01*
X145459615Y-75020488D01*
X145406811Y-75066243D01*
X145337653Y-75076187D01*
X145274097Y-75047162D01*
X145248569Y-75016571D01*
X145222881Y-74973135D01*
X145222876Y-74973129D01*
X145106670Y-74856923D01*
X145106662Y-74856917D01*
X144965196Y-74773255D01*
X144965193Y-74773254D01*
X144807373Y-74727402D01*
X144807367Y-74727401D01*
X144770501Y-74724500D01*
X144770494Y-74724500D01*
X143604300Y-74724500D01*
X143537261Y-74704815D01*
X143491506Y-74652011D01*
X143480300Y-74600500D01*
X143480300Y-74359313D01*
X143480299Y-74359298D01*
X143477398Y-74322432D01*
X143477397Y-74322426D01*
X143443636Y-74206224D01*
X143431544Y-74164602D01*
X143347881Y-74023135D01*
X143347879Y-74023133D01*
X143347876Y-74023129D01*
X143231670Y-73906923D01*
X143231662Y-73906917D01*
X143148037Y-73857462D01*
X143090198Y-73823256D01*
X143090197Y-73823255D01*
X143090196Y-73823255D01*
X143090193Y-73823254D01*
X142932373Y-73777402D01*
X142932367Y-73777401D01*
X142895501Y-73774500D01*
X142895494Y-73774500D01*
X141589106Y-73774500D01*
X141589098Y-73774500D01*
X141552232Y-73777401D01*
X141552226Y-73777402D01*
X141420836Y-73815576D01*
X141386241Y-73820500D01*
X140746322Y-73820500D01*
X140679283Y-73800815D01*
X140642513Y-73764321D01*
X140567966Y-73650217D01*
X140501660Y-73578190D01*
X140399544Y-73467262D01*
X140203309Y-73314526D01*
X140203307Y-73314525D01*
X140203306Y-73314524D01*
X139984611Y-73196172D01*
X139984602Y-73196169D01*
X139749416Y-73115429D01*
X139504135Y-73074500D01*
X139255465Y-73074500D01*
X139010183Y-73115429D01*
X138774997Y-73196169D01*
X138774988Y-73196172D01*
X138556293Y-73314524D01*
X138360057Y-73467261D01*
X138191633Y-73650217D01*
X138055626Y-73858393D01*
X137955736Y-74086118D01*
X137894692Y-74327175D01*
X137894690Y-74327187D01*
X137874157Y-74574994D01*
X137874157Y-74575005D01*
X137894690Y-74822812D01*
X137894692Y-74822824D01*
X137955736Y-75063881D01*
X138055626Y-75291606D01*
X138191633Y-75499782D01*
X138191636Y-75499785D01*
X138360056Y-75682738D01*
X138556291Y-75835474D01*
X138556293Y-75835475D01*
X138772432Y-75952444D01*
X138774990Y-75953828D01*
X139010186Y-76034571D01*
X139255465Y-76075500D01*
X139504135Y-76075500D01*
X139749414Y-76034571D01*
X139984610Y-75953828D01*
X140203309Y-75835474D01*
X140399544Y-75682738D01*
X140567964Y-75499785D01*
X140614975Y-75427829D01*
X140642513Y-75385679D01*
X140695659Y-75340322D01*
X140746322Y-75329500D01*
X141386241Y-75329500D01*
X141420836Y-75334424D01*
X141552226Y-75372597D01*
X141552229Y-75372597D01*
X141552231Y-75372598D01*
X141589106Y-75375500D01*
X142755300Y-75375500D01*
X142822339Y-75395185D01*
X142868094Y-75447989D01*
X142879300Y-75499500D01*
X142879300Y-75740701D01*
X142882201Y-75777567D01*
X142882202Y-75777573D01*
X142928054Y-75935393D01*
X142928055Y-75935396D01*
X142928056Y-75935398D01*
X142938957Y-75953830D01*
X143011717Y-76076862D01*
X143011723Y-76076870D01*
X143127929Y-76193076D01*
X143127933Y-76193079D01*
X143127935Y-76193081D01*
X143269400Y-76276743D01*
X143271790Y-76278156D01*
X143319473Y-76329225D01*
X143331977Y-76397966D01*
X143314786Y-76449038D01*
X143238522Y-76575193D01*
X143187913Y-76737607D01*
X143181500Y-76808186D01*
X143181500Y-77471413D01*
X143187913Y-77541992D01*
X143187913Y-77541994D01*
X143187914Y-77541996D01*
X143238522Y-77704406D01*
X143321817Y-77842193D01*
X143339700Y-77906341D01*
X143339700Y-78503128D01*
X143320694Y-78569100D01*
X143241411Y-78695276D01*
X143181831Y-78865545D01*
X143181830Y-78865550D01*
X143161635Y-79044796D01*
X143161635Y-79044803D01*
X143181830Y-79224049D01*
X143181831Y-79224054D01*
X143241411Y-79394323D01*
X143307783Y-79499953D01*
X143337384Y-79547062D01*
X143464938Y-79674616D01*
X143583124Y-79748877D01*
X143605769Y-79763106D01*
X143652060Y-79815441D01*
X143662708Y-79884494D01*
X143634333Y-79948343D01*
X143575943Y-79986715D01*
X143539797Y-79992100D01*
X140752200Y-79992100D01*
X140687103Y-79973638D01*
X140563505Y-79897401D01*
X140563499Y-79897398D01*
X140563497Y-79897397D01*
X140475084Y-79868100D01*
X140402509Y-79844051D01*
X140303146Y-79833900D01*
X139706462Y-79833900D01*
X139706444Y-79833901D01*
X139607092Y-79844050D01*
X139607089Y-79844051D01*
X139446105Y-79897396D01*
X139446094Y-79897401D01*
X139322497Y-79973638D01*
X139257400Y-79992100D01*
X139210158Y-79992100D01*
X139143119Y-79972415D01*
X139099071Y-79923196D01*
X139086230Y-79897304D01*
X138966922Y-79748878D01*
X138897714Y-79693247D01*
X138857795Y-79635904D01*
X138855215Y-79566082D01*
X138890794Y-79505949D01*
X138897714Y-79499953D01*
X138907109Y-79492400D01*
X138966922Y-79444322D01*
X139086230Y-79295896D01*
X139170841Y-79125293D01*
X139216800Y-78940489D01*
X139219700Y-78897723D01*
X139219699Y-77995478D01*
X139216800Y-77952711D01*
X139170841Y-77767907D01*
X139139348Y-77704406D01*
X139086232Y-77597307D01*
X139086230Y-77597304D01*
X138966922Y-77448878D01*
X138966921Y-77448877D01*
X138818495Y-77329569D01*
X138818492Y-77329567D01*
X138647897Y-77244960D01*
X138463092Y-77199000D01*
X138437429Y-77197260D01*
X138420323Y-77196100D01*
X138420321Y-77196100D01*
X137187900Y-77196100D01*
X137120861Y-77176415D01*
X137075106Y-77123611D01*
X137063900Y-77072100D01*
X137063900Y-77048674D01*
X137083585Y-76981635D01*
X137100219Y-76960993D01*
X137107368Y-76953844D01*
X137196403Y-76809497D01*
X137249749Y-76648508D01*
X137259900Y-76549145D01*
X137259899Y-75952456D01*
X137258156Y-75935397D01*
X137249749Y-75853092D01*
X137249748Y-75853089D01*
X137225583Y-75780163D01*
X137196403Y-75692103D01*
X137196399Y-75692097D01*
X137196398Y-75692094D01*
X137107370Y-75547759D01*
X137107367Y-75547755D01*
X136987444Y-75427832D01*
X136987440Y-75427829D01*
X136843105Y-75338801D01*
X136843099Y-75338798D01*
X136843097Y-75338797D01*
X136843094Y-75338796D01*
X136682109Y-75285451D01*
X136582746Y-75275300D01*
X136036062Y-75275300D01*
X136036044Y-75275301D01*
X135936692Y-75285450D01*
X135936689Y-75285451D01*
X135775705Y-75338796D01*
X135775694Y-75338801D01*
X135631359Y-75427829D01*
X135631355Y-75427832D01*
X135511432Y-75547755D01*
X135511429Y-75547759D01*
X135422401Y-75692094D01*
X135422396Y-75692105D01*
X135369051Y-75853090D01*
X135358900Y-75952447D01*
X135358900Y-76549137D01*
X135358901Y-76549155D01*
X135369050Y-76648507D01*
X135369051Y-76648510D01*
X135422396Y-76809494D01*
X135422401Y-76809505D01*
X135511429Y-76953840D01*
X135511432Y-76953844D01*
X135518581Y-76960993D01*
X135552066Y-77022316D01*
X135554900Y-77048674D01*
X135554900Y-78088055D01*
X135545516Y-78129208D01*
X135547510Y-78129906D01*
X135485633Y-78306737D01*
X135485630Y-78306750D01*
X135465435Y-78485996D01*
X135465435Y-78486003D01*
X135485630Y-78665249D01*
X135485631Y-78665254D01*
X135545211Y-78835523D01*
X135611166Y-78940489D01*
X135641184Y-78988262D01*
X135768738Y-79115816D01*
X135783821Y-79125293D01*
X135921396Y-79211738D01*
X135921478Y-79211789D01*
X136091745Y-79271368D01*
X136091750Y-79271369D01*
X136270997Y-79291565D01*
X136270999Y-79291565D01*
X136270999Y-79291564D01*
X136271000Y-79291565D01*
X136274442Y-79291177D01*
X136276657Y-79291565D01*
X136277965Y-79291565D01*
X136277965Y-79291793D01*
X136343265Y-79303230D01*
X136384977Y-79336709D01*
X136471478Y-79444322D01*
X136528778Y-79490381D01*
X136540686Y-79499953D01*
X136580605Y-79557296D01*
X136583185Y-79627118D01*
X136547606Y-79687251D01*
X136540686Y-79693247D01*
X136471478Y-79748877D01*
X136471477Y-79748878D01*
X136352172Y-79897301D01*
X136352170Y-79897304D01*
X136339328Y-79923196D01*
X136291910Y-79974507D01*
X136228242Y-79992100D01*
X133043699Y-79992100D01*
X132976660Y-79972415D01*
X132930905Y-79919611D01*
X132919699Y-79868100D01*
X132919699Y-79288571D01*
X132919699Y-79288564D01*
X132909086Y-79169182D01*
X132853109Y-78973551D01*
X132758898Y-78793193D01*
X132679059Y-78695278D01*
X132630309Y-78635490D01*
X132472609Y-78506904D01*
X132472610Y-78506904D01*
X132472607Y-78506902D01*
X132292249Y-78412691D01*
X132292248Y-78412690D01*
X132292245Y-78412689D01*
X132175029Y-78379150D01*
X132096618Y-78356714D01*
X132096615Y-78356713D01*
X132096613Y-78356713D01*
X132030302Y-78350817D01*
X131977237Y-78346100D01*
X131977232Y-78346100D01*
X130861171Y-78346100D01*
X130861165Y-78346100D01*
X130861164Y-78346101D01*
X130849516Y-78347136D01*
X130741784Y-78356713D01*
X130546154Y-78412689D01*
X130455972Y-78459796D01*
X130365793Y-78506902D01*
X130365791Y-78506903D01*
X130365790Y-78506904D01*
X130208090Y-78635490D01*
X130079504Y-78793190D01*
X129985289Y-78973554D01*
X129929314Y-79169183D01*
X129929313Y-79169186D01*
X129918700Y-79288566D01*
X129918700Y-82204628D01*
X129918701Y-82204634D01*
X129929313Y-82324015D01*
X129985289Y-82519645D01*
X129985290Y-82519648D01*
X129985291Y-82519649D01*
X130079502Y-82700007D01*
X130079504Y-82700009D01*
X130208090Y-82857709D01*
X130302003Y-82934284D01*
X130365793Y-82986298D01*
X130546151Y-83080509D01*
X130741782Y-83136486D01*
X130861163Y-83147100D01*
X131977236Y-83147099D01*
X132096618Y-83136486D01*
X132292249Y-83080509D01*
X132472607Y-82986298D01*
X132630309Y-82857709D01*
X132758898Y-82700007D01*
X132853109Y-82519649D01*
X132909086Y-82324018D01*
X132919700Y-82204637D01*
X132919700Y-81625100D01*
X132939385Y-81558061D01*
X132992189Y-81512306D01*
X133043700Y-81501100D01*
X135290900Y-81501100D01*
X135357939Y-81520785D01*
X135403694Y-81573589D01*
X135414900Y-81625100D01*
X135414900Y-84440607D01*
X135439012Y-84561827D01*
X135439014Y-84561835D01*
X135472462Y-84642585D01*
X135486315Y-84676029D01*
X135486320Y-84676039D01*
X135553925Y-84777216D01*
X135574803Y-84843893D01*
X135556319Y-84911274D01*
X135504340Y-84957964D01*
X135435370Y-84969140D01*
X135384851Y-84951101D01*
X135299723Y-84897611D01*
X135129454Y-84838031D01*
X135129449Y-84838030D01*
X134950204Y-84817835D01*
X134950196Y-84817835D01*
X134770950Y-84838030D01*
X134770945Y-84838031D01*
X134600676Y-84897611D01*
X134447937Y-84993584D01*
X134320384Y-85121137D01*
X134224410Y-85273878D01*
X134164829Y-85444153D01*
X134163280Y-85450941D01*
X134160374Y-85450277D01*
X134138409Y-85502458D01*
X134080790Y-85541977D01*
X134042305Y-85548100D01*
X132690836Y-85548100D01*
X132573446Y-85563553D01*
X132573437Y-85563556D01*
X132457303Y-85611661D01*
X132409850Y-85621100D01*
X130681792Y-85621100D01*
X130560573Y-85645211D01*
X130560573Y-85645212D01*
X130560570Y-85645213D01*
X130560566Y-85645214D01*
X130493670Y-85672923D01*
X130493669Y-85672923D01*
X130446373Y-85692513D01*
X130446365Y-85692517D01*
X130404759Y-85720318D01*
X130404759Y-85720319D01*
X130343589Y-85761190D01*
X130343588Y-85761191D01*
X130019453Y-86085328D01*
X129978192Y-86126589D01*
X129934489Y-86170292D01*
X129890786Y-86213994D01*
X129890785Y-86213996D01*
X129821433Y-86317789D01*
X129819786Y-86322393D01*
X129774814Y-86430964D01*
X129774812Y-86430972D01*
X129757123Y-86519897D01*
X129757124Y-86519898D01*
X129750700Y-86552196D01*
X129750700Y-89313311D01*
X129731015Y-89380350D01*
X129678211Y-89426105D01*
X129661296Y-89432387D01*
X129605305Y-89448654D01*
X129605303Y-89448655D01*
X129463837Y-89532317D01*
X129463833Y-89532320D01*
X129361986Y-89634167D01*
X129300663Y-89667651D01*
X129230971Y-89662667D01*
X129186624Y-89634166D01*
X129171388Y-89618930D01*
X129136524Y-89597854D01*
X129025806Y-89530922D01*
X128863396Y-89480314D01*
X128863394Y-89480313D01*
X128863392Y-89480313D01*
X128813978Y-89475823D01*
X128792816Y-89473900D01*
X128279584Y-89473900D01*
X128260345Y-89475648D01*
X128209007Y-89480313D01*
X128046593Y-89530922D01*
X127901011Y-89618930D01*
X127780730Y-89739211D01*
X127692722Y-89884793D01*
X127642113Y-90047207D01*
X127635700Y-90117786D01*
X127635700Y-90781013D01*
X127642113Y-90851592D01*
X127642113Y-90851594D01*
X127642114Y-90851596D01*
X127688657Y-91000961D01*
X127692722Y-91014006D01*
X127780730Y-91159588D01*
X127882361Y-91261219D01*
X127915846Y-91322542D01*
X127910862Y-91392234D01*
X127868990Y-91448167D01*
X127803526Y-91472584D01*
X127794680Y-91472900D01*
X126811700Y-91472900D01*
X126744661Y-91453215D01*
X126698906Y-91400411D01*
X126687700Y-91348900D01*
X126687700Y-89002174D01*
X126707385Y-88935135D01*
X126760189Y-88889380D01*
X126829347Y-88879436D01*
X126843793Y-88882399D01*
X126848436Y-88883643D01*
X126848438Y-88883644D01*
X126965839Y-88899100D01*
X128319560Y-88899099D01*
X128319563Y-88899099D01*
X128436953Y-88883646D01*
X128436957Y-88883644D01*
X128436962Y-88883644D01*
X128583041Y-88823136D01*
X128708482Y-88726882D01*
X128804736Y-88601441D01*
X128865244Y-88455362D01*
X128880700Y-88337961D01*
X128880699Y-88059240D01*
X128865244Y-87941838D01*
X128856634Y-87921054D01*
X128849165Y-87851586D01*
X128856635Y-87826145D01*
X128865244Y-87805362D01*
X128880700Y-87687961D01*
X128880699Y-87409240D01*
X128880699Y-87409236D01*
X128865246Y-87291846D01*
X128865244Y-87291841D01*
X128865244Y-87291838D01*
X128804736Y-87145759D01*
X128708482Y-87020318D01*
X128678060Y-86996974D01*
X128636858Y-86940549D01*
X128632703Y-86870803D01*
X128666914Y-86809882D01*
X128678051Y-86800231D01*
X128708482Y-86776882D01*
X128804736Y-86651441D01*
X128865244Y-86505362D01*
X128880700Y-86387961D01*
X128880699Y-86109240D01*
X128880699Y-86109236D01*
X128865246Y-85991846D01*
X128865244Y-85991841D01*
X128865244Y-85991838D01*
X128804736Y-85845759D01*
X128708482Y-85720318D01*
X128583041Y-85624064D01*
X128583007Y-85624050D01*
X128436962Y-85563556D01*
X128436960Y-85563555D01*
X128319570Y-85548101D01*
X128319567Y-85548100D01*
X128319561Y-85548100D01*
X128319554Y-85548100D01*
X126965836Y-85548100D01*
X126848446Y-85563553D01*
X126848434Y-85563557D01*
X126731348Y-85612055D01*
X126696061Y-85620896D01*
X126693997Y-85621099D01*
X126572772Y-85645212D01*
X126572764Y-85645214D01*
X126492015Y-85678662D01*
X126458566Y-85692517D01*
X126458563Y-85692518D01*
X126416959Y-85720318D01*
X126416959Y-85720319D01*
X126355791Y-85761189D01*
X126291912Y-85825068D01*
X126230588Y-85858552D01*
X126160897Y-85853567D01*
X126104963Y-85811696D01*
X126080547Y-85746231D01*
X126082234Y-85715188D01*
X126082642Y-85712946D01*
X126325808Y-84376555D01*
X126326068Y-84375179D01*
X126832242Y-81790630D01*
X126832516Y-81789278D01*
X127373319Y-79211670D01*
X127373658Y-79210113D01*
X127948920Y-76640247D01*
X127949257Y-76638788D01*
X128419564Y-74662498D01*
X129174190Y-74662498D01*
X129174190Y-74662501D01*
X129194604Y-74947933D01*
X129255428Y-75227537D01*
X129255430Y-75227543D01*
X129255431Y-75227546D01*
X129322011Y-75406054D01*
X129355435Y-75495666D01*
X129492570Y-75746809D01*
X129492575Y-75746817D01*
X129664054Y-75975887D01*
X129664070Y-75975905D01*
X129866394Y-76178229D01*
X129866412Y-76178245D01*
X130095482Y-76349724D01*
X130095490Y-76349729D01*
X130346633Y-76486864D01*
X130346632Y-76486864D01*
X130346636Y-76486865D01*
X130346639Y-76486867D01*
X130614754Y-76586869D01*
X130614760Y-76586870D01*
X130614762Y-76586871D01*
X130894366Y-76647695D01*
X130894368Y-76647695D01*
X130894372Y-76647696D01*
X131148020Y-76665837D01*
X131179799Y-76668110D01*
X131179800Y-76668110D01*
X131179801Y-76668110D01*
X131208395Y-76666064D01*
X131465228Y-76647696D01*
X131499099Y-76640328D01*
X131744837Y-76586871D01*
X131744837Y-76586870D01*
X131744846Y-76586869D01*
X132012961Y-76486867D01*
X132264115Y-76349726D01*
X132493195Y-76178239D01*
X132695539Y-75975895D01*
X132867026Y-75746815D01*
X133004167Y-75495661D01*
X133104169Y-75227546D01*
X133159514Y-74973129D01*
X133164995Y-74947933D01*
X133164995Y-74947932D01*
X133164996Y-74947928D01*
X133185410Y-74662500D01*
X133164996Y-74377072D01*
X133161131Y-74359306D01*
X133104171Y-74097462D01*
X133104170Y-74097460D01*
X133104169Y-74097454D01*
X133004167Y-73829339D01*
X133000845Y-73823256D01*
X132867029Y-73578190D01*
X132867024Y-73578182D01*
X132695545Y-73349112D01*
X132695529Y-73349094D01*
X132493205Y-73146770D01*
X132493187Y-73146754D01*
X132264117Y-72975275D01*
X132264109Y-72975270D01*
X132012966Y-72838135D01*
X132012967Y-72838135D01*
X131778370Y-72750635D01*
X131744846Y-72738131D01*
X131744843Y-72738130D01*
X131744837Y-72738128D01*
X131465233Y-72677304D01*
X131179801Y-72656890D01*
X131179799Y-72656890D01*
X130894366Y-72677304D01*
X130614762Y-72738128D01*
X130346633Y-72838135D01*
X130095490Y-72975270D01*
X130095482Y-72975275D01*
X129866412Y-73146754D01*
X129866394Y-73146770D01*
X129664070Y-73349094D01*
X129664054Y-73349112D01*
X129492575Y-73578182D01*
X129492570Y-73578190D01*
X129355435Y-73829333D01*
X129255428Y-74097462D01*
X129194604Y-74377066D01*
X129174190Y-74662498D01*
X128419564Y-74662498D01*
X128558947Y-74076792D01*
X128559342Y-74075184D01*
X128614015Y-73858393D01*
X129203309Y-71521691D01*
X129203711Y-71520141D01*
X129222739Y-71448745D01*
X129252830Y-71335836D01*
X131961163Y-71335836D01*
X131981446Y-71541768D01*
X132041516Y-71739794D01*
X132139064Y-71922289D01*
X132237443Y-72042164D01*
X133088235Y-72892956D01*
X133088240Y-72892960D01*
X133088241Y-72892961D01*
X133208114Y-72991338D01*
X133390609Y-73088885D01*
X133588630Y-73148953D01*
X133794564Y-73169237D01*
X134000498Y-73148953D01*
X134019779Y-73143103D01*
X134089644Y-73142478D01*
X134148758Y-73179724D01*
X134178352Y-73243017D01*
X134178997Y-73275645D01*
X134170035Y-73355194D01*
X134170035Y-73355203D01*
X134190230Y-73534449D01*
X134190231Y-73534454D01*
X134249811Y-73704723D01*
X134293655Y-73774500D01*
X134345784Y-73857462D01*
X134473338Y-73985016D01*
X134534004Y-74023135D01*
X134619409Y-74076799D01*
X134626078Y-74080989D01*
X134701008Y-74107208D01*
X134796345Y-74140568D01*
X134796350Y-74140569D01*
X134975596Y-74160765D01*
X134975600Y-74160765D01*
X134975604Y-74160765D01*
X135154849Y-74140569D01*
X135154852Y-74140568D01*
X135154855Y-74140568D01*
X135325122Y-74080989D01*
X135477862Y-73985016D01*
X135605416Y-73857462D01*
X135701389Y-73704722D01*
X135760968Y-73534455D01*
X135761793Y-73527135D01*
X135781165Y-73355203D01*
X135781165Y-73355196D01*
X135760969Y-73175950D01*
X135760968Y-73175945D01*
X135745313Y-73131206D01*
X135737057Y-73107613D01*
X135730100Y-73066659D01*
X135730100Y-72597318D01*
X135730101Y-72597297D01*
X135730101Y-72488249D01*
X135749786Y-72421210D01*
X135802590Y-72375455D01*
X135871748Y-72365511D01*
X135895056Y-72371207D01*
X136015545Y-72413368D01*
X136015550Y-72413369D01*
X136194796Y-72433565D01*
X136194800Y-72433565D01*
X136194804Y-72433565D01*
X136374049Y-72413369D01*
X136374052Y-72413368D01*
X136374055Y-72413368D01*
X136544322Y-72353789D01*
X136697062Y-72257816D01*
X136824616Y-72130262D01*
X136920589Y-71977522D01*
X136980168Y-71807255D01*
X136987769Y-71739794D01*
X137000365Y-71628003D01*
X137000365Y-71627996D01*
X136980169Y-71448750D01*
X136980168Y-71448745D01*
X136956258Y-71380414D01*
X136949300Y-71339459D01*
X136949300Y-70491349D01*
X136968985Y-70424310D01*
X136994633Y-70395497D01*
X137015359Y-70378489D01*
X137866161Y-69527687D01*
X137964538Y-69407814D01*
X138062085Y-69225319D01*
X138122153Y-69027298D01*
X138142437Y-68821364D01*
X138122153Y-68615430D01*
X138062085Y-68417409D01*
X137964538Y-68234914D01*
X137866161Y-68115041D01*
X137866160Y-68115040D01*
X137866156Y-68115035D01*
X137015364Y-67264243D01*
X136895489Y-67165864D01*
X136895487Y-67165863D01*
X136895486Y-67165862D01*
X136823140Y-67127191D01*
X136712994Y-67068316D01*
X136514968Y-67008246D01*
X136309036Y-66987963D01*
X136103103Y-67008246D01*
X135905077Y-67068316D01*
X135722582Y-67165864D01*
X135602707Y-67264243D01*
X134751915Y-68115035D01*
X134653536Y-68234910D01*
X134555988Y-68417405D01*
X134495918Y-68615431D01*
X134475635Y-68821364D01*
X134495918Y-69027296D01*
X134555988Y-69225322D01*
X134653536Y-69407817D01*
X134751915Y-69527692D01*
X135403981Y-70179757D01*
X135437466Y-70241080D01*
X135440300Y-70267438D01*
X135440300Y-70418761D01*
X135420615Y-70485800D01*
X135367811Y-70531555D01*
X135298653Y-70541499D01*
X135235097Y-70512474D01*
X135228619Y-70506442D01*
X134500892Y-69778715D01*
X134381017Y-69680336D01*
X134381015Y-69680335D01*
X134381014Y-69680334D01*
X134308668Y-69641663D01*
X134198522Y-69582788D01*
X134000496Y-69522718D01*
X133794564Y-69502435D01*
X133588631Y-69522718D01*
X133390605Y-69582788D01*
X133208110Y-69680336D01*
X133088235Y-69778715D01*
X132237443Y-70629507D01*
X132139064Y-70749382D01*
X132041516Y-70931877D01*
X131981446Y-71129903D01*
X131961163Y-71335836D01*
X129252830Y-71335836D01*
X129881254Y-68977796D01*
X129883004Y-68971838D01*
X129946513Y-68773991D01*
X129999930Y-68607583D01*
X130003657Y-68597501D01*
X130150825Y-68246990D01*
X130155422Y-68237250D01*
X130156651Y-68234914D01*
X130332467Y-67900823D01*
X130337879Y-67891543D01*
X130543461Y-67571747D01*
X130549657Y-67562974D01*
X130782209Y-67262244D01*
X130789146Y-67254034D01*
X131046940Y-66974610D01*
X131054565Y-66967033D01*
X131335633Y-66711045D01*
X131343893Y-66704156D01*
X131543144Y-66552111D01*
X131646106Y-66473542D01*
X131654932Y-66467394D01*
X131976033Y-66263876D01*
X131985368Y-66258513D01*
X132322907Y-66083641D01*
X132332657Y-66079116D01*
X132684140Y-65934186D01*
X132694219Y-65930534D01*
X133056937Y-65816666D01*
X133067332Y-65813893D01*
X133438549Y-65731942D01*
X133449141Y-65730081D01*
X133826091Y-65680658D01*
X133836795Y-65679726D01*
X134218737Y-65663117D01*
X134224124Y-65663000D01*
X134287871Y-65663000D01*
X152071726Y-65663000D01*
X152134921Y-65663000D01*
X152140308Y-65663117D01*
G37*
%TD.AperFunction*%
%TA.AperFunction,Conductor*%
G36*
X139491303Y-95355090D02*
G01*
X139515093Y-95382830D01*
X139603584Y-95523662D01*
X139731138Y-95651216D01*
X139788887Y-95687502D01*
X139874478Y-95741283D01*
X139883878Y-95747189D01*
X140042582Y-95802722D01*
X140054145Y-95806768D01*
X140054150Y-95806769D01*
X140233396Y-95826965D01*
X140233400Y-95826965D01*
X140233404Y-95826965D01*
X140412649Y-95806769D01*
X140412652Y-95806768D01*
X140412655Y-95806768D01*
X140582922Y-95747189D01*
X140592322Y-95741283D01*
X140677913Y-95687502D01*
X140727385Y-95656416D01*
X140794621Y-95637416D01*
X140861456Y-95657783D01*
X140906671Y-95711051D01*
X140912860Y-95734030D01*
X140914124Y-95733732D01*
X140915907Y-95741279D01*
X140966202Y-95876128D01*
X140966206Y-95876135D01*
X141052452Y-95991344D01*
X141052455Y-95991347D01*
X141167664Y-96077593D01*
X141167671Y-96077597D01*
X141274972Y-96117618D01*
X141330906Y-96159489D01*
X141355323Y-96224954D01*
X141340471Y-96293227D01*
X141291066Y-96342632D01*
X141274972Y-96349982D01*
X141167671Y-96390002D01*
X141167664Y-96390006D01*
X141052455Y-96476252D01*
X141052452Y-96476255D01*
X140966206Y-96591464D01*
X140966202Y-96591471D01*
X140924205Y-96704073D01*
X140915909Y-96726317D01*
X140909500Y-96785927D01*
X140909500Y-96785934D01*
X140909500Y-96785935D01*
X140909500Y-97281670D01*
X140909501Y-97281676D01*
X140915908Y-97341282D01*
X140929004Y-97376393D01*
X140934252Y-97390465D01*
X140934253Y-97390466D01*
X140939237Y-97460158D01*
X140934253Y-97477131D01*
X140915910Y-97526311D01*
X140915910Y-97526314D01*
X140915909Y-97526317D01*
X140909500Y-97585927D01*
X140909500Y-97585934D01*
X140909500Y-97585935D01*
X140909500Y-98081670D01*
X140909501Y-98081676D01*
X140915908Y-98141282D01*
X140926072Y-98168531D01*
X140934252Y-98190465D01*
X140934253Y-98190466D01*
X140939237Y-98260158D01*
X140934253Y-98277131D01*
X140915910Y-98326311D01*
X140915910Y-98326314D01*
X140915909Y-98326317D01*
X140909500Y-98385927D01*
X140909500Y-98385934D01*
X140909500Y-98385935D01*
X140909500Y-98881670D01*
X140909501Y-98881676D01*
X140915908Y-98941282D01*
X140934253Y-98990466D01*
X140939237Y-99060158D01*
X140934253Y-99077131D01*
X140915910Y-99126311D01*
X140915909Y-99126315D01*
X140915909Y-99126317D01*
X140909500Y-99185927D01*
X140909500Y-99378181D01*
X140909501Y-99482300D01*
X140889817Y-99549339D01*
X140837013Y-99595094D01*
X140785501Y-99606300D01*
X140270681Y-99606300D01*
X140203642Y-99586615D01*
X140183000Y-99569981D01*
X139322419Y-98709400D01*
X139288934Y-98648077D01*
X139286100Y-98621719D01*
X139286100Y-95448803D01*
X139305785Y-95381764D01*
X139358589Y-95336009D01*
X139427747Y-95326065D01*
X139491303Y-95355090D01*
G37*
%TD.AperFunction*%
%TA.AperFunction,Conductor*%
G36*
X143734939Y-89087985D02*
G01*
X143780694Y-89140789D01*
X143791900Y-89192300D01*
X143791900Y-89382679D01*
X143772215Y-89449718D01*
X143719411Y-89495473D01*
X143711236Y-89498860D01*
X143677065Y-89511605D01*
X143561855Y-89597852D01*
X143561852Y-89597855D01*
X143475606Y-89713064D01*
X143475602Y-89713071D01*
X143425308Y-89847917D01*
X143421344Y-89884793D01*
X143418901Y-89907523D01*
X143418900Y-89907535D01*
X143418900Y-91703270D01*
X143418901Y-91703276D01*
X143425308Y-91762883D01*
X143475602Y-91897728D01*
X143475606Y-91897735D01*
X143561852Y-92012944D01*
X143561855Y-92012947D01*
X143677064Y-92099193D01*
X143677073Y-92099198D01*
X143734758Y-92120713D01*
X143790692Y-92162584D01*
X143813043Y-92212701D01*
X143816013Y-92227631D01*
X143816015Y-92227639D01*
X143834480Y-92272216D01*
X143863315Y-92341829D01*
X143863320Y-92341839D01*
X143918358Y-92424208D01*
X143933948Y-92447540D01*
X143954826Y-92514218D01*
X143936342Y-92581598D01*
X143884363Y-92628288D01*
X143817592Y-92639721D01*
X143817484Y-92639709D01*
X143817483Y-92639709D01*
X143757873Y-92633300D01*
X143757864Y-92633300D01*
X143262129Y-92633300D01*
X143262123Y-92633301D01*
X143202516Y-92639708D01*
X143067671Y-92690002D01*
X143067664Y-92690006D01*
X142952455Y-92776252D01*
X142952452Y-92776255D01*
X142866206Y-92891464D01*
X142866202Y-92891471D01*
X142815908Y-93026317D01*
X142809501Y-93085916D01*
X142809500Y-93085935D01*
X142809500Y-93981670D01*
X142809501Y-93981679D01*
X142813634Y-94020125D01*
X142801227Y-94088884D01*
X142753615Y-94140020D01*
X142685915Y-94157298D01*
X142619622Y-94135232D01*
X142591078Y-94107688D01*
X142567547Y-94076255D01*
X142567544Y-94076252D01*
X142452335Y-93990006D01*
X142452328Y-93990002D01*
X142317482Y-93939708D01*
X142317483Y-93939708D01*
X142257883Y-93933301D01*
X142257881Y-93933300D01*
X142257873Y-93933300D01*
X142257864Y-93933300D01*
X141362129Y-93933300D01*
X141362123Y-93933301D01*
X141302516Y-93939708D01*
X141167671Y-93990002D01*
X141165607Y-93991130D01*
X141162571Y-93991904D01*
X141159359Y-93993103D01*
X141159230Y-93992757D01*
X141106176Y-94006300D01*
X140559195Y-94006300D01*
X140437970Y-94030413D01*
X140437960Y-94030416D01*
X140323773Y-94077713D01*
X140323761Y-94077720D01*
X140260697Y-94119859D01*
X140260696Y-94119860D01*
X140220994Y-94146387D01*
X140171831Y-94195549D01*
X140110507Y-94229033D01*
X140098037Y-94231086D01*
X140054145Y-94236032D01*
X139883878Y-94295610D01*
X139731137Y-94391584D01*
X139603584Y-94519137D01*
X139603579Y-94519143D01*
X139515093Y-94659968D01*
X139462759Y-94706259D01*
X139393705Y-94716907D01*
X139329857Y-94688532D01*
X139291485Y-94630142D01*
X139286100Y-94593996D01*
X139286100Y-93505671D01*
X139305107Y-93439698D01*
X139384388Y-93313524D01*
X139443968Y-93143254D01*
X139443969Y-93143249D01*
X139464165Y-92964003D01*
X139464165Y-92963996D01*
X139443969Y-92784750D01*
X139443968Y-92784745D01*
X139395531Y-92646321D01*
X139384389Y-92614478D01*
X139377972Y-92604266D01*
X139312713Y-92500407D01*
X139288416Y-92461738D01*
X139160862Y-92334184D01*
X139141904Y-92322272D01*
X139008123Y-92238211D01*
X138837854Y-92178631D01*
X138837849Y-92178630D01*
X138658604Y-92158435D01*
X138658596Y-92158435D01*
X138479350Y-92178630D01*
X138479345Y-92178631D01*
X138309076Y-92238211D01*
X138169872Y-92325680D01*
X138102635Y-92344680D01*
X138035800Y-92324312D01*
X137990586Y-92271045D01*
X137979900Y-92220686D01*
X137979900Y-89470494D01*
X137999585Y-89403455D01*
X138052389Y-89357700D01*
X138121547Y-89347756D01*
X138142901Y-89352787D01*
X138228492Y-89381149D01*
X138327855Y-89391300D01*
X138924544Y-89391299D01*
X138924552Y-89391298D01*
X138924555Y-89391298D01*
X138987324Y-89384886D01*
X139023908Y-89381149D01*
X139184897Y-89327803D01*
X139329244Y-89238768D01*
X139449168Y-89118844D01*
X139449170Y-89118839D01*
X139451901Y-89115388D01*
X139508923Y-89075012D01*
X139549166Y-89068300D01*
X143667900Y-89068300D01*
X143734939Y-89087985D01*
G37*
%TD.AperFunction*%
%TA.AperFunction,Conductor*%
G36*
X146883974Y-81501101D02*
G01*
X146890088Y-81501101D01*
X147044826Y-81501101D01*
X147044846Y-81501100D01*
X147641913Y-81501100D01*
X147708952Y-81520785D01*
X147729594Y-81537419D01*
X148852981Y-82660805D01*
X148886466Y-82722128D01*
X148889300Y-82748486D01*
X148889300Y-86654326D01*
X148869615Y-86721365D01*
X148852981Y-86742007D01*
X148845832Y-86749155D01*
X148845829Y-86749159D01*
X148756801Y-86893494D01*
X148756796Y-86893505D01*
X148703451Y-87054490D01*
X148693300Y-87153847D01*
X148693300Y-87153855D01*
X148693300Y-87432960D01*
X148693301Y-87612300D01*
X148673617Y-87679339D01*
X148620813Y-87725094D01*
X148569301Y-87736300D01*
X147268120Y-87736300D01*
X147201081Y-87716615D01*
X147155326Y-87663811D01*
X147145382Y-87594653D01*
X147174407Y-87531097D01*
X147180439Y-87524619D01*
X147229068Y-87475989D01*
X147229069Y-87475988D01*
X147229072Y-87475985D01*
X147317078Y-87330406D01*
X147367686Y-87167996D01*
X147374100Y-87097416D01*
X147374100Y-86584184D01*
X147367686Y-86513604D01*
X147317078Y-86351194D01*
X147229072Y-86205615D01*
X147229070Y-86205613D01*
X147229069Y-86205611D01*
X147108788Y-86085330D01*
X146963206Y-85997322D01*
X146800796Y-85946714D01*
X146800794Y-85946713D01*
X146800792Y-85946713D01*
X146751378Y-85942223D01*
X146730216Y-85940300D01*
X146066984Y-85940300D01*
X146047745Y-85942048D01*
X145996407Y-85946713D01*
X145833993Y-85997322D01*
X145688413Y-86085329D01*
X145664507Y-86109236D01*
X145596760Y-86176982D01*
X145535440Y-86210466D01*
X145509081Y-86213300D01*
X145170900Y-86213300D01*
X145103861Y-86193615D01*
X145058106Y-86140811D01*
X145046900Y-86089300D01*
X145046900Y-85928120D01*
X145066585Y-85861081D01*
X145119389Y-85815326D01*
X145127555Y-85811942D01*
X145161731Y-85799196D01*
X145276946Y-85712946D01*
X145363196Y-85597731D01*
X145413491Y-85462883D01*
X145419900Y-85403273D01*
X145419899Y-83607528D01*
X145413491Y-83547917D01*
X145376647Y-83449134D01*
X145363197Y-83413071D01*
X145363193Y-83413064D01*
X145276947Y-83297855D01*
X145276944Y-83297852D01*
X145161735Y-83211606D01*
X145161728Y-83211602D01*
X145026882Y-83161308D01*
X145026883Y-83161308D01*
X144967283Y-83154901D01*
X144967281Y-83154900D01*
X144967273Y-83154900D01*
X144967264Y-83154900D01*
X143871529Y-83154900D01*
X143871523Y-83154901D01*
X143811916Y-83161308D01*
X143677071Y-83211602D01*
X143677064Y-83211606D01*
X143561855Y-83297852D01*
X143561852Y-83297855D01*
X143475606Y-83413064D01*
X143475602Y-83413071D01*
X143425308Y-83547917D01*
X143418901Y-83607516D01*
X143418901Y-83607523D01*
X143418900Y-83607535D01*
X143418900Y-85403270D01*
X143418901Y-85403276D01*
X143425308Y-85462883D01*
X143475602Y-85597728D01*
X143475606Y-85597735D01*
X143561852Y-85712944D01*
X143561855Y-85712947D01*
X143677064Y-85799193D01*
X143677069Y-85799196D01*
X143711232Y-85811938D01*
X143767166Y-85853808D01*
X143791584Y-85919271D01*
X143791900Y-85928120D01*
X143791900Y-87689300D01*
X143772215Y-87756339D01*
X143719411Y-87802094D01*
X143667900Y-87813300D01*
X139549166Y-87813300D01*
X139482127Y-87793615D01*
X139451901Y-87766212D01*
X139449168Y-87762756D01*
X139329244Y-87642832D01*
X139329240Y-87642829D01*
X139184905Y-87553801D01*
X139184899Y-87553798D01*
X139184897Y-87553797D01*
X139184894Y-87553796D01*
X139023909Y-87500451D01*
X138924546Y-87490300D01*
X138327862Y-87490300D01*
X138327844Y-87490301D01*
X138228492Y-87500450D01*
X138228485Y-87500452D01*
X138142903Y-87528811D01*
X138073075Y-87531212D01*
X138013033Y-87495480D01*
X137981841Y-87432960D01*
X137979900Y-87411105D01*
X137979900Y-85626998D01*
X137979314Y-85624050D01*
X137979314Y-85624049D01*
X137967281Y-85563555D01*
X137955786Y-85505766D01*
X137913351Y-85403320D01*
X137908483Y-85391567D01*
X137839814Y-85288796D01*
X137839813Y-85288794D01*
X137824894Y-85273875D01*
X137752408Y-85201389D01*
X136706219Y-84155200D01*
X136672734Y-84093877D01*
X136669900Y-84067519D01*
X136669900Y-82076861D01*
X136689585Y-82009822D01*
X136742389Y-81964067D01*
X136811547Y-81954123D01*
X136823820Y-81956525D01*
X136915741Y-81979385D01*
X136975302Y-81994198D01*
X136975303Y-81994198D01*
X136975311Y-81994200D01*
X137018077Y-81997100D01*
X138420322Y-81997099D01*
X138463089Y-81994200D01*
X138647893Y-81948241D01*
X138818496Y-81863630D01*
X138966922Y-81744322D01*
X139086230Y-81595896D01*
X139086232Y-81595891D01*
X139089851Y-81590231D01*
X139091283Y-81591146D01*
X139132861Y-81546136D01*
X139200492Y-81528591D01*
X139266873Y-81550394D01*
X139284235Y-81564847D01*
X139301755Y-81582367D01*
X139301759Y-81582370D01*
X139446094Y-81671398D01*
X139446097Y-81671399D01*
X139446103Y-81671403D01*
X139607092Y-81724749D01*
X139706455Y-81734900D01*
X140303144Y-81734899D01*
X140303152Y-81734898D01*
X140303155Y-81734898D01*
X140357560Y-81729340D01*
X140402508Y-81724749D01*
X140563497Y-81671403D01*
X140707844Y-81582368D01*
X140752793Y-81537419D01*
X140814116Y-81503934D01*
X140840474Y-81501100D01*
X146883954Y-81501100D01*
X146883974Y-81501101D01*
G37*
%TD.AperFunction*%
%TA.AperFunction,Conductor*%
G36*
X145496315Y-75789909D02*
G01*
X145544393Y-75828538D01*
X145622255Y-75932547D01*
X145737464Y-76018793D01*
X145737471Y-76018797D01*
X145779761Y-76034570D01*
X145872317Y-76069091D01*
X145931927Y-76075500D01*
X146101300Y-76075499D01*
X146168339Y-76095183D01*
X146214094Y-76147987D01*
X146225300Y-76199499D01*
X146225300Y-79868100D01*
X146205615Y-79935139D01*
X146152811Y-79980894D01*
X146101300Y-79992100D01*
X144394603Y-79992100D01*
X144327564Y-79972415D01*
X144281809Y-79919611D01*
X144271865Y-79850453D01*
X144300890Y-79786897D01*
X144328631Y-79763106D01*
X144469462Y-79674616D01*
X144597016Y-79547062D01*
X144692989Y-79394322D01*
X144752568Y-79224055D01*
X144754139Y-79210112D01*
X144772765Y-79044803D01*
X144772765Y-79044796D01*
X144752569Y-78865550D01*
X144752568Y-78865545D01*
X144692988Y-78695276D01*
X144613706Y-78569100D01*
X144594700Y-78503128D01*
X144594700Y-78114253D01*
X144614385Y-78047214D01*
X144654550Y-78008136D01*
X144717185Y-77970272D01*
X144837472Y-77849985D01*
X144925478Y-77704406D01*
X144976086Y-77541996D01*
X144982500Y-77471416D01*
X144982500Y-76808184D01*
X144976086Y-76737604D01*
X144925478Y-76575194D01*
X144861476Y-76469323D01*
X144843641Y-76401771D01*
X144865158Y-76335297D01*
X144919199Y-76291009D01*
X144932992Y-76286100D01*
X144965198Y-76276744D01*
X145106665Y-76193081D01*
X145222881Y-76076865D01*
X145306544Y-75935398D01*
X145326051Y-75868253D01*
X145363656Y-75809370D01*
X145427129Y-75780163D01*
X145496315Y-75789909D01*
G37*
%TD.AperFunction*%
%TD*%
M02*
